<svg width="46" height="46" viewBox="0 0 46 46" fill="none" xmlns="http://www.w3.org/2000/svg">
<rect x="0.5" y="0.5" width="45" height="45" rx="22.5" stroke="white" stroke-opacity="0.3"/>
<path d="M31.9375 17.5H14.0625C13.3032 17.5 12.6875 16.8843 12.6875 16.125C12.6875 15.3657 13.3032 14.75 14.0625 14.75H31.9375C32.6968 14.75 33.3125 15.3657 33.3125 16.125C33.3125 16.8843 32.6968 17.5 31.9375 17.5Z" fill="white"/>
<path d="M31.9375 31.25H14.0625C13.3032 31.25 12.6875 30.6343 12.6875 29.875C12.6875 29.1157 13.3032 28.5 14.0625 28.5H31.9375C32.6968 28.5 33.3125 29.1157 33.3125 29.875C33.3125 30.6343 32.6968 31.25 31.9375 31.25Z" fill="white"/>
<path d="M31.9375 24.375H14.0625C13.3032 24.375 12.6875 23.7593 12.6875 23C12.6875 22.2407 13.3032 21.625 14.0625 21.625H31.9375C32.6968 21.625 33.3125 22.2407 33.3125 23C33.3125 23.7593 32.6968 24.375 31.9375 24.375Z" fill="white"/>
</svg>
