<svg width="42" height="42" viewBox="0 0 42 42" fill="none" xmlns="http://www.w3.org/2000/svg">
<circle cx="21" cy="21" r="21" fill="white"/>
<path d="M25.7453 10.66C25.2334 10.6674 24.7435 10.8721 24.3819 11.2325L22.8722 12.7409L26.9764 16.8451L28.4861 15.3367C29.2498 14.5723 29.2498 13.3116 28.4861 12.5471C28.4861 12.5471 27.1681 11.2325 27.1664 11.2325C26.7885 10.8559 26.2787 10.6507 25.7453 10.66ZM21.9428 13.6704L12.547 23.0662C12.1794 23.4352 11.9697 23.9382 11.9693 24.4591V27.0882C11.9679 27.4537 12.2649 27.7502 12.6304 27.7481L15.2595 27.7429C15.7804 27.7425 16.2783 27.538 16.6473 27.1704L26.0482 17.7746L21.9428 13.6704ZM12.5637 29.0626C12.5632 29.0631 12.5628 29.0635 12.5624 29.0639C11.7062 29.1273 11.7723 30.4038 12.6304 30.3785H28.4039C29.3002 30.3986 29.3002 29.0438 28.4039 29.0639H12.6304C12.6082 29.0624 12.5859 29.062 12.5637 29.0626Z" fill="url(#paint0_linear_339_1498)"/>
<defs>
<linearGradient id="paint0_linear_339_1498" x1="10.478" y1="30.9125" x2="31.8478" y2="13.3288" gradientUnits="userSpaceOnUse">
<stop offset="0.0001" stop-color="#15BCDF"/>
<stop offset="0.615" stop-color="#0DDC7A"/>
<stop offset="1" stop-color="#15BCDF"/>
</linearGradient>
</defs>
</svg>
