<svg width="36" height="36" viewBox="0 0 36 36" fill="none" xmlns="http://www.w3.org/2000/svg">
<circle cx="18" cy="18" r="18" fill="url(#paint0_linear_138_1575)"/>
<g clip-path="url(#clip0_138_1575)">
<path d="M24.9375 14.166V14.791H9.9375V14.166C9.9375 12.4404 11.3369 11.041 13.0625 11.041H13.6875V10.416C13.6875 10.071 13.9675 9.79102 14.3125 9.79102C14.6575 9.79102 14.9375 10.071 14.9375 10.416V11.041H19.9375V10.416C19.9375 10.071 20.2175 9.79102 20.5625 9.79102C20.9075 9.79102 21.1875 10.071 21.1875 10.416V11.041H21.8125C23.5381 11.041 24.9375 12.4404 24.9375 14.166ZM24.9375 20.416C24.9375 22.8285 22.9744 24.791 20.5625 24.791C18.1506 24.791 16.1875 22.8285 16.1875 20.416C16.1875 18.0035 18.1506 16.041 20.5625 16.041C22.9744 16.041 24.9375 18.0035 24.9375 20.416ZM21.8125 20.7823L21.1875 20.1573V19.166C21.1875 18.821 20.9075 18.541 20.5625 18.541C20.2175 18.541 19.9375 18.821 19.9375 19.166V20.416C19.9375 20.5816 20.0031 20.741 20.1206 20.8579L20.9288 21.666C21.1725 21.9098 21.5688 21.9098 21.8125 21.666C22.0562 21.4223 22.0562 21.026 21.8125 20.7823ZM14.9375 20.416C14.9375 18.6479 15.755 17.0723 17.0306 16.041H9.9375V21.666C9.9375 23.3916 11.3369 24.791 13.0625 24.791H17.0306C15.755 23.7598 14.9375 22.1841 14.9375 20.416Z" fill="white"/>
</g>
<defs>
<linearGradient id="paint0_linear_138_1575" x1="-2.43416" y1="29.9808" x2="36.5268" y2="1.87782" gradientUnits="userSpaceOnUse">
<stop stop-color="#0034ED"/>
<stop offset="0.49" stop-color="#04B8C4"/>
<stop offset="1" stop-color="#4BFA8A"/>
</linearGradient>
<clipPath id="clip0_138_1575">
<rect width="15" height="15" fill="white" transform="translate(9.9375 9.79102)"/>
</clipPath>
</defs>
</svg>
