<svg width="336" height="670" viewBox="0 0 336 670" fill="none" xmlns="http://www.w3.org/2000/svg">
<path d="M32 0.5H169.826C174.624 0.5 178.184 0.500945 181.028 0.793945C183.861 1.08577 185.94 1.66409 187.781 2.7959C189.622 3.92773 191.077 5.52217 192.616 7.91797C193.775 9.72212 194.969 11.9602 196.407 14.7725L197.935 17.7812L203.173 28.1387C205.329 32.4014 206.964 35.632 208.543 38.0908C210.129 40.5593 211.681 42.2863 213.695 43.5244C215.709 44.7625 217.951 45.3683 220.869 45.6689C223.776 45.9684 227.397 45.9678 232.174 45.9678H304C311.556 45.9678 317.173 45.9696 321.489 46.5498C325.522 47.092 328.354 48.1321 330.533 50.1016L330.96 50.5078C333.195 52.7426 334.341 55.6769 334.919 59.9785C335.499 64.2944 335.5 69.9114 335.5 77.4678V637.547C335.5 645.093 335.499 650.703 334.92 655.014C334.379 659.041 333.34 661.869 331.374 664.048L330.969 664.476C328.738 666.71 325.808 667.857 321.513 668.44C318.28 668.88 314.317 668.995 309.354 669.03L304.047 669.047L32.0469 669.452H32.0459C24.4796 669.463 18.8551 669.47 14.5332 668.896C10.4948 668.358 7.65983 667.32 5.47656 665.351L5.04785 664.944C2.80918 662.709 1.6614 659.772 1.08203 655.465C0.500782 651.144 0.5 645.519 0.5 637.952V32C0.5 24.4437 0.500855 18.8266 1.08105 14.5107C1.65939 10.2092 2.80528 7.2748 5.04004 5.04004C7.2748 2.80528 10.2092 1.65939 14.5107 1.08105C18.8266 0.500855 24.4437 0.5 32 0.5Z" stroke="#E2E2E2"/>
<rect x="30" y="414" width="276" height="52" rx="26" fill="white"/>
<circle cx="56" cy="440" r="20" fill="url(#paint0_linear_270_1280)"/>
<path d="M55.6122 446V436.584L53.4522 437.904V435.776L55.6122 434.48H57.5802V446H55.6122Z" fill="#E5E5E5"/>
<path d="M89.12 446V434.48H93.728C94.5493 434.48 95.2133 434.645 95.72 434.976C96.2267 435.301 96.5973 435.712 96.832 436.208C97.0667 436.704 97.184 437.205 97.184 437.712C97.184 438.357 97.0373 438.893 96.744 439.32C96.456 439.747 96.0587 440.032 95.552 440.176V439.776C96.272 439.925 96.8107 440.259 97.168 440.776C97.5307 441.293 97.712 441.872 97.712 442.512C97.712 443.2 97.584 443.805 97.328 444.328C97.0773 444.851 96.6933 445.261 96.176 445.56C95.6587 445.853 95.008 446 94.224 446H89.12ZM91.328 443.952H94C94.2933 443.952 94.5547 443.891 94.784 443.768C95.0133 443.64 95.192 443.464 95.32 443.24C95.4533 443.011 95.52 442.741 95.52 442.432C95.52 442.16 95.464 441.917 95.352 441.704C95.24 441.491 95.0693 441.323 94.84 441.2C94.616 441.072 94.336 441.008 94 441.008H91.328V443.952ZM91.328 438.976H93.696C93.9413 438.976 94.16 438.933 94.352 438.848C94.544 438.763 94.696 438.632 94.808 438.456C94.92 438.275 94.976 438.043 94.976 437.76C94.976 437.408 94.8667 437.112 94.648 436.872C94.4293 436.632 94.112 436.512 93.696 436.512H91.328V438.976ZM98.9875 446V437.36H100.908V439.472L100.7 439.2C100.812 438.901 100.961 438.629 101.148 438.384C101.334 438.139 101.564 437.936 101.836 437.776C102.044 437.648 102.27 437.549 102.516 437.48C102.761 437.405 103.014 437.36 103.276 437.344C103.537 437.323 103.798 437.328 104.06 437.36V439.392C103.82 439.317 103.54 439.293 103.22 439.32C102.905 439.341 102.62 439.413 102.364 439.536C102.108 439.653 101.892 439.811 101.716 440.008C101.54 440.2 101.406 440.429 101.316 440.696C101.225 440.957 101.18 441.253 101.18 441.584V446H98.9875ZM105.421 436.16V434.24H107.597V436.16H105.421ZM105.421 446V437.36H107.597V446H105.421ZM113.692 446.24C112.806 446.24 112.025 446.051 111.348 445.672C110.676 445.288 110.148 444.763 109.764 444.096C109.385 443.424 109.196 442.656 109.196 441.792C109.196 440.848 109.382 440.027 109.756 439.328C110.129 438.629 110.644 438.088 111.3 437.704C111.956 437.315 112.71 437.12 113.564 437.12C114.47 437.12 115.241 437.333 115.876 437.76C116.51 438.187 116.98 438.787 117.284 439.56C117.588 440.333 117.694 441.243 117.604 442.288H115.452V441.488C115.452 440.608 115.31 439.976 115.028 439.592C114.75 439.203 114.294 439.008 113.66 439.008C112.918 439.008 112.372 439.235 112.02 439.688C111.673 440.136 111.5 440.8 111.5 441.68C111.5 442.485 111.673 443.109 112.02 443.552C112.372 443.989 112.886 444.208 113.564 444.208C113.99 444.208 114.356 444.115 114.66 443.928C114.964 443.741 115.196 443.472 115.356 443.12L117.532 443.744C117.206 444.533 116.692 445.147 115.988 445.584C115.289 446.021 114.524 446.24 113.692 446.24ZM110.828 442.288V440.672H116.556V442.288H110.828ZM119.81 446V437.392C119.81 437.173 119.815 436.925 119.826 436.648C119.837 436.371 119.879 436.091 119.954 435.808C120.034 435.525 120.178 435.269 120.386 435.04C120.653 434.741 120.941 434.539 121.25 434.432C121.565 434.32 121.869 434.261 122.162 434.256C122.455 434.245 122.706 434.24 122.914 434.24H123.986V436H122.994C122.653 436 122.399 436.088 122.234 436.264C122.069 436.435 121.986 436.64 121.986 436.88V446H119.81ZM118.45 439.04V437.36H123.986V439.04H118.45ZM125.666 436.16V434.24H127.842V436.16H125.666ZM125.666 446V437.36H127.842V446H125.666ZM135.814 446V441.92C135.814 441.723 135.804 441.472 135.782 441.168C135.761 440.859 135.694 440.549 135.582 440.24C135.47 439.931 135.286 439.672 135.03 439.464C134.78 439.256 134.422 439.152 133.958 439.152C133.772 439.152 133.572 439.181 133.358 439.24C133.145 439.299 132.945 439.413 132.758 439.584C132.572 439.749 132.417 439.995 132.294 440.32C132.177 440.645 132.118 441.077 132.118 441.616L130.87 441.024C130.87 440.341 131.009 439.701 131.286 439.104C131.564 438.507 131.98 438.024 132.534 437.656C133.094 437.288 133.798 437.104 134.646 437.104C135.324 437.104 135.876 437.219 136.302 437.448C136.729 437.677 137.06 437.968 137.294 438.32C137.534 438.672 137.705 439.04 137.806 439.424C137.908 439.803 137.969 440.149 137.99 440.464C138.012 440.779 138.022 441.008 138.022 441.152V446H135.814ZM129.91 446V437.36H131.846V440.224H132.118V446H129.91ZM143.474 450.08C142.983 450.08 142.517 450 142.074 449.84C141.631 449.685 141.234 449.467 140.882 449.184C140.535 448.907 140.253 448.581 140.034 448.208L142.05 447.232C142.189 447.488 142.386 447.683 142.642 447.816C142.903 447.949 143.186 448.016 143.49 448.016C143.815 448.016 144.122 447.96 144.41 447.848C144.698 447.741 144.927 447.579 145.098 447.36C145.274 447.147 145.357 446.88 145.346 446.56V444.048H145.618V437.36H147.522V446.592C147.522 446.805 147.511 447.005 147.49 447.192C147.474 447.384 147.442 447.573 147.394 447.76C147.255 448.288 146.997 448.723 146.618 449.064C146.245 449.405 145.786 449.659 145.242 449.824C144.698 449.995 144.109 450.08 143.474 450.08ZM143.282 446.24C142.487 446.24 141.791 446.04 141.194 445.64C140.597 445.24 140.13 444.696 139.794 444.008C139.463 443.32 139.298 442.544 139.298 441.68C139.298 440.8 139.466 440.019 139.802 439.336C140.143 438.648 140.621 438.107 141.234 437.712C141.847 437.317 142.567 437.12 143.394 437.12C144.215 437.12 144.906 437.32 145.466 437.72C146.026 438.12 146.45 438.664 146.738 439.352C147.026 440.04 147.17 440.816 147.17 441.68C147.17 442.544 147.023 443.32 146.73 444.008C146.442 444.696 146.01 445.24 145.434 445.64C144.858 446.04 144.141 446.24 143.282 446.24ZM143.634 444.304C144.119 444.304 144.506 444.195 144.794 443.976C145.087 443.757 145.298 443.451 145.426 443.056C145.554 442.661 145.618 442.203 145.618 441.68C145.618 441.157 145.554 440.699 145.426 440.304C145.298 439.909 145.093 439.603 144.81 439.384C144.533 439.165 144.167 439.056 143.714 439.056C143.229 439.056 142.829 439.176 142.514 439.416C142.205 439.651 141.975 439.968 141.826 440.368C141.677 440.763 141.602 441.2 141.602 441.68C141.602 442.165 141.674 442.608 141.818 443.008C141.962 443.403 142.183 443.717 142.482 443.952C142.781 444.187 143.165 444.304 143.634 444.304Z" fill="#161616"/>
<rect x="30" y="472" width="276" height="52" rx="26" fill="white"/>
<circle cx="56" cy="498" r="20" fill="url(#paint1_linear_270_1280)"/>
<path d="M52.0344 503.984V502.304L56.9624 497.912C57.3464 497.571 57.613 497.248 57.7624 496.944C57.9117 496.64 57.9864 496.347 57.9864 496.064C57.9864 495.68 57.9037 495.339 57.7384 495.04C57.573 494.736 57.3437 494.496 57.0504 494.32C56.7624 494.144 56.429 494.056 56.0504 494.056C55.6504 494.056 55.2957 494.149 54.9864 494.336C54.6824 494.517 54.445 494.76 54.2744 495.064C54.1037 495.368 54.0237 495.696 54.0344 496.048H52.0504C52.0504 495.28 52.221 494.611 52.5624 494.04C52.909 493.469 53.3837 493.027 53.9864 492.712C54.5944 492.397 55.2957 492.24 56.0904 492.24C56.8264 492.24 57.4877 492.405 58.0744 492.736C58.661 493.061 59.1224 493.515 59.4584 494.096C59.7944 494.672 59.9624 495.336 59.9624 496.088C59.9624 496.637 59.8877 497.099 59.7384 497.472C59.589 497.845 59.365 498.189 59.0664 498.504C58.773 498.819 58.4077 499.168 57.9704 499.552L54.4744 502.648L54.2984 502.168H59.9624V503.984H52.0344Z" fill="#E5E5E5"/>
<path d="M89.12 504V492.48H92.848C92.9387 492.48 93.1253 492.483 93.408 492.488C93.6907 492.493 93.9627 492.512 94.224 492.544C95.152 492.656 95.9387 492.979 96.584 493.512C97.2293 494.045 97.72 494.723 98.056 495.544C98.392 496.365 98.56 497.264 98.56 498.24C98.56 499.216 98.392 500.115 98.056 500.936C97.72 501.757 97.2293 502.435 96.584 502.968C95.9387 503.501 95.152 503.824 94.224 503.936C93.9627 503.968 93.6907 503.987 93.408 503.992C93.1253 503.997 92.9387 504 92.848 504H89.12ZM91.328 501.952H92.848C92.992 501.952 93.1867 501.949 93.432 501.944C93.6773 501.933 93.8987 501.909 94.096 501.872C94.5973 501.771 95.0053 501.536 95.32 501.168C95.64 500.8 95.8747 500.357 96.024 499.84C96.1787 499.323 96.256 498.789 96.256 498.24C96.256 497.664 96.176 497.117 96.016 496.6C95.8613 496.083 95.624 495.645 95.304 495.288C94.984 494.931 94.5813 494.704 94.096 494.608C93.8987 494.565 93.6773 494.541 93.432 494.536C93.1867 494.531 92.992 494.528 92.848 494.528H91.328V501.952ZM104.175 504.24C103.29 504.24 102.509 504.051 101.831 503.672C101.159 503.288 100.631 502.763 100.247 502.096C99.8687 501.424 99.6794 500.656 99.6794 499.792C99.6794 498.848 99.866 498.027 100.239 497.328C100.613 496.629 101.127 496.088 101.783 495.704C102.439 495.315 103.194 495.12 104.047 495.12C104.954 495.12 105.725 495.333 106.359 495.76C106.994 496.187 107.463 496.787 107.767 497.56C108.071 498.333 108.178 499.243 108.087 500.288H105.935V499.488C105.935 498.608 105.794 497.976 105.511 497.592C105.234 497.203 104.778 497.008 104.143 497.008C103.402 497.008 102.855 497.235 102.503 497.688C102.157 498.136 101.983 498.8 101.983 499.68C101.983 500.485 102.157 501.109 102.503 501.552C102.855 501.989 103.37 502.208 104.047 502.208C104.474 502.208 104.839 502.115 105.143 501.928C105.447 501.741 105.679 501.472 105.839 501.12L108.015 501.744C107.69 502.533 107.175 503.147 106.471 503.584C105.773 504.021 105.007 504.24 104.175 504.24ZM101.311 500.288V498.672H107.039V500.288H101.311ZM113.814 504.24C112.955 504.24 112.238 504.04 111.662 503.64C111.086 503.24 110.651 502.696 110.358 502.008C110.07 501.32 109.926 500.544 109.926 499.68C109.926 498.816 110.07 498.04 110.358 497.352C110.646 496.664 111.07 496.12 111.63 495.72C112.19 495.32 112.88 495.12 113.702 495.12C114.528 495.12 115.248 495.317 115.862 495.712C116.475 496.107 116.95 496.648 117.286 497.336C117.627 498.019 117.798 498.8 117.798 499.68C117.798 500.544 117.63 501.32 117.294 502.008C116.963 502.696 116.499 503.24 115.902 503.64C115.304 504.04 114.608 504.24 113.814 504.24ZM109.558 504V492.48H111.75V498.08H111.478V504H109.558ZM113.462 502.304C113.931 502.304 114.315 502.187 114.614 501.952C114.912 501.717 115.134 501.403 115.278 501.008C115.422 500.608 115.494 500.165 115.494 499.68C115.494 499.2 115.419 498.763 115.27 498.368C115.12 497.968 114.888 497.651 114.574 497.416C114.264 497.176 113.867 497.056 113.382 497.056C112.928 497.056 112.56 497.165 112.278 497.384C112 497.603 111.798 497.909 111.67 498.304C111.542 498.699 111.478 499.157 111.478 499.68C111.478 500.203 111.542 500.661 111.67 501.056C111.798 501.451 112.006 501.757 112.294 501.976C112.587 502.195 112.976 502.304 113.462 502.304ZM119.238 504V495.36H121.158V497.472L120.95 497.2C121.062 496.901 121.211 496.629 121.398 496.384C121.585 496.139 121.814 495.936 122.086 495.776C122.294 495.648 122.521 495.549 122.766 495.48C123.011 495.405 123.265 495.36 123.526 495.344C123.787 495.323 124.049 495.328 124.31 495.36V497.392C124.07 497.317 123.79 497.293 123.47 497.32C123.155 497.341 122.87 497.413 122.614 497.536C122.358 497.653 122.142 497.811 121.966 498.008C121.79 498.2 121.657 498.429 121.566 498.696C121.475 498.957 121.43 499.253 121.43 499.584V504H119.238ZM125.672 494.16V492.24H127.848V494.16H125.672ZM125.672 504V495.36H127.848V504H125.672ZM133.942 504.24C133.057 504.24 132.276 504.051 131.598 503.672C130.926 503.288 130.398 502.763 130.014 502.096C129.636 501.424 129.446 500.656 129.446 499.792C129.446 498.848 129.633 498.027 130.006 497.328C130.38 496.629 130.894 496.088 131.55 495.704C132.206 495.315 132.961 495.12 133.814 495.12C134.721 495.12 135.492 495.333 136.126 495.76C136.761 496.187 137.23 496.787 137.534 497.56C137.838 498.333 137.945 499.243 137.854 500.288H135.702V499.488C135.702 498.608 135.561 497.976 135.278 497.592C135.001 497.203 134.545 497.008 133.91 497.008C133.169 497.008 132.622 497.235 132.27 497.688C131.924 498.136 131.75 498.8 131.75 499.68C131.75 500.485 131.924 501.109 132.27 501.552C132.622 501.989 133.137 502.208 133.814 502.208C134.241 502.208 134.606 502.115 134.91 501.928C135.214 501.741 135.446 501.472 135.606 501.12L137.782 501.744C137.457 502.533 136.942 503.147 136.238 503.584C135.54 504.021 134.774 504.24 133.942 504.24ZM131.078 500.288V498.672H136.806V500.288H131.078ZM140.061 504V495.392C140.061 495.173 140.066 494.925 140.077 494.648C140.087 494.371 140.13 494.091 140.205 493.808C140.285 493.525 140.429 493.269 140.637 493.04C140.903 492.741 141.191 492.539 141.501 492.432C141.815 492.32 142.119 492.261 142.413 492.256C142.706 492.245 142.957 492.24 143.165 492.24H144.237V494H143.245C142.903 494 142.65 494.088 142.485 494.264C142.319 494.435 142.237 494.64 142.237 494.88V504H140.061ZM138.701 497.04V495.36H144.237V497.04H138.701ZM145.917 494.16V492.24H148.093V494.16H145.917ZM145.917 504V495.36H148.093V504H145.917ZM156.065 504V499.92C156.065 499.723 156.054 499.472 156.033 499.168C156.012 498.859 155.945 498.549 155.833 498.24C155.721 497.931 155.537 497.672 155.281 497.464C155.03 497.256 154.673 497.152 154.209 497.152C154.022 497.152 153.822 497.181 153.609 497.24C153.396 497.299 153.196 497.413 153.009 497.584C152.822 497.749 152.668 497.995 152.545 498.32C152.428 498.645 152.369 499.077 152.369 499.616L151.121 499.024C151.121 498.341 151.26 497.701 151.537 497.104C151.814 496.507 152.23 496.024 152.785 495.656C153.345 495.288 154.049 495.104 154.897 495.104C155.574 495.104 156.126 495.219 156.553 495.448C156.98 495.677 157.31 495.968 157.545 496.32C157.785 496.672 157.956 497.04 158.057 497.424C158.158 497.803 158.22 498.149 158.241 498.464C158.262 498.779 158.273 499.008 158.273 499.152V504H156.065ZM150.161 504V495.36H152.097V498.224H152.369V504H150.161ZM163.725 508.08C163.234 508.08 162.767 508 162.325 507.84C161.882 507.685 161.485 507.467 161.133 507.184C160.786 506.907 160.503 506.581 160.285 506.208L162.301 505.232C162.439 505.488 162.637 505.683 162.893 505.816C163.154 505.949 163.437 506.016 163.741 506.016C164.066 506.016 164.373 505.96 164.661 505.848C164.949 505.741 165.178 505.579 165.349 505.36C165.525 505.147 165.607 504.88 165.597 504.56V502.048H165.869V495.36H167.773V504.592C167.773 504.805 167.762 505.005 167.741 505.192C167.725 505.384 167.693 505.573 167.645 505.76C167.506 506.288 167.247 506.723 166.869 507.064C166.495 507.405 166.037 507.659 165.493 507.824C164.949 507.995 164.359 508.08 163.725 508.08ZM163.533 504.24C162.738 504.24 162.042 504.04 161.445 503.64C160.847 503.24 160.381 502.696 160.045 502.008C159.714 501.32 159.549 500.544 159.549 499.68C159.549 498.8 159.717 498.019 160.053 497.336C160.394 496.648 160.871 496.107 161.485 495.712C162.098 495.317 162.818 495.12 163.645 495.12C164.466 495.12 165.157 495.32 165.717 495.72C166.277 496.12 166.701 496.664 166.989 497.352C167.277 498.04 167.421 498.816 167.421 499.68C167.421 500.544 167.274 501.32 166.981 502.008C166.693 502.696 166.261 503.24 165.685 503.64C165.109 504.04 164.391 504.24 163.533 504.24ZM163.885 502.304C164.37 502.304 164.757 502.195 165.045 501.976C165.338 501.757 165.549 501.451 165.677 501.056C165.805 500.661 165.869 500.203 165.869 499.68C165.869 499.157 165.805 498.699 165.677 498.304C165.549 497.909 165.343 497.603 165.061 497.384C164.783 497.165 164.418 497.056 163.965 497.056C163.479 497.056 163.079 497.176 162.765 497.416C162.455 497.651 162.226 497.968 162.077 498.368C161.927 498.763 161.853 499.2 161.853 499.68C161.853 500.165 161.925 500.608 162.069 501.008C162.213 501.403 162.434 501.717 162.733 501.952C163.031 502.187 163.415 502.304 163.885 502.304Z" fill="#161616"/>
<rect x="30" y="530" width="276" height="52" rx="26" fill="white"/>
<circle cx="56" cy="556" r="20" fill="url(#paint2_linear_270_1280)"/>
<path d="M55.7676 562.216C55.1916 562.216 54.6476 562.104 54.1356 561.88C53.6236 561.656 53.1782 561.339 52.7996 560.928C52.4262 560.517 52.1569 560.032 51.9916 559.472L53.8556 558.968C53.9889 559.427 54.2316 559.781 54.5836 560.032C54.9409 560.277 55.3329 560.397 55.7596 560.392C56.1382 560.392 56.4769 560.304 56.7756 560.128C57.0742 559.952 57.3089 559.715 57.4796 559.416C57.6502 559.112 57.7356 558.773 57.7356 558.4C57.7356 557.829 57.5516 557.352 57.1836 556.968C56.8156 556.584 56.3409 556.392 55.7596 556.392C55.5836 556.392 55.4102 556.416 55.2396 556.464C55.0742 556.512 54.9142 556.579 54.7596 556.664L53.8796 555.144L57.7516 551.832L57.9196 552.296H52.4396V550.48H59.5036V552.304L56.3916 555.296L56.3756 554.728C57.0742 554.776 57.6689 554.971 58.1596 555.312C58.6556 555.653 59.0342 556.093 59.2956 556.632C59.5622 557.171 59.6956 557.76 59.6956 558.4C59.6956 559.125 59.5169 559.776 59.1596 560.352C58.8076 560.928 58.3329 561.384 57.7356 561.72C57.1436 562.051 56.4876 562.216 55.7676 562.216Z" fill="#E5E5E5"/>
<path d="M88.32 562L91.84 550.48H95.088L98.608 562H96.368L93.232 551.84H93.648L90.56 562H88.32ZM90.432 559.6V557.568H96.512V559.6H90.432ZM103.53 562.24C102.634 562.24 101.866 562.04 101.226 561.64C100.586 561.24 100.095 560.696 99.7539 560.008C99.4125 559.32 99.2419 558.544 99.2419 557.68C99.2419 556.805 99.4179 556.024 99.7699 555.336C100.127 554.648 100.629 554.107 101.274 553.712C101.919 553.317 102.682 553.12 103.562 553.12C104.581 553.12 105.434 553.379 106.122 553.896C106.815 554.408 107.258 555.109 107.45 556L105.274 556.576C105.146 556.128 104.922 555.779 104.602 555.528C104.287 555.277 103.93 555.152 103.53 555.152C103.071 555.152 102.695 555.264 102.402 555.488C102.109 555.707 101.893 556.008 101.754 556.392C101.615 556.771 101.546 557.2 101.546 557.68C101.546 558.432 101.711 559.043 102.042 559.512C102.378 559.976 102.874 560.208 103.53 560.208C104.021 560.208 104.394 560.096 104.65 559.872C104.906 559.648 105.098 559.328 105.226 558.912L107.45 559.376C107.205 560.293 106.741 561 106.058 561.496C105.375 561.992 104.533 562.24 103.53 562.24ZM112.304 562.24C111.408 562.24 110.64 562.04 110 561.64C109.36 561.24 108.869 560.696 108.528 560.008C108.186 559.32 108.016 558.544 108.016 557.68C108.016 556.805 108.192 556.024 108.544 555.336C108.901 554.648 109.402 554.107 110.048 553.712C110.693 553.317 111.456 553.12 112.336 553.12C113.354 553.12 114.208 553.379 114.896 553.896C115.589 554.408 116.032 555.109 116.224 556L114.048 556.576C113.92 556.128 113.696 555.779 113.376 555.528C113.061 555.277 112.704 555.152 112.304 555.152C111.845 555.152 111.469 555.264 111.176 555.488C110.882 555.707 110.666 556.008 110.528 556.392C110.389 556.771 110.32 557.2 110.32 557.68C110.32 558.432 110.485 559.043 110.816 559.512C111.152 559.976 111.648 560.208 112.304 560.208C112.794 560.208 113.168 560.096 113.424 559.872C113.68 559.648 113.872 559.328 114 558.912L116.224 559.376C115.978 560.293 115.514 561 114.832 561.496C114.149 561.992 113.306 562.24 112.304 562.24ZM121.157 562.24C120.288 562.24 119.525 562.045 118.869 561.656C118.213 561.267 117.701 560.731 117.333 560.048C116.971 559.36 116.789 558.571 116.789 557.68C116.789 556.779 116.976 555.987 117.349 555.304C117.723 554.616 118.237 554.08 118.893 553.696C119.549 553.312 120.304 553.12 121.157 553.12C122.027 553.12 122.789 553.315 123.445 553.704C124.107 554.093 124.621 554.632 124.989 555.32C125.357 556.003 125.541 556.789 125.541 557.68C125.541 558.576 125.355 559.368 124.981 560.056C124.613 560.739 124.099 561.275 123.437 561.664C122.781 562.048 122.021 562.24 121.157 562.24ZM121.157 560.208C121.856 560.208 122.376 559.973 122.717 559.504C123.064 559.029 123.237 558.421 123.237 557.68C123.237 556.912 123.061 556.299 122.709 555.84C122.363 555.381 121.845 555.152 121.157 555.152C120.683 555.152 120.293 555.259 119.989 555.472C119.685 555.685 119.459 555.981 119.309 556.36C119.165 556.739 119.093 557.179 119.093 557.68C119.093 558.453 119.267 559.069 119.613 559.528C119.965 559.981 120.48 560.208 121.157 560.208ZM130.197 562.256C129.519 562.256 128.967 562.141 128.541 561.912C128.114 561.683 127.781 561.392 127.541 561.04C127.306 560.688 127.138 560.323 127.037 559.944C126.935 559.56 126.874 559.211 126.853 558.896C126.831 558.581 126.821 558.352 126.821 558.208V553.36H129.029V557.44C129.029 557.637 129.039 557.891 129.061 558.2C129.082 558.504 129.149 558.811 129.261 559.12C129.373 559.429 129.554 559.688 129.805 559.896C130.061 560.104 130.421 560.208 130.885 560.208C131.071 560.208 131.271 560.179 131.485 560.12C131.698 560.061 131.898 559.949 132.085 559.784C132.271 559.613 132.423 559.365 132.541 559.04C132.663 558.709 132.725 558.277 132.725 557.744L133.973 558.336C133.973 559.019 133.834 559.659 133.557 560.256C133.279 560.853 132.861 561.336 132.301 561.704C131.746 562.072 131.045 562.256 130.197 562.256ZM132.997 562V559.136H132.725V553.36H134.917V562H132.997ZM142.721 562V557.92C142.721 557.723 142.71 557.472 142.689 557.168C142.667 556.859 142.601 556.549 142.489 556.24C142.377 555.931 142.193 555.672 141.937 555.464C141.686 555.256 141.329 555.152 140.865 555.152C140.678 555.152 140.478 555.181 140.265 555.24C140.051 555.299 139.851 555.413 139.665 555.584C139.478 555.749 139.323 555.995 139.201 556.32C139.083 556.645 139.025 557.077 139.025 557.616L137.777 557.024C137.777 556.341 137.915 555.701 138.193 555.104C138.47 554.507 138.886 554.024 139.441 553.656C140.001 553.288 140.705 553.104 141.553 553.104C142.23 553.104 142.782 553.219 143.209 553.448C143.635 553.677 143.966 553.968 144.201 554.32C144.441 554.672 144.611 555.04 144.713 555.424C144.814 555.803 144.875 556.149 144.897 556.464C144.918 556.779 144.929 557.008 144.929 557.152V562H142.721ZM136.817 562V553.36H138.753V556.224H139.025V562H136.817ZM151.868 562C151.271 562.112 150.684 562.16 150.108 562.144C149.538 562.133 149.026 562.035 148.572 561.848C148.124 561.656 147.783 561.349 147.548 560.928C147.335 560.533 147.223 560.133 147.212 559.728C147.202 559.317 147.196 558.853 147.196 558.336V550.96H149.372V558.208C149.372 558.544 149.375 558.848 149.38 559.12C149.391 559.387 149.447 559.6 149.548 559.76C149.74 560.064 150.047 560.229 150.468 560.256C150.89 560.283 151.356 560.261 151.868 560.192V562ZM145.724 555.04V553.36H151.868V555.04H145.724ZM158.757 562.24C158.138 562.24 157.613 562.123 157.181 561.888C156.754 561.648 156.429 561.331 156.205 560.936C155.986 560.536 155.877 560.096 155.877 559.616C155.877 559.216 155.938 558.851 156.061 558.52C156.184 558.189 156.381 557.899 156.653 557.648C156.93 557.392 157.301 557.179 157.765 557.008C158.085 556.891 158.466 556.787 158.909 556.696C159.352 556.605 159.853 556.52 160.413 556.44C160.973 556.355 161.589 556.261 162.261 556.16L161.477 556.592C161.477 556.08 161.354 555.704 161.109 555.464C160.864 555.224 160.453 555.104 159.877 555.104C159.557 555.104 159.224 555.181 158.877 555.336C158.53 555.491 158.288 555.765 158.149 556.16L156.181 555.536C156.4 554.821 156.81 554.24 157.413 553.792C158.016 553.344 158.837 553.12 159.877 553.12C160.64 553.12 161.317 553.237 161.909 553.472C162.501 553.707 162.949 554.112 163.253 554.688C163.424 555.008 163.525 555.328 163.557 555.648C163.589 555.968 163.605 556.325 163.605 556.72V562H161.701V560.224L161.973 560.592C161.552 561.173 161.096 561.595 160.605 561.856C160.12 562.112 159.504 562.24 158.757 562.24ZM159.221 560.528C159.621 560.528 159.957 560.459 160.229 560.32C160.506 560.176 160.725 560.013 160.885 559.832C161.05 559.651 161.162 559.499 161.221 559.376C161.333 559.141 161.397 558.869 161.413 558.56C161.434 558.245 161.445 557.984 161.445 557.776L162.085 557.936C161.44 558.043 160.917 558.133 160.517 558.208C160.117 558.277 159.794 558.341 159.549 558.4C159.304 558.459 159.088 558.523 158.901 558.592C158.688 558.677 158.514 558.771 158.381 558.872C158.253 558.968 158.157 559.075 158.093 559.192C158.034 559.309 158.005 559.44 158.005 559.584C158.005 559.781 158.053 559.952 158.149 560.096C158.25 560.235 158.392 560.341 158.573 560.416C158.754 560.491 158.97 560.528 159.221 560.528ZM169.173 562.24C168.277 562.24 167.509 562.04 166.869 561.64C166.229 561.24 165.738 560.696 165.397 560.008C165.056 559.32 164.885 558.544 164.885 557.68C164.885 556.805 165.061 556.024 165.413 555.336C165.77 554.648 166.272 554.107 166.917 553.712C167.562 553.317 168.325 553.12 169.205 553.12C170.224 553.12 171.077 553.379 171.765 553.896C172.458 554.408 172.901 555.109 173.093 556L170.917 556.576C170.789 556.128 170.565 555.779 170.245 555.528C169.93 555.277 169.573 555.152 169.173 555.152C168.714 555.152 168.338 555.264 168.045 555.488C167.752 555.707 167.536 556.008 167.397 556.392C167.258 556.771 167.189 557.2 167.189 557.68C167.189 558.432 167.354 559.043 167.685 559.512C168.021 559.976 168.517 560.208 169.173 560.208C169.664 560.208 170.037 560.096 170.293 559.872C170.549 559.648 170.741 559.328 170.869 558.912L173.093 559.376C172.848 560.293 172.384 561 171.701 561.496C171.018 561.992 170.176 562.24 169.173 562.24ZM177.947 562.24C177.051 562.24 176.283 562.04 175.643 561.64C175.003 561.24 174.512 560.696 174.171 560.008C173.829 559.32 173.659 558.544 173.659 557.68C173.659 556.805 173.835 556.024 174.187 555.336C174.544 554.648 175.045 554.107 175.691 553.712C176.336 553.317 177.099 553.12 177.979 553.12C178.997 553.12 179.851 553.379 180.539 553.896C181.232 554.408 181.675 555.109 181.867 556L179.691 556.576C179.563 556.128 179.339 555.779 179.019 555.528C178.704 555.277 178.347 555.152 177.947 555.152C177.488 555.152 177.112 555.264 176.819 555.488C176.525 555.707 176.309 556.008 176.171 556.392C176.032 556.771 175.963 557.2 175.963 557.68C175.963 558.432 176.128 559.043 176.459 559.512C176.795 559.976 177.291 560.208 177.947 560.208C178.437 560.208 178.811 560.096 179.067 559.872C179.323 559.648 179.515 559.328 179.643 558.912L181.867 559.376C181.621 560.293 181.157 561 180.475 561.496C179.792 561.992 178.949 562.24 177.947 562.24ZM186.929 562.24C186.043 562.24 185.262 562.051 184.585 561.672C183.913 561.288 183.385 560.763 183.001 560.096C182.622 559.424 182.433 558.656 182.433 557.792C182.433 556.848 182.619 556.027 182.993 555.328C183.366 554.629 183.881 554.088 184.537 553.704C185.193 553.315 185.947 553.12 186.801 553.12C187.707 553.12 188.478 553.333 189.113 553.76C189.747 554.187 190.217 554.787 190.521 555.56C190.825 556.333 190.931 557.243 190.841 558.288H188.689V557.488C188.689 556.608 188.547 555.976 188.265 555.592C187.987 555.203 187.531 555.008 186.897 555.008C186.155 555.008 185.609 555.235 185.257 555.688C184.91 556.136 184.737 556.8 184.737 557.68C184.737 558.485 184.91 559.109 185.257 559.552C185.609 559.989 186.123 560.208 186.801 560.208C187.227 560.208 187.593 560.115 187.897 559.928C188.201 559.741 188.433 559.472 188.593 559.12L190.769 559.744C190.443 560.533 189.929 561.147 189.225 561.584C188.526 562.021 187.761 562.24 186.929 562.24ZM184.065 558.288V556.672H189.793V558.288H184.065ZM195.703 562.24C194.615 562.24 193.735 561.995 193.063 561.504C192.396 561.008 191.991 560.309 191.847 559.408L194.071 559.072C194.162 559.477 194.362 559.795 194.671 560.024C194.986 560.253 195.383 560.368 195.863 560.368C196.258 560.368 196.562 560.293 196.775 560.144C196.988 559.989 197.095 559.776 197.095 559.504C197.095 559.333 197.052 559.197 196.967 559.096C196.882 558.989 196.69 558.885 196.391 558.784C196.098 558.683 195.639 558.549 195.015 558.384C194.311 558.203 193.748 558 193.327 557.776C192.906 557.552 192.602 557.285 192.415 556.976C192.228 556.661 192.135 556.283 192.135 555.84C192.135 555.285 192.276 554.805 192.559 554.4C192.842 553.989 193.239 553.675 193.751 553.456C194.268 553.232 194.876 553.12 195.575 553.12C196.252 553.12 196.852 553.224 197.375 553.432C197.898 553.64 198.319 553.936 198.639 554.32C198.964 554.704 199.164 555.157 199.239 555.68L197.015 556.08C196.978 555.76 196.839 555.507 196.599 555.32C196.359 555.133 196.034 555.024 195.623 554.992C195.223 554.965 194.9 555.019 194.655 555.152C194.415 555.285 194.295 555.477 194.295 555.728C194.295 555.877 194.346 556.003 194.447 556.104C194.554 556.205 194.77 556.309 195.095 556.416C195.426 556.523 195.927 556.661 196.599 556.832C197.255 557.003 197.78 557.203 198.175 557.432C198.575 557.656 198.866 557.928 199.047 558.248C199.228 558.563 199.319 558.944 199.319 559.392C199.319 560.277 198.999 560.973 198.359 561.48C197.719 561.987 196.834 562.24 195.703 562.24ZM204.133 562.24C203.045 562.24 202.165 561.995 201.493 561.504C200.826 561.008 200.421 560.309 200.277 559.408L202.501 559.072C202.592 559.477 202.792 559.795 203.101 560.024C203.416 560.253 203.813 560.368 204.293 560.368C204.688 560.368 204.992 560.293 205.205 560.144C205.418 559.989 205.525 559.776 205.525 559.504C205.525 559.333 205.482 559.197 205.397 559.096C205.312 558.989 205.12 558.885 204.821 558.784C204.528 558.683 204.069 558.549 203.445 558.384C202.741 558.203 202.178 558 201.757 557.776C201.336 557.552 201.032 557.285 200.845 556.976C200.658 556.661 200.565 556.283 200.565 555.84C200.565 555.285 200.706 554.805 200.989 554.4C201.272 553.989 201.669 553.675 202.181 553.456C202.698 553.232 203.306 553.12 204.005 553.12C204.682 553.12 205.282 553.224 205.805 553.432C206.328 553.64 206.749 553.936 207.069 554.32C207.394 554.704 207.594 555.157 207.669 555.68L205.445 556.08C205.408 555.76 205.269 555.507 205.029 555.32C204.789 555.133 204.464 555.024 204.053 554.992C203.653 554.965 203.33 555.019 203.085 555.152C202.845 555.285 202.725 555.477 202.725 555.728C202.725 555.877 202.776 556.003 202.877 556.104C202.984 556.205 203.2 556.309 203.525 556.416C203.856 556.523 204.357 556.661 205.029 556.832C205.685 557.003 206.21 557.203 206.605 557.432C207.005 557.656 207.296 557.928 207.477 558.248C207.658 558.563 207.749 558.944 207.749 559.392C207.749 560.277 207.429 560.973 206.789 561.48C206.149 561.987 205.264 562.24 204.133 562.24Z" fill="#161616"/>
<rect x="30" y="588" width="276" height="52" rx="26" fill="white"/>
<circle cx="56" cy="614" r="20" fill="url(#paint3_linear_270_1280)"/>
<path d="M57.0368 620V618.096H51.9328V616.296L55.6208 608.48H57.8208L54.1328 616.296H57.0368V613.296H58.9888V616.296H60.0688V618.096H58.9888V620H57.0368Z" fill="#E5E5E5"/>
<path d="M89.12 620V608.48H93.984C94.096 608.48 94.2453 608.485 94.432 608.496C94.624 608.501 94.7947 608.517 94.944 608.544C95.632 608.651 96.1947 608.877 96.632 609.224C97.0747 609.571 97.4 610.008 97.608 610.536C97.816 611.059 97.92 611.643 97.92 612.288C97.92 612.933 97.8133 613.52 97.6 614.048C97.392 614.571 97.0667 615.005 96.624 615.352C96.1867 615.699 95.6267 615.925 94.944 616.032C94.7947 616.053 94.624 616.069 94.432 616.08C94.24 616.091 94.0907 616.096 93.984 616.096H91.296V620H89.12ZM91.296 614.064H93.888C94 614.064 94.1227 614.059 94.256 614.048C94.3893 614.037 94.512 614.016 94.624 613.984C94.9173 613.904 95.144 613.771 95.304 613.584C95.464 613.392 95.5733 613.181 95.632 612.952C95.696 612.717 95.728 612.496 95.728 612.288C95.728 612.08 95.696 611.861 95.632 611.632C95.5733 611.397 95.464 611.187 95.304 611C95.144 610.808 94.9173 610.672 94.624 610.592C94.512 610.56 94.3893 610.539 94.256 610.528C94.1227 610.517 94 610.512 93.888 610.512H91.296V614.064ZM99.2063 620V611.36H101.126V613.472L100.918 613.2C101.03 612.901 101.18 612.629 101.366 612.384C101.553 612.139 101.782 611.936 102.054 611.776C102.262 611.648 102.489 611.549 102.734 611.48C102.98 611.405 103.233 611.36 103.494 611.344C103.756 611.323 104.017 611.328 104.278 611.36V613.392C104.038 613.317 103.758 613.293 103.438 613.32C103.124 613.341 102.838 613.413 102.582 613.536C102.326 613.653 102.11 613.811 101.934 614.008C101.758 614.2 101.625 614.429 101.534 614.696C101.444 614.957 101.398 615.253 101.398 615.584V620H99.2063ZM109.212 620.24C108.342 620.24 107.58 620.045 106.924 619.656C106.268 619.267 105.756 618.731 105.388 618.048C105.025 617.36 104.844 616.571 104.844 615.68C104.844 614.779 105.03 613.987 105.404 613.304C105.777 612.616 106.292 612.08 106.948 611.696C107.604 611.312 108.358 611.12 109.212 611.12C110.081 611.12 110.844 611.315 111.5 611.704C112.161 612.093 112.676 612.632 113.044 613.32C113.412 614.003 113.596 614.789 113.596 615.68C113.596 616.576 113.409 617.368 113.036 618.056C112.668 618.739 112.153 619.275 111.492 619.664C110.836 620.048 110.076 620.24 109.212 620.24ZM109.212 618.208C109.91 618.208 110.43 617.973 110.772 617.504C111.118 617.029 111.292 616.421 111.292 615.68C111.292 614.912 111.116 614.299 110.764 613.84C110.417 613.381 109.9 613.152 109.212 613.152C108.737 613.152 108.348 613.259 108.044 613.472C107.74 613.685 107.513 613.981 107.364 614.36C107.22 614.739 107.148 615.179 107.148 615.68C107.148 616.453 107.321 617.069 107.668 617.528C108.02 617.981 108.534 618.208 109.212 618.208ZM113.755 623.84V621.808H114.139C114.635 621.808 114.974 621.696 115.155 621.472C115.342 621.248 115.435 620.928 115.435 620.512V611.36H117.611V621.568C117.611 622.256 117.395 622.805 116.963 623.216C116.536 623.632 115.958 623.84 115.227 623.84H113.755ZM115.435 610.16V608.24H117.611V610.16H115.435ZM123.543 620.24C122.658 620.24 121.877 620.051 121.199 619.672C120.527 619.288 119.999 618.763 119.615 618.096C119.237 617.424 119.047 616.656 119.047 615.792C119.047 614.848 119.234 614.027 119.607 613.328C119.981 612.629 120.495 612.088 121.151 611.704C121.807 611.315 122.562 611.12 123.415 611.12C124.322 611.12 125.093 611.333 125.727 611.76C126.362 612.187 126.831 612.787 127.135 613.56C127.439 614.333 127.546 615.243 127.455 616.288H125.303V615.488C125.303 614.608 125.162 613.976 124.879 613.592C124.602 613.203 124.146 613.008 123.511 613.008C122.77 613.008 122.223 613.235 121.871 613.688C121.525 614.136 121.351 614.8 121.351 615.68C121.351 616.485 121.525 617.109 121.871 617.552C122.223 617.989 122.738 618.208 123.415 618.208C123.842 618.208 124.207 618.115 124.511 617.928C124.815 617.741 125.047 617.472 125.207 617.12L127.384 617.744C127.058 618.533 126.543 619.147 125.839 619.584C125.141 620.021 124.375 620.24 123.543 620.24ZM120.679 616.288V614.672H126.407V616.288H120.679ZM132.75 620.24C131.854 620.24 131.086 620.04 130.446 619.64C129.806 619.24 129.315 618.696 128.974 618.008C128.633 617.32 128.462 616.544 128.462 615.68C128.462 614.805 128.638 614.024 128.99 613.336C129.347 612.648 129.849 612.107 130.494 611.712C131.139 611.317 131.902 611.12 132.782 611.12C133.801 611.12 134.654 611.379 135.342 611.896C136.035 612.408 136.478 613.109 136.67 614L134.494 614.576C134.366 614.128 134.142 613.779 133.822 613.528C133.507 613.277 133.15 613.152 132.75 613.152C132.291 613.152 131.915 613.264 131.622 613.488C131.329 613.707 131.113 614.008 130.974 614.392C130.835 614.771 130.766 615.2 130.766 615.68C130.766 616.432 130.931 617.043 131.262 617.512C131.598 617.976 132.094 618.208 132.75 618.208C133.241 618.208 133.614 618.096 133.87 617.872C134.126 617.648 134.318 617.328 134.446 616.912L136.67 617.376C136.425 618.293 135.961 619 135.278 619.496C134.595 619.992 133.753 620.24 132.75 620.24ZM143.134 620C142.537 620.112 141.95 620.16 141.374 620.144C140.803 620.133 140.291 620.035 139.838 619.848C139.39 619.656 139.049 619.349 138.814 618.928C138.601 618.533 138.489 618.133 138.478 617.728C138.467 617.317 138.462 616.853 138.462 616.336V608.96H140.638V616.208C140.638 616.544 140.641 616.848 140.646 617.12C140.657 617.387 140.713 617.6 140.814 617.76C141.006 618.064 141.313 618.229 141.734 618.256C142.155 618.283 142.622 618.261 143.134 618.192V620ZM136.99 613.04V611.36H143.134V613.04H136.99ZM150.998 620.24C149.91 620.24 149.03 619.995 148.358 619.504C147.692 619.008 147.286 618.309 147.142 617.408L149.366 617.072C149.457 617.477 149.657 617.795 149.966 618.024C150.281 618.253 150.678 618.368 151.158 618.368C151.553 618.368 151.857 618.293 152.07 618.144C152.284 617.989 152.39 617.776 152.39 617.504C152.39 617.333 152.348 617.197 152.262 617.096C152.177 616.989 151.985 616.885 151.686 616.784C151.393 616.683 150.934 616.549 150.31 616.384C149.606 616.203 149.044 616 148.622 615.776C148.201 615.552 147.897 615.285 147.71 614.976C147.524 614.661 147.43 614.283 147.43 613.84C147.43 613.285 147.572 612.805 147.854 612.4C148.137 611.989 148.534 611.675 149.046 611.456C149.564 611.232 150.172 611.12 150.87 611.12C151.548 611.12 152.148 611.224 152.67 611.432C153.193 611.64 153.614 611.936 153.934 612.32C154.26 612.704 154.46 613.157 154.534 613.68L152.31 614.08C152.273 613.76 152.134 613.507 151.894 613.32C151.654 613.133 151.329 613.024 150.918 612.992C150.518 612.965 150.196 613.019 149.95 613.152C149.71 613.285 149.59 613.477 149.59 613.728C149.59 613.877 149.641 614.003 149.742 614.104C149.849 614.205 150.065 614.309 150.39 614.416C150.721 614.523 151.222 614.661 151.894 614.832C152.55 615.003 153.076 615.203 153.47 615.432C153.87 615.656 154.161 615.928 154.342 616.248C154.524 616.563 154.614 616.944 154.614 617.392C154.614 618.277 154.294 618.973 153.654 619.48C153.014 619.987 152.129 620.24 150.998 620.24ZM156.844 623.84L158.508 619.264L158.54 620.608L154.78 611.36H157.036L159.564 617.904H159.052L161.564 611.36H163.74L158.86 623.84H156.844ZM167.921 620.24C166.833 620.24 165.953 619.995 165.281 619.504C164.614 619.008 164.209 618.309 164.065 617.408L166.289 617.072C166.38 617.477 166.58 617.795 166.889 618.024C167.204 618.253 167.601 618.368 168.081 618.368C168.476 618.368 168.78 618.293 168.993 618.144C169.206 617.989 169.313 617.776 169.313 617.504C169.313 617.333 169.27 617.197 169.185 617.096C169.1 616.989 168.908 616.885 168.609 616.784C168.316 616.683 167.857 616.549 167.233 616.384C166.529 616.203 165.966 616 165.545 615.776C165.124 615.552 164.82 615.285 164.633 614.976C164.446 614.661 164.353 614.283 164.353 613.84C164.353 613.285 164.494 612.805 164.777 612.4C165.06 611.989 165.457 611.675 165.969 611.456C166.486 611.232 167.094 611.12 167.793 611.12C168.47 611.12 169.07 611.224 169.593 611.432C170.116 611.64 170.537 611.936 170.857 612.32C171.182 612.704 171.382 613.157 171.457 613.68L169.233 614.08C169.196 613.76 169.057 613.507 168.817 613.32C168.577 613.133 168.252 613.024 167.841 612.992C167.441 612.965 167.118 613.019 166.873 613.152C166.633 613.285 166.513 613.477 166.513 613.728C166.513 613.877 166.564 614.003 166.665 614.104C166.772 614.205 166.988 614.309 167.313 614.416C167.644 614.523 168.145 614.661 168.817 614.832C169.473 615.003 169.998 615.203 170.393 615.432C170.793 615.656 171.084 615.928 171.265 616.248C171.446 616.563 171.537 616.944 171.537 617.392C171.537 618.277 171.217 618.973 170.577 619.48C169.937 619.987 169.052 620.24 167.921 620.24ZM178.159 620C177.562 620.112 176.975 620.16 176.399 620.144C175.828 620.133 175.316 620.035 174.863 619.848C174.415 619.656 174.074 619.349 173.839 618.928C173.626 618.533 173.514 618.133 173.503 617.728C173.492 617.317 173.487 616.853 173.487 616.336V608.96H175.663V616.208C175.663 616.544 175.666 616.848 175.671 617.12C175.682 617.387 175.738 617.6 175.839 617.76C176.031 618.064 176.338 618.229 176.759 618.256C177.18 618.283 177.647 618.261 178.159 618.192V620ZM172.015 613.04V611.36H178.159V613.04H172.015ZM183.312 620.24C182.426 620.24 181.645 620.051 180.968 619.672C180.296 619.288 179.768 618.763 179.384 618.096C179.005 617.424 178.816 616.656 178.816 615.792C178.816 614.848 179.002 614.027 179.376 613.328C179.749 612.629 180.264 612.088 180.92 611.704C181.576 611.315 182.33 611.12 183.184 611.12C184.09 611.12 184.861 611.333 185.496 611.76C186.13 612.187 186.6 612.787 186.904 613.56C187.208 614.333 187.314 615.243 187.224 616.288H185.072V615.488C185.072 614.608 184.93 613.976 184.648 613.592C184.37 613.203 183.914 613.008 183.28 613.008C182.538 613.008 181.992 613.235 181.64 613.688C181.293 614.136 181.12 614.8 181.12 615.68C181.12 616.485 181.293 617.109 181.64 617.552C181.992 617.989 182.506 618.208 183.184 618.208C183.61 618.208 183.976 618.115 184.28 617.928C184.584 617.741 184.816 617.472 184.976 617.12L187.152 617.744C186.826 618.533 186.312 619.147 185.608 619.584C184.909 620.021 184.144 620.24 183.312 620.24ZM180.448 616.288V614.672H186.176V616.288H180.448ZM198.876 620V614.896C198.876 614.325 198.74 613.883 198.468 613.568C198.201 613.248 197.83 613.088 197.356 613.088C197.052 613.088 196.788 613.16 196.564 613.304C196.34 613.443 196.164 613.64 196.036 613.896C195.913 614.147 195.852 614.437 195.852 614.768L194.94 614.16C194.94 613.568 195.078 613.045 195.356 612.592C195.638 612.139 196.014 611.787 196.484 611.536C196.958 611.28 197.484 611.152 198.06 611.152C199.046 611.152 199.79 611.445 200.292 612.032C200.798 612.613 201.052 613.376 201.052 614.32V620H198.876ZM188.46 620V611.36H190.38V614.224H190.652V620H188.46ZM193.676 620V614.896C193.676 614.325 193.54 613.883 193.268 613.568C193.001 613.248 192.63 613.088 192.156 613.088C191.702 613.088 191.337 613.245 191.06 613.56C190.788 613.869 190.652 614.272 190.652 614.768L189.74 614.128C189.74 613.563 189.881 613.056 190.164 612.608C190.446 612.16 190.825 611.805 191.3 611.544C191.78 611.283 192.316 611.152 192.908 611.152C193.585 611.152 194.14 611.296 194.572 611.584C195.009 611.872 195.332 612.256 195.54 612.736C195.748 613.216 195.852 613.744 195.852 614.32V620H193.676ZM209.071 620.24C207.983 620.24 207.103 619.995 206.431 619.504C205.764 619.008 205.359 618.309 205.215 617.408L207.439 617.072C207.53 617.477 207.73 617.795 208.039 618.024C208.354 618.253 208.751 618.368 209.231 618.368C209.626 618.368 209.93 618.293 210.143 618.144C210.356 617.989 210.463 617.776 210.463 617.504C210.463 617.333 210.42 617.197 210.335 617.096C210.25 616.989 210.058 616.885 209.759 616.784C209.466 616.683 209.007 616.549 208.383 616.384C207.679 616.203 207.116 616 206.695 615.776C206.274 615.552 205.97 615.285 205.783 614.976C205.596 614.661 205.503 614.283 205.503 613.84C205.503 613.285 205.644 612.805 205.927 612.4C206.21 611.989 206.607 611.675 207.119 611.456C207.636 611.232 208.244 611.12 208.943 611.12C209.62 611.12 210.22 611.224 210.743 611.432C211.266 611.64 211.687 611.936 212.007 612.32C212.332 612.704 212.532 613.157 212.607 613.68L210.383 614.08C210.346 613.76 210.207 613.507 209.967 613.32C209.727 613.133 209.402 613.024 208.991 612.992C208.591 612.965 208.268 613.019 208.023 613.152C207.783 613.285 207.663 613.477 207.663 613.728C207.663 613.877 207.714 614.003 207.815 614.104C207.922 614.205 208.138 614.309 208.463 614.416C208.794 614.523 209.295 614.661 209.967 614.832C210.623 615.003 211.148 615.203 211.543 615.432C211.943 615.656 212.234 615.928 212.415 616.248C212.596 616.563 212.687 616.944 212.687 617.392C212.687 618.277 212.367 618.973 211.727 619.48C211.087 619.987 210.202 620.24 209.071 620.24ZM218.141 620.24C217.256 620.24 216.474 620.051 215.797 619.672C215.125 619.288 214.597 618.763 214.213 618.096C213.834 617.424 213.645 616.656 213.645 615.792C213.645 614.848 213.832 614.027 214.205 613.328C214.578 612.629 215.093 612.088 215.749 611.704C216.405 611.315 217.16 611.12 218.013 611.12C218.92 611.12 219.69 611.333 220.325 611.76C220.96 612.187 221.429 612.787 221.733 613.56C222.037 614.333 222.144 615.243 222.053 616.288H219.901V615.488C219.901 614.608 219.76 613.976 219.477 613.592C219.2 613.203 218.744 613.008 218.109 613.008C217.368 613.008 216.821 613.235 216.469 613.688C216.122 614.136 215.949 614.8 215.949 615.68C215.949 616.485 216.122 617.109 216.469 617.552C216.821 617.989 217.336 618.208 218.013 618.208C218.44 618.208 218.805 618.115 219.109 617.928C219.413 617.741 219.645 617.472 219.805 617.12L221.981 617.744C221.656 618.533 221.141 619.147 220.437 619.584C219.738 620.021 218.973 620.24 218.141 620.24ZM215.277 616.288V614.672H221.005V616.288H215.277ZM228.723 620C228.126 620.112 227.539 620.16 226.963 620.144C226.393 620.133 225.881 620.035 225.427 619.848C224.979 619.656 224.638 619.349 224.403 618.928C224.19 618.533 224.078 618.133 224.067 617.728C224.057 617.317 224.051 616.853 224.051 616.336V608.96H226.227V616.208C226.227 616.544 226.23 616.848 226.235 617.12C226.246 617.387 226.302 617.6 226.403 617.76C226.595 618.064 226.902 618.229 227.323 618.256C227.745 618.283 228.211 618.261 228.723 618.192V620ZM222.579 613.04V611.36H228.723V613.04H222.579ZM233.545 620.256C232.867 620.256 232.315 620.141 231.889 619.912C231.462 619.683 231.129 619.392 230.889 619.04C230.654 618.688 230.486 618.323 230.385 617.944C230.283 617.56 230.222 617.211 230.201 616.896C230.179 616.581 230.169 616.352 230.169 616.208V611.36H232.377V615.44C232.377 615.637 232.387 615.891 232.409 616.2C232.43 616.504 232.497 616.811 232.609 617.12C232.721 617.429 232.902 617.688 233.153 617.896C233.409 618.104 233.769 618.208 234.233 618.208C234.419 618.208 234.619 618.179 234.833 618.12C235.046 618.061 235.246 617.949 235.433 617.784C235.619 617.613 235.771 617.365 235.889 617.04C236.011 616.709 236.073 616.277 236.073 615.744L237.321 616.336C237.321 617.019 237.182 617.659 236.905 618.256C236.627 618.853 236.209 619.336 235.649 619.704C235.094 620.072 234.393 620.256 233.545 620.256ZM236.345 620V617.136H236.073V611.36H238.265V620H236.345ZM244.421 620.24C243.562 620.24 242.845 620.04 242.269 619.64C241.693 619.24 241.258 618.696 240.965 618.008C240.677 617.32 240.533 616.544 240.533 615.68C240.533 614.816 240.677 614.04 240.965 613.352C241.253 612.664 241.677 612.12 242.237 611.72C242.797 611.32 243.487 611.12 244.309 611.12C245.135 611.12 245.855 611.317 246.469 611.712C247.082 612.107 247.557 612.648 247.893 613.336C248.234 614.019 248.405 614.8 248.405 615.68C248.405 616.544 248.237 617.32 247.901 618.008C247.57 618.696 247.106 619.24 246.509 619.64C245.911 620.04 245.215 620.24 244.421 620.24ZM240.165 623.84V611.36H242.085V617.28H242.357V623.84H240.165ZM244.069 618.304C244.538 618.304 244.922 618.187 245.221 617.952C245.519 617.717 245.741 617.403 245.885 617.008C246.029 616.608 246.101 616.165 246.101 615.68C246.101 615.2 246.026 614.763 245.877 614.368C245.727 613.968 245.495 613.651 245.181 613.416C244.871 613.176 244.474 613.056 243.989 613.056C243.535 613.056 243.167 613.165 242.885 613.384C242.607 613.603 242.405 613.909 242.277 614.304C242.149 614.699 242.085 615.157 242.085 615.68C242.085 616.203 242.149 616.661 242.277 617.056C242.405 617.451 242.613 617.757 242.901 617.976C243.194 618.195 243.583 618.304 244.069 618.304Z" fill="#161616"/>
<path d="M43.752 96.432C40.128 96.432 37.128 95.268 34.752 92.94C32.4 90.588 31.224 87.612 31.224 84.012C31.224 80.412 32.4 77.448 34.752 75.12C37.128 72.768 40.128 71.592 43.752 71.592C47.4 71.592 50.4 72.756 52.752 75.084C55.128 77.412 56.316 80.388 56.316 84.012C56.316 87.636 55.128 90.612 52.752 92.94C50.4 95.268 47.4 96.432 43.752 96.432ZM38.46 89.664C39.804 91.152 41.568 91.896 43.752 91.896C45.936 91.896 47.7 91.152 49.044 89.664C50.388 88.176 51.06 86.292 51.06 84.012C51.06 81.732 50.388 79.848 49.044 78.36C47.7 76.872 45.936 76.128 43.752 76.128C41.568 76.128 39.804 76.872 38.46 78.36C37.14 79.848 36.48 81.732 36.48 84.012C36.48 86.292 37.14 88.176 38.46 89.664ZM75.0233 96H70.4513V85.488C70.4513 83.328 69.3833 82.248 67.2473 82.248C65.5913 82.248 64.2713 82.932 63.2873 84.3V96H58.7153V78.612H63.2873V80.88C64.7993 79.08 66.8273 78.18 69.3713 78.18C71.2433 78.18 72.6473 78.672 73.5833 79.656C74.5433 80.64 75.0233 81.996 75.0233 83.724V96ZM83.055 90.42C83.439 90.972 84.003 91.44 84.747 91.824C85.491 92.184 86.235 92.364 86.979 92.364C88.299 92.364 89.367 91.908 90.183 90.996C90.999 90.06 91.407 88.836 91.407 87.324C91.407 85.812 90.999 84.588 90.183 83.652C89.367 82.716 88.299 82.248 86.979 82.248C86.235 82.248 85.491 82.44 84.747 82.824C84.003 83.208 83.439 83.688 83.055 84.264V90.42ZM83.055 96H78.483V71.988H83.055V80.844C84.423 79.068 86.211 78.18 88.419 78.18C90.675 78.18 92.523 79.008 93.963 80.664C95.403 82.32 96.123 84.54 96.123 87.324C96.123 90.156 95.403 92.388 93.963 94.02C92.523 95.628 90.675 96.432 88.419 96.432C86.259 96.432 84.471 95.544 83.055 93.768V96ZM113.257 93.804C111.577 95.556 109.345 96.432 106.561 96.432C103.777 96.432 101.545 95.556 99.8648 93.804C98.2088 92.028 97.3808 89.856 97.3808 87.288C97.3808 84.72 98.2088 82.56 99.8648 80.808C101.545 79.056 103.777 78.18 106.561 78.18C109.345 78.18 111.577 79.056 113.257 80.808C114.937 82.56 115.777 84.72 115.777 87.288C115.777 89.856 114.937 92.028 113.257 93.804ZM103.321 90.924C104.113 91.884 105.193 92.364 106.561 92.364C107.929 92.364 109.009 91.884 109.801 90.924C110.617 89.94 111.025 88.728 111.025 87.288C111.025 85.872 110.617 84.684 109.801 83.724C109.009 82.74 107.929 82.248 106.561 82.248C105.193 82.248 104.113 82.74 103.321 83.724C102.529 84.684 102.133 85.872 102.133 87.288C102.133 88.728 102.529 89.94 103.321 90.924ZM133.101 96H128.529V94.2C127.281 95.688 125.445 96.432 123.021 96.432C121.461 96.432 120.057 95.928 118.809 94.92C117.585 93.888 116.973 92.472 116.973 90.672C116.973 88.8 117.573 87.396 118.773 86.46C119.997 85.524 121.413 85.056 123.021 85.056C125.493 85.056 127.329 85.764 128.529 87.18V84.84C128.529 83.952 128.181 83.244 127.485 82.716C126.789 82.188 125.865 81.924 124.713 81.924C122.817 81.924 121.125 82.608 119.637 83.976L117.909 80.916C119.973 79.092 122.505 78.18 125.505 78.18C127.737 78.18 129.561 78.696 130.977 79.728C132.393 80.76 133.101 82.44 133.101 84.768V96ZM124.857 93.336C126.561 93.336 127.785 92.832 128.529 91.824V89.664C127.785 88.656 126.561 88.152 124.857 88.152C123.921 88.152 123.141 88.392 122.517 88.872C121.893 89.328 121.581 89.964 121.581 90.78C121.581 91.572 121.893 92.196 122.517 92.652C123.141 93.108 123.921 93.336 124.857 93.336ZM141.127 96H136.555V78.612H141.127V80.988C141.775 80.172 142.603 79.5 143.611 78.972C144.619 78.444 145.639 78.18 146.671 78.18V82.644C146.359 82.572 145.939 82.536 145.411 82.536C144.643 82.536 143.827 82.728 142.963 83.112C142.099 83.496 141.487 83.964 141.127 84.516V96ZM165.008 96H160.4V93.768C158.984 95.544 157.196 96.432 155.036 96.432C152.78 96.432 150.932 95.628 149.492 94.02C148.052 92.388 147.332 90.156 147.332 87.324C147.332 84.54 148.052 82.32 149.492 80.664C150.932 79.008 152.78 78.18 155.036 78.18C157.244 78.18 159.032 79.068 160.4 80.844V71.988H165.008V96ZM156.44 92.364C157.208 92.364 157.964 92.184 158.708 91.824C159.452 91.44 160.016 90.96 160.4 90.384V84.228C160.016 83.652 159.452 83.184 158.708 82.824C157.964 82.44 157.208 82.248 156.44 82.248C155.144 82.248 154.088 82.716 153.272 83.652C152.456 84.588 152.048 85.812 152.048 87.324C152.048 88.812 152.456 90.024 153.272 90.96C154.088 91.896 155.144 92.364 156.44 92.364ZM170.73 76.74C169.986 76.74 169.338 76.476 168.786 75.948C168.258 75.396 167.994 74.748 167.994 74.004C167.994 73.26 168.258 72.624 168.786 72.096C169.338 71.568 169.986 71.304 170.73 71.304C171.498 71.304 172.146 71.568 172.674 72.096C173.202 72.624 173.466 73.26 173.466 74.004C173.466 74.748 173.202 75.396 172.674 75.948C172.146 76.476 171.498 76.74 170.73 76.74ZM173.034 96H168.462V78.612H173.034V96ZM192.795 96H188.223V85.488C188.223 83.328 187.155 82.248 185.019 82.248C183.363 82.248 182.043 82.932 181.059 84.3V96H176.487V78.612H181.059V80.88C182.571 79.08 184.599 78.18 187.143 78.18C189.015 78.18 190.419 78.672 191.355 79.656C192.315 80.64 192.795 81.996 192.795 83.724V96ZM203.383 103.056C200.383 103.056 197.887 102.192 195.895 100.464L197.947 97.152C199.243 98.592 201.055 99.312 203.383 99.312C204.679 99.312 205.795 98.964 206.731 98.268C207.691 97.596 208.171 96.48 208.171 94.92V93.156C206.731 94.98 204.943 95.892 202.807 95.892C200.551 95.892 198.703 95.124 197.263 93.588C195.847 92.028 195.139 89.844 195.139 87.036C195.139 84.252 195.847 82.08 197.263 80.52C198.703 78.96 200.551 78.18 202.807 78.18C204.967 78.18 206.755 79.068 208.171 80.844V78.612H212.779V94.812C212.779 96.396 212.491 97.752 211.915 98.88C211.363 100.008 210.607 100.86 209.647 101.436C208.687 102.012 207.691 102.42 206.659 102.66C205.651 102.924 204.559 103.056 203.383 103.056ZM204.247 91.824C204.991 91.824 205.735 91.632 206.479 91.248C207.223 90.864 207.787 90.396 208.171 89.844V84.228C207.787 83.652 207.223 83.184 206.479 82.824C205.759 82.44 205.015 82.248 204.247 82.248C202.927 82.248 201.859 82.68 201.043 83.544C200.251 84.408 199.855 85.572 199.855 87.036C199.855 88.5 200.251 89.664 201.043 90.528C201.859 91.392 202.927 91.824 204.247 91.824Z" fill="#161616"/>
<path opacity="0.2" d="M334 332C334 292.218 316.511 254.064 285.38 225.934C254.249 197.804 212.026 182 168 182C123.974 182 81.7513 197.804 50.6203 225.934C19.4892 254.064 2.00001 292.218 2 332" stroke="#161616" stroke-width="2" stroke-dasharray="6 4"/>
<circle cx="168" cy="181" r="43" fill="white"/>
<path d="M174.243 170.723C173.682 170.731 173.146 170.955 172.75 171.35L171.096 173.002L175.591 177.497L177.245 175.845C178.081 175.008 178.081 173.627 177.245 172.79C177.245 172.79 175.801 171.35 175.799 171.35C175.386 170.938 174.827 170.713 174.243 170.723ZM170.078 174.02L159.788 184.311C159.385 184.715 159.156 185.266 159.155 185.836V188.716C159.153 189.116 159.479 189.441 159.879 189.439L162.759 189.433C163.329 189.432 163.874 189.208 164.279 188.806L174.575 178.515L170.078 174.02ZM159.806 190.878C159.806 190.879 159.805 190.879 159.805 190.88C158.867 190.949 158.939 192.347 159.879 192.319H177.155C178.137 192.342 178.137 190.858 177.155 190.88H159.879C159.855 190.878 159.83 190.878 159.806 190.878Z" fill="#A1A1A1"/>
<path opacity="0.4" d="M32.4126 37.996V22.484H35.3246V23.8H33.7286V36.68H35.3246V37.996H32.4126ZM41.2839 35V26.53L39.3869 27.685V26.054L41.2839 24.92H42.7749V35H41.2839ZM50.5879 37.996H47.6759V36.68H49.2719V23.8H47.6759V22.484H50.5879V37.996Z" fill="#161616"/>
<path opacity="0.4" d="M62.2645 35L59.3385 24.92H60.8715L62.9925 32.543L65.1135 24.927L66.6535 24.92L68.7745 32.543L70.8955 24.92H72.4355L69.5025 35H68.0465L65.8835 27.461L63.7205 35H62.2645ZM73.33 35V24.92H79.77V26.299H74.793V29.127H78.93V30.506H74.793V33.621H79.77V35H73.33ZM81.1711 35V24.92H87.6111V26.299H82.6341V29.127H86.7711V30.506H82.6341V33.621H87.6111V35H81.1711ZM89.0121 35V24.92H90.4751V29.624L94.6961 24.92H96.5161L92.0571 29.841L96.8451 35H94.9691L90.4751 30.184V35H89.0121Z" fill="#161616"/>
<g opacity="0.4">
<path fill-rule="evenodd" clip-rule="evenodd" d="M108.913 32.0265L109.496 32.6098C109.583 32.6967 109.702 32.7428 109.826 32.7376C109.948 32.7317 110.063 32.6746 110.142 32.5801L111.114 31.4134C111.268 31.2279 111.243 30.952 111.058 30.7974C110.872 30.6428 110.596 30.6679 110.442 30.8534L109.776 31.652L109.532 31.4076C109.361 31.2366 109.084 31.2366 108.913 31.4076C108.742 31.5785 108.742 31.8556 108.913 32.0265Z" fill="#161616"/>
<path fill-rule="evenodd" clip-rule="evenodd" d="M115.979 28.2417H104.021V34.5126C104.021 34.9378 104.19 35.3461 104.49 35.6471C104.791 35.9476 105.2 36.1167 105.625 36.1167H114.375C114.8 36.1167 115.209 35.9476 115.51 35.6471C115.81 35.3461 115.979 34.9378 115.979 34.5126V28.2417ZM110 28.8414C108.47 28.8414 107.229 30.0827 107.229 31.6122C107.229 33.1411 108.47 34.3831 110 34.3831C111.529 34.3831 112.771 33.1411 112.771 31.6122C112.771 30.0827 111.529 28.8414 110 28.8414ZM104.021 27.3667H115.979V26.3622C115.979 25.937 115.81 25.5286 115.51 25.2276C115.209 24.9272 114.8 24.7581 114.375 24.7581H113.062V26.2164C113.062 26.4579 112.866 26.6539 112.625 26.6539C112.383 26.6539 112.187 26.4579 112.187 26.2164V24.7581H107.812V26.2164C107.812 26.4579 107.616 26.6539 107.375 26.6539C107.133 26.6539 106.937 26.4579 106.937 26.2164V24.7581H105.625C105.2 24.7581 104.791 24.9272 104.49 25.2276C104.19 25.5286 104.021 25.937 104.021 26.3622V27.3667Z" fill="#161616"/>
<path fill-rule="evenodd" clip-rule="evenodd" d="M112.188 24.7581H113.062V24.3206C113.062 24.0791 112.866 23.8831 112.625 23.8831C112.383 23.8831 112.188 24.0791 112.188 24.3206V24.7581Z" fill="#161616"/>
<path fill-rule="evenodd" clip-rule="evenodd" d="M106.938 24.7581H107.812V24.3206C107.812 24.0791 107.616 23.8831 107.375 23.8831C107.133 23.8831 106.938 24.0791 106.938 24.3206V24.7581Z" fill="#161616"/>
</g>
<defs>
<linearGradient id="paint0_linear_270_1280" x1="76" y1="460" x2="28.4793" y2="429.035" gradientUnits="userSpaceOnUse">
<stop stop-color="#111215"/>
<stop offset="1" stop-color="#272B2E"/>
</linearGradient>
<linearGradient id="paint1_linear_270_1280" x1="76" y1="518" x2="28.4793" y2="487.035" gradientUnits="userSpaceOnUse">
<stop stop-color="#111215"/>
<stop offset="1" stop-color="#272B2E"/>
</linearGradient>
<linearGradient id="paint2_linear_270_1280" x1="76" y1="576" x2="28.4793" y2="545.035" gradientUnits="userSpaceOnUse">
<stop stop-color="#111215"/>
<stop offset="1" stop-color="#272B2E"/>
</linearGradient>
<linearGradient id="paint3_linear_270_1280" x1="76" y1="634" x2="28.4793" y2="603.035" gradientUnits="userSpaceOnUse">
<stop stop-color="#111215"/>
<stop offset="1" stop-color="#272B2E"/>
</linearGradient>
</defs>
</svg>
