<svg width="336" height="670" viewBox="0 0 336 670" fill="none" xmlns="http://www.w3.org/2000/svg">
<path d="M32 0.5H169.826C174.624 0.5 178.184 0.500945 181.028 0.793945C183.861 1.08577 185.94 1.66409 187.781 2.7959C189.622 3.92773 191.077 5.52217 192.616 7.91797C193.775 9.72212 194.969 11.9602 196.407 14.7725L197.935 17.7812L203.173 28.1387C205.329 32.4014 206.964 35.632 208.543 38.0908C210.129 40.5593 211.681 42.2863 213.695 43.5244C215.709 44.7625 217.951 45.3683 220.869 45.6689C223.776 45.9684 227.397 45.9678 232.174 45.9678H304C311.556 45.9678 317.173 45.9696 321.489 46.5498C325.522 47.092 328.354 48.1321 330.533 50.1016L330.96 50.5078C333.195 52.7426 334.341 55.6769 334.919 59.9785C335.499 64.2944 335.5 69.9114 335.5 77.4678V637.547C335.5 645.093 335.499 650.703 334.92 655.014C334.379 659.041 333.34 661.869 331.374 664.048L330.969 664.476C328.738 666.71 325.808 667.857 321.513 668.44C318.28 668.88 314.317 668.995 309.354 669.03L304.047 669.047L32.0469 669.452H32.0459C24.4796 669.463 18.8551 669.47 14.5332 668.896C10.4948 668.358 7.65983 667.32 5.47656 665.351L5.04785 664.944C2.80918 662.709 1.6614 659.772 1.08203 655.465C0.500782 651.144 0.5 645.519 0.5 637.952V32C0.5 24.4437 0.500855 18.8266 1.08105 14.5107C1.65939 10.2092 2.80528 7.2748 5.04004 5.04004C7.2748 2.80528 10.2092 1.65939 14.5107 1.08105C18.8266 0.500855 24.4437 0.5 32 0.5Z" stroke="#E2E2E2"/>
<rect x="30" y="414" width="276" height="52" rx="26" fill="white"/>
<circle cx="56" cy="440" r="20" fill="url(#paint0_linear_270_1367)"/>
<path d="M51.2466 446V436.584L49.0866 437.904V435.776L51.2466 434.48H53.2146V446H51.2466ZM59.6062 446.24C58.7902 446.24 58.0702 446.067 57.4462 445.72C56.8222 445.368 56.3342 444.88 55.9822 444.256C55.6355 443.632 55.4622 442.912 55.4622 442.096V438.384C55.4622 437.568 55.6355 436.848 55.9822 436.224C56.3342 435.6 56.8222 435.115 57.4462 434.768C58.0702 434.416 58.7902 434.24 59.6062 434.24C60.4222 434.24 61.1395 434.416 61.7582 434.768C62.3822 435.115 62.8702 435.6 63.2222 436.224C63.5742 436.848 63.7502 437.568 63.7502 438.384V442.096C63.7502 442.912 63.5742 443.632 63.2222 444.256C62.8702 444.88 62.3822 445.368 61.7582 445.72C61.1395 446.067 60.4222 446.24 59.6062 446.24ZM59.6062 444.408C60.0115 444.408 60.3795 444.312 60.7102 444.12C61.0409 443.923 61.3022 443.661 61.4942 443.336C61.6862 443.005 61.7822 442.637 61.7822 442.232V438.24C61.7822 437.829 61.6862 437.461 61.4942 437.136C61.3022 436.805 61.0409 436.544 60.7102 436.352C60.3795 436.155 60.0115 436.056 59.6062 436.056C59.2009 436.056 58.8329 436.155 58.5022 436.352C58.1715 436.544 57.9102 436.805 57.7182 437.136C57.5262 437.461 57.4302 437.829 57.4302 438.24V442.232C57.4302 442.637 57.5262 443.005 57.7182 443.336C57.9102 443.661 58.1715 443.923 58.5022 444.12C58.8329 444.312 59.2009 444.408 59.6062 444.408Z" fill="#E5E5E5"/>
<path d="M91.792 446V436.512H88.16V434.48H97.6V436.512H93.968V446H91.792ZM97.7688 446V437.36H99.6888V439.472L99.4808 439.2C99.5928 438.901 99.7421 438.629 99.9288 438.384C100.115 438.139 100.345 437.936 100.617 437.776C100.825 437.648 101.051 437.549 101.297 437.48C101.542 437.405 101.795 437.36 102.057 437.344C102.318 437.323 102.579 437.328 102.841 437.36V439.392C102.601 439.317 102.321 439.293 102.001 439.32C101.686 439.341 101.401 439.413 101.145 439.536C100.889 439.653 100.673 439.811 100.497 440.008C100.321 440.2 100.187 440.429 100.097 440.696C100.006 440.957 99.9608 441.253 99.9608 441.584V446H97.7688ZM106.271 446.24C105.652 446.24 105.127 446.123 104.695 445.888C104.268 445.648 103.943 445.331 103.719 444.936C103.5 444.536 103.391 444.096 103.391 443.616C103.391 443.216 103.452 442.851 103.575 442.52C103.697 442.189 103.895 441.899 104.167 441.648C104.444 441.392 104.815 441.179 105.279 441.008C105.599 440.891 105.98 440.787 106.423 440.696C106.865 440.605 107.367 440.52 107.927 440.44C108.487 440.355 109.103 440.261 109.775 440.16L108.991 440.592C108.991 440.08 108.868 439.704 108.623 439.464C108.377 439.224 107.967 439.104 107.391 439.104C107.071 439.104 106.737 439.181 106.391 439.336C106.044 439.491 105.801 439.765 105.663 440.16L103.695 439.536C103.913 438.821 104.324 438.24 104.927 437.792C105.529 437.344 106.351 437.12 107.391 437.12C108.153 437.12 108.831 437.237 109.423 437.472C110.015 437.707 110.463 438.112 110.767 438.688C110.937 439.008 111.039 439.328 111.071 439.648C111.103 439.968 111.119 440.325 111.119 440.72V446H109.215V444.224L109.487 444.592C109.065 445.173 108.609 445.595 108.119 445.856C107.633 446.112 107.017 446.24 106.271 446.24ZM106.735 444.528C107.135 444.528 107.471 444.459 107.743 444.32C108.02 444.176 108.239 444.013 108.399 443.832C108.564 443.651 108.676 443.499 108.735 443.376C108.847 443.141 108.911 442.869 108.927 442.56C108.948 442.245 108.959 441.984 108.959 441.776L109.599 441.936C108.953 442.043 108.431 442.133 108.031 442.208C107.631 442.277 107.308 442.341 107.063 442.4C106.817 442.459 106.601 442.523 106.415 442.592C106.201 442.677 106.028 442.771 105.895 442.872C105.767 442.968 105.671 443.075 105.607 443.192C105.548 443.309 105.519 443.44 105.519 443.584C105.519 443.781 105.567 443.952 105.663 444.096C105.764 444.235 105.905 444.341 106.087 444.416C106.268 444.491 106.484 444.528 106.735 444.528ZM116.687 446.24C115.791 446.24 115.023 446.04 114.383 445.64C113.743 445.24 113.252 444.696 112.911 444.008C112.569 443.32 112.399 442.544 112.399 441.68C112.399 440.805 112.575 440.024 112.927 439.336C113.284 438.648 113.785 438.107 114.431 437.712C115.076 437.317 115.839 437.12 116.719 437.12C117.737 437.12 118.591 437.379 119.279 437.896C119.972 438.408 120.415 439.109 120.607 440L118.431 440.576C118.303 440.128 118.079 439.779 117.759 439.528C117.444 439.277 117.087 439.152 116.687 439.152C116.228 439.152 115.852 439.264 115.559 439.488C115.265 439.707 115.049 440.008 114.911 440.392C114.772 440.771 114.703 441.2 114.703 441.68C114.703 442.432 114.868 443.043 115.199 443.512C115.535 443.976 116.031 444.208 116.687 444.208C117.177 444.208 117.551 444.096 117.807 443.872C118.063 443.648 118.255 443.328 118.383 442.912L120.607 443.376C120.361 444.293 119.897 445 119.215 445.496C118.532 445.992 117.689 446.24 116.687 446.24ZM121.871 446L121.887 434.48H124.095V441.52L127.023 437.36H129.711L126.591 441.68L129.919 446H127.087L124.095 441.84V446H121.871ZM130.555 436.16V434.24H132.731V436.16H130.555ZM130.555 446V437.36H132.731V446H130.555ZM140.697 446V441.92C140.697 441.723 140.687 441.472 140.665 441.168C140.644 440.859 140.577 440.549 140.465 440.24C140.353 439.931 140.169 439.672 139.913 439.464C139.663 439.256 139.305 439.152 138.841 439.152C138.655 439.152 138.455 439.181 138.241 439.24C138.028 439.299 137.828 439.413 137.641 439.584C137.455 439.749 137.3 439.995 137.177 440.32C137.06 440.645 137.001 441.077 137.001 441.616L135.753 441.024C135.753 440.341 135.892 439.701 136.169 439.104C136.447 438.507 136.863 438.024 137.417 437.656C137.977 437.288 138.681 437.104 139.529 437.104C140.207 437.104 140.759 437.219 141.185 437.448C141.612 437.677 141.943 437.968 142.177 438.32C142.417 438.672 142.588 439.04 142.689 439.424C142.791 439.803 142.852 440.149 142.873 440.464C142.895 440.779 142.905 441.008 142.905 441.152V446H140.697ZM134.793 446V437.36H136.729V440.224H137.001V446H134.793ZM148.357 450.08C147.867 450.08 147.4 450 146.957 449.84C146.515 449.685 146.117 449.467 145.765 449.184C145.419 448.907 145.136 448.581 144.917 448.208L146.933 447.232C147.072 447.488 147.269 447.683 147.525 447.816C147.787 447.949 148.069 448.016 148.373 448.016C148.699 448.016 149.005 447.96 149.293 447.848C149.581 447.741 149.811 447.579 149.981 447.36C150.157 447.147 150.24 446.88 150.229 446.56V444.048H150.501V437.36H152.405V446.592C152.405 446.805 152.395 447.005 152.373 447.192C152.357 447.384 152.325 447.573 152.277 447.76C152.139 448.288 151.88 448.723 151.501 449.064C151.128 449.405 150.669 449.659 150.125 449.824C149.581 449.995 148.992 450.08 148.357 450.08ZM148.165 446.24C147.371 446.24 146.675 446.04 146.077 445.64C145.48 445.24 145.013 444.696 144.677 444.008C144.347 443.32 144.181 442.544 144.181 441.68C144.181 440.8 144.349 440.019 144.685 439.336C145.027 438.648 145.504 438.107 146.117 437.712C146.731 437.317 147.451 437.12 148.277 437.12C149.099 437.12 149.789 437.32 150.349 437.72C150.909 438.12 151.333 438.664 151.621 439.352C151.909 440.04 152.053 440.816 152.053 441.68C152.053 442.544 151.907 443.32 151.613 444.008C151.325 444.696 150.893 445.24 150.317 445.64C149.741 446.04 149.024 446.24 148.165 446.24ZM148.517 444.304C149.003 444.304 149.389 444.195 149.677 443.976C149.971 443.757 150.181 443.451 150.309 443.056C150.437 442.661 150.501 442.203 150.501 441.68C150.501 441.157 150.437 440.699 150.309 440.304C150.181 439.909 149.976 439.603 149.693 439.384C149.416 439.165 149.051 439.056 148.597 439.056C148.112 439.056 147.712 439.176 147.397 439.416C147.088 439.651 146.859 439.968 146.709 440.368C146.56 440.763 146.485 441.2 146.485 441.68C146.485 442.165 146.557 442.608 146.701 443.008C146.845 443.403 147.067 443.717 147.365 443.952C147.664 444.187 148.048 444.304 148.517 444.304ZM160.585 446.24C159.497 446.24 158.617 445.995 157.945 445.504C157.278 445.008 156.873 444.309 156.729 443.408L158.953 443.072C159.043 443.477 159.243 443.795 159.553 444.024C159.867 444.253 160.265 444.368 160.745 444.368C161.139 444.368 161.443 444.293 161.657 444.144C161.87 443.989 161.977 443.776 161.977 443.504C161.977 443.333 161.934 443.197 161.849 443.096C161.763 442.989 161.571 442.885 161.273 442.784C160.979 442.683 160.521 442.549 159.897 442.384C159.193 442.203 158.63 442 158.209 441.776C157.787 441.552 157.483 441.285 157.297 440.976C157.11 440.661 157.017 440.283 157.017 439.84C157.017 439.285 157.158 438.805 157.441 438.4C157.723 437.989 158.121 437.675 158.633 437.456C159.15 437.232 159.758 437.12 160.457 437.12C161.134 437.12 161.734 437.224 162.257 437.432C162.779 437.64 163.201 437.936 163.521 438.32C163.846 438.704 164.046 439.157 164.121 439.68L161.897 440.08C161.859 439.76 161.721 439.507 161.481 439.32C161.241 439.133 160.915 439.024 160.505 438.992C160.105 438.965 159.782 439.019 159.537 439.152C159.297 439.285 159.177 439.477 159.177 439.728C159.177 439.877 159.227 440.003 159.329 440.104C159.435 440.205 159.651 440.309 159.977 440.416C160.307 440.523 160.809 440.661 161.481 440.832C162.137 441.003 162.662 441.203 163.057 441.432C163.457 441.656 163.747 441.928 163.929 442.248C164.11 442.563 164.201 442.944 164.201 443.392C164.201 444.277 163.881 444.973 163.241 445.48C162.601 445.987 161.715 446.24 160.585 446.24ZM169.655 446.24C168.769 446.24 167.988 446.051 167.311 445.672C166.639 445.288 166.111 444.763 165.727 444.096C165.348 443.424 165.159 442.656 165.159 441.792C165.159 440.848 165.345 440.027 165.719 439.328C166.092 438.629 166.607 438.088 167.263 437.704C167.919 437.315 168.673 437.12 169.527 437.12C170.433 437.12 171.204 437.333 171.839 437.76C172.473 438.187 172.943 438.787 173.247 439.56C173.551 440.333 173.657 441.243 173.567 442.288H171.415V441.488C171.415 440.608 171.273 439.976 170.991 439.592C170.713 439.203 170.257 439.008 169.623 439.008C168.881 439.008 168.335 439.235 167.983 439.688C167.636 440.136 167.463 440.8 167.463 441.68C167.463 442.485 167.636 443.109 167.983 443.552C168.335 443.989 168.849 444.208 169.527 444.208C169.953 444.208 170.319 444.115 170.623 443.928C170.927 443.741 171.159 443.472 171.319 443.12L173.495 443.744C173.169 444.533 172.655 445.147 171.951 445.584C171.252 446.021 170.487 446.24 169.655 446.24ZM166.791 442.288V440.672H172.519V442.288H166.791ZM180.237 446C179.64 446.112 179.053 446.16 178.477 446.144C177.906 446.133 177.394 446.035 176.941 445.848C176.493 445.656 176.152 445.349 175.917 444.928C175.704 444.533 175.592 444.133 175.581 443.728C175.57 443.317 175.565 442.853 175.565 442.336V434.96H177.741V442.208C177.741 442.544 177.744 442.848 177.749 443.12C177.76 443.387 177.816 443.6 177.917 443.76C178.109 444.064 178.416 444.229 178.837 444.256C179.258 444.283 179.725 444.261 180.237 444.192V446ZM174.093 439.04V437.36H180.237V439.04H174.093ZM185.059 446.256C184.381 446.256 183.829 446.141 183.403 445.912C182.976 445.683 182.643 445.392 182.403 445.04C182.168 444.688 182 444.323 181.899 443.944C181.797 443.56 181.736 443.211 181.715 442.896C181.693 442.581 181.683 442.352 181.683 442.208V437.36H183.891V441.44C183.891 441.637 183.901 441.891 183.923 442.2C183.944 442.504 184.011 442.811 184.123 443.12C184.235 443.429 184.416 443.688 184.667 443.896C184.923 444.104 185.283 444.208 185.747 444.208C185.933 444.208 186.133 444.179 186.347 444.12C186.56 444.061 186.76 443.949 186.947 443.784C187.133 443.613 187.285 443.365 187.403 443.04C187.525 442.709 187.587 442.277 187.587 441.744L188.835 442.336C188.835 443.019 188.696 443.659 188.419 444.256C188.141 444.853 187.723 445.336 187.163 445.704C186.608 446.072 185.907 446.256 185.059 446.256ZM187.859 446V443.136H187.587V437.36H189.779V446H187.859ZM195.934 446.24C195.076 446.24 194.358 446.04 193.782 445.64C193.206 445.24 192.772 444.696 192.478 444.008C192.19 443.32 192.046 442.544 192.046 441.68C192.046 440.816 192.19 440.04 192.478 439.352C192.766 438.664 193.19 438.12 193.75 437.72C194.31 437.32 195.001 437.12 195.822 437.12C196.649 437.12 197.369 437.317 197.982 437.712C198.596 438.107 199.07 438.648 199.406 439.336C199.748 440.019 199.918 440.8 199.918 441.68C199.918 442.544 199.75 443.32 199.414 444.008C199.084 444.696 198.62 445.24 198.022 445.64C197.425 446.04 196.729 446.24 195.934 446.24ZM191.678 449.84V437.36H193.598V443.28H193.87V449.84H191.678ZM195.582 444.304C196.052 444.304 196.436 444.187 196.734 443.952C197.033 443.717 197.254 443.403 197.398 443.008C197.542 442.608 197.614 442.165 197.614 441.68C197.614 441.2 197.54 440.763 197.39 440.368C197.241 439.968 197.009 439.651 196.694 439.416C196.385 439.176 195.988 439.056 195.502 439.056C195.049 439.056 194.681 439.165 194.398 439.384C194.121 439.603 193.918 439.909 193.79 440.304C193.662 440.699 193.598 441.157 193.598 441.68C193.598 442.203 193.662 442.661 193.79 443.056C193.918 443.451 194.126 443.757 194.414 443.976C194.708 444.195 195.097 444.304 195.582 444.304Z" fill="#161616"/>
<rect x="30" y="472" width="276" height="52" rx="26" fill="white"/>
<circle cx="56" cy="498" r="20" fill="url(#paint1_linear_270_1367)"/>
<path d="M52.5044 504V494.584L50.3444 495.904V493.776L52.5044 492.48H54.4724V504H52.5044ZM58.72 504V494.584L56.56 495.904V493.776L58.72 492.48H60.688V504H58.72Z" fill="#E5E5E5"/>
<path d="M89.12 504V492.48H91.072L94.88 500.128L98.688 492.48H100.64V504H98.608V497.12L95.264 504H94.496L91.152 497.12V504H89.12ZM106.582 504.24C105.696 504.24 104.915 504.051 104.238 503.672C103.566 503.288 103.038 502.763 102.654 502.096C102.275 501.424 102.086 500.656 102.086 499.792C102.086 498.848 102.272 498.027 102.646 497.328C103.019 496.629 103.534 496.088 104.19 495.704C104.846 495.315 105.6 495.12 106.454 495.12C107.36 495.12 108.131 495.333 108.766 495.76C109.4 496.187 109.87 496.787 110.174 497.56C110.478 498.333 110.584 499.243 110.494 500.288H108.342V499.488C108.342 498.608 108.2 497.976 107.918 497.592C107.64 497.203 107.184 497.008 106.55 497.008C105.808 497.008 105.262 497.235 104.91 497.688C104.563 498.136 104.39 498.8 104.39 499.68C104.39 500.485 104.563 501.109 104.91 501.552C105.262 501.989 105.776 502.208 106.454 502.208C106.88 502.208 107.246 502.115 107.55 501.928C107.854 501.741 108.086 501.472 108.246 501.12L110.422 501.744C110.096 502.533 109.582 503.147 108.878 503.584C108.179 504.021 107.414 504.24 106.582 504.24ZM103.718 500.288V498.672H109.446V500.288H103.718ZM111.98 504V495.36H113.9V497.472L113.692 497.2C113.804 496.901 113.953 496.629 114.14 496.384C114.327 496.139 114.556 495.936 114.828 495.776C115.036 495.648 115.263 495.549 115.508 495.48C115.753 495.405 116.007 495.36 116.268 495.344C116.529 495.323 116.791 495.328 117.052 495.36V497.392C116.812 497.317 116.532 497.293 116.212 497.32C115.897 497.341 115.612 497.413 115.356 497.536C115.1 497.653 114.884 497.811 114.708 498.008C114.532 498.2 114.399 498.429 114.308 498.696C114.217 498.957 114.172 499.253 114.172 499.584V504H111.98ZM121.906 504.24C121.01 504.24 120.242 504.04 119.602 503.64C118.962 503.24 118.471 502.696 118.13 502.008C117.788 501.32 117.618 500.544 117.618 499.68C117.618 498.805 117.794 498.024 118.146 497.336C118.503 496.648 119.004 496.107 119.65 495.712C120.295 495.317 121.058 495.12 121.938 495.12C122.956 495.12 123.81 495.379 124.498 495.896C125.191 496.408 125.634 497.109 125.826 498L123.65 498.576C123.522 498.128 123.298 497.779 122.978 497.528C122.663 497.277 122.306 497.152 121.906 497.152C121.447 497.152 121.071 497.264 120.778 497.488C120.484 497.707 120.268 498.008 120.13 498.392C119.991 498.771 119.922 499.2 119.922 499.68C119.922 500.432 120.087 501.043 120.418 501.512C120.754 501.976 121.25 502.208 121.906 502.208C122.396 502.208 122.77 502.096 123.026 501.872C123.282 501.648 123.474 501.328 123.602 500.912L125.826 501.376C125.58 502.293 125.116 503 124.434 503.496C123.751 503.992 122.908 504.24 121.906 504.24ZM132.994 504V499.92C132.994 499.723 132.983 499.472 132.962 499.168C132.94 498.859 132.874 498.549 132.762 498.24C132.65 497.931 132.466 497.672 132.21 497.464C131.959 497.256 131.602 497.152 131.138 497.152C130.951 497.152 130.751 497.181 130.538 497.24C130.324 497.299 130.124 497.413 129.938 497.584C129.751 497.749 129.596 497.995 129.474 498.32C129.356 498.645 129.298 499.077 129.298 499.616L128.05 499.024C128.05 498.341 128.188 497.701 128.466 497.104C128.743 496.507 129.159 496.024 129.714 495.656C130.274 495.288 130.978 495.104 131.826 495.104C132.503 495.104 133.055 495.219 133.482 495.448C133.908 495.677 134.239 495.968 134.474 496.32C134.714 496.672 134.884 497.04 134.986 497.424C135.087 497.803 135.148 498.149 135.17 498.464C135.191 498.779 135.202 499.008 135.202 499.152V504H132.994ZM127.09 504V492.48H129.026V498.4H129.298V504H127.09ZM139.358 504.24C138.739 504.24 138.214 504.123 137.782 503.888C137.355 503.648 137.03 503.331 136.806 502.936C136.587 502.536 136.478 502.096 136.478 501.616C136.478 501.216 136.539 500.851 136.662 500.52C136.784 500.189 136.982 499.899 137.254 499.648C137.531 499.392 137.902 499.179 138.366 499.008C138.686 498.891 139.067 498.787 139.51 498.696C139.952 498.605 140.454 498.52 141.014 498.44C141.574 498.355 142.19 498.261 142.862 498.16L142.078 498.592C142.078 498.08 141.955 497.704 141.71 497.464C141.464 497.224 141.054 497.104 140.478 497.104C140.158 497.104 139.824 497.181 139.478 497.336C139.131 497.491 138.888 497.765 138.75 498.16L136.782 497.536C137 496.821 137.411 496.24 138.014 495.792C138.616 495.344 139.438 495.12 140.478 495.12C141.24 495.12 141.918 495.237 142.51 495.472C143.102 495.707 143.55 496.112 143.854 496.688C144.024 497.008 144.126 497.328 144.158 497.648C144.19 497.968 144.206 498.325 144.206 498.72V504H142.302V502.224L142.574 502.592C142.152 503.173 141.696 503.595 141.206 503.856C140.72 504.112 140.104 504.24 139.358 504.24ZM139.822 502.528C140.222 502.528 140.558 502.459 140.83 502.32C141.107 502.176 141.326 502.013 141.486 501.832C141.651 501.651 141.763 501.499 141.822 501.376C141.934 501.141 141.998 500.869 142.014 500.56C142.035 500.245 142.046 499.984 142.046 499.776L142.686 499.936C142.04 500.043 141.518 500.133 141.118 500.208C140.718 500.277 140.395 500.341 140.15 500.4C139.904 500.459 139.688 500.523 139.502 500.592C139.288 500.677 139.115 500.771 138.982 500.872C138.854 500.968 138.758 501.075 138.694 501.192C138.635 501.309 138.606 501.44 138.606 501.584C138.606 501.781 138.654 501.952 138.75 502.096C138.851 502.235 138.992 502.341 139.174 502.416C139.355 502.491 139.571 502.528 139.822 502.528ZM151.854 504V499.92C151.854 499.723 151.843 499.472 151.822 499.168C151.8 498.859 151.734 498.549 151.622 498.24C151.51 497.931 151.326 497.672 151.07 497.464C150.819 497.256 150.462 497.152 149.998 497.152C149.811 497.152 149.611 497.181 149.398 497.24C149.184 497.299 148.984 497.413 148.798 497.584C148.611 497.749 148.456 497.995 148.334 498.32C148.216 498.645 148.158 499.077 148.158 499.616L146.91 499.024C146.91 498.341 147.048 497.701 147.326 497.104C147.603 496.507 148.019 496.024 148.574 495.656C149.134 495.288 149.838 495.104 150.686 495.104C151.363 495.104 151.915 495.219 152.342 495.448C152.768 495.677 153.099 495.968 153.334 496.32C153.574 496.672 153.744 497.04 153.846 497.424C153.947 497.803 154.008 498.149 154.03 498.464C154.051 498.779 154.062 499.008 154.062 499.152V504H151.854ZM145.95 504V495.36H147.886V498.224H148.158V504H145.95ZM161.002 504C160.404 504.112 159.818 504.16 159.242 504.144C158.671 504.133 158.159 504.035 157.706 503.848C157.258 503.656 156.916 503.349 156.682 502.928C156.468 502.533 156.356 502.133 156.346 501.728C156.335 501.317 156.33 500.853 156.33 500.336V492.96H158.506V500.208C158.506 500.544 158.508 500.848 158.514 501.12C158.524 501.387 158.58 501.6 158.682 501.76C158.874 502.064 159.18 502.229 159.602 502.256C160.023 502.283 160.49 502.261 161.002 502.192V504ZM154.858 497.04V495.36H161.002V497.04H154.858ZM168.866 504.24C167.778 504.24 166.898 503.995 166.226 503.504C165.559 503.008 165.154 502.309 165.01 501.408L167.234 501.072C167.325 501.477 167.525 501.795 167.834 502.024C168.149 502.253 168.546 502.368 169.026 502.368C169.421 502.368 169.725 502.293 169.938 502.144C170.151 501.989 170.258 501.776 170.258 501.504C170.258 501.333 170.215 501.197 170.13 501.096C170.045 500.989 169.853 500.885 169.554 500.784C169.261 500.683 168.802 500.549 168.178 500.384C167.474 500.203 166.911 500 166.49 499.776C166.069 499.552 165.765 499.285 165.578 498.976C165.391 498.661 165.298 498.283 165.298 497.84C165.298 497.285 165.439 496.805 165.722 496.4C166.005 495.989 166.402 495.675 166.914 495.456C167.431 495.232 168.039 495.12 168.738 495.12C169.415 495.12 170.015 495.224 170.538 495.432C171.061 495.64 171.482 495.936 171.802 496.32C172.127 496.704 172.327 497.157 172.402 497.68L170.178 498.08C170.141 497.76 170.002 497.507 169.762 497.32C169.522 497.133 169.197 497.024 168.786 496.992C168.386 496.965 168.063 497.019 167.818 497.152C167.578 497.285 167.458 497.477 167.458 497.728C167.458 497.877 167.509 498.003 167.61 498.104C167.717 498.205 167.933 498.309 168.258 498.416C168.589 498.523 169.09 498.661 169.762 498.832C170.418 499.003 170.943 499.203 171.338 499.432C171.738 499.656 172.029 499.928 172.21 500.248C172.391 500.563 172.482 500.944 172.482 501.392C172.482 502.277 172.162 502.973 171.522 503.48C170.882 503.987 169.997 504.24 168.866 504.24ZM177.936 504.24C177.051 504.24 176.269 504.051 175.592 503.672C174.92 503.288 174.392 502.763 174.008 502.096C173.629 501.424 173.44 500.656 173.44 499.792C173.44 498.848 173.627 498.027 174 497.328C174.373 496.629 174.888 496.088 175.544 495.704C176.2 495.315 176.955 495.12 177.808 495.12C178.715 495.12 179.485 495.333 180.12 495.76C180.755 496.187 181.224 496.787 181.528 497.56C181.832 498.333 181.939 499.243 181.848 500.288H179.696V499.488C179.696 498.608 179.555 497.976 179.272 497.592C178.995 497.203 178.539 497.008 177.904 497.008C177.163 497.008 176.616 497.235 176.264 497.688C175.917 498.136 175.744 498.8 175.744 499.68C175.744 500.485 175.917 501.109 176.264 501.552C176.616 501.989 177.131 502.208 177.808 502.208C178.235 502.208 178.6 502.115 178.904 501.928C179.208 501.741 179.44 501.472 179.6 501.12L181.776 501.744C181.451 502.533 180.936 503.147 180.232 503.584C179.533 504.021 178.768 504.24 177.936 504.24ZM175.072 500.288V498.672H180.8V500.288H175.072ZM188.518 504C187.921 504.112 187.334 504.16 186.758 504.144C186.188 504.133 185.676 504.035 185.222 503.848C184.774 503.656 184.433 503.349 184.198 502.928C183.985 502.533 183.873 502.133 183.862 501.728C183.852 501.317 183.846 500.853 183.846 500.336V492.96H186.022V500.208C186.022 500.544 186.025 500.848 186.03 501.12C186.041 501.387 186.097 501.6 186.198 501.76C186.39 502.064 186.697 502.229 187.118 502.256C187.54 502.283 188.006 502.261 188.518 502.192V504ZM182.374 497.04V495.36H188.518V497.04H182.374ZM193.34 504.256C192.662 504.256 192.11 504.141 191.684 503.912C191.257 503.683 190.924 503.392 190.684 503.04C190.449 502.688 190.281 502.323 190.18 501.944C190.078 501.56 190.017 501.211 189.996 500.896C189.974 500.581 189.964 500.352 189.964 500.208V495.36H192.172V499.44C192.172 499.637 192.182 499.891 192.204 500.2C192.225 500.504 192.292 500.811 192.404 501.12C192.516 501.429 192.697 501.688 192.948 501.896C193.204 502.104 193.564 502.208 194.028 502.208C194.214 502.208 194.414 502.179 194.628 502.12C194.841 502.061 195.041 501.949 195.228 501.784C195.414 501.613 195.566 501.365 195.684 501.04C195.806 500.709 195.868 500.277 195.868 499.744L197.116 500.336C197.116 501.019 196.977 501.659 196.7 502.256C196.422 502.853 196.004 503.336 195.444 503.704C194.889 504.072 194.188 504.256 193.34 504.256ZM196.14 504V501.136H195.868V495.36H198.06V504H196.14ZM204.216 504.24C203.357 504.24 202.64 504.04 202.064 503.64C201.488 503.24 201.053 502.696 200.76 502.008C200.472 501.32 200.328 500.544 200.328 499.68C200.328 498.816 200.472 498.04 200.76 497.352C201.048 496.664 201.472 496.12 202.032 495.72C202.592 495.32 203.282 495.12 204.104 495.12C204.93 495.12 205.65 495.317 206.264 495.712C206.877 496.107 207.352 496.648 207.688 497.336C208.029 498.019 208.2 498.8 208.2 499.68C208.2 500.544 208.032 501.32 207.696 502.008C207.365 502.696 206.901 503.24 206.304 503.64C205.706 504.04 205.01 504.24 204.216 504.24ZM199.96 507.84V495.36H201.88V501.28H202.152V507.84H199.96ZM203.864 502.304C204.333 502.304 204.717 502.187 205.016 501.952C205.314 501.717 205.536 501.403 205.68 501.008C205.824 500.608 205.896 500.165 205.896 499.68C205.896 499.2 205.821 498.763 205.672 498.368C205.522 497.968 205.29 497.651 204.976 497.416C204.666 497.176 204.269 497.056 203.784 497.056C203.33 497.056 202.962 497.165 202.68 497.384C202.402 497.603 202.2 497.909 202.072 498.304C201.944 498.699 201.88 499.157 201.88 499.68C201.88 500.203 201.944 500.661 202.072 501.056C202.2 501.451 202.408 501.757 202.696 501.976C202.989 502.195 203.378 502.304 203.864 502.304Z" fill="#161616"/>
<rect x="30" y="530" width="276" height="52" rx="26" fill="white"/>
<circle cx="56" cy="556" r="20" fill="url(#paint2_linear_270_1367)"/>
<path d="M51.2466 562V552.584L49.0866 553.904V551.776L51.2466 550.48H53.2146V562H51.2466ZM55.1422 561.984V560.304L60.0702 555.912C60.4542 555.571 60.7209 555.248 60.8702 554.944C61.0195 554.64 61.0942 554.347 61.0942 554.064C61.0942 553.68 61.0115 553.339 60.8462 553.04C60.6809 552.736 60.4515 552.496 60.1582 552.32C59.8702 552.144 59.5369 552.056 59.1582 552.056C58.7582 552.056 58.4035 552.149 58.0942 552.336C57.7902 552.517 57.5529 552.76 57.3822 553.064C57.2115 553.368 57.1315 553.696 57.1422 554.048H55.1582C55.1582 553.28 55.3289 552.611 55.6702 552.04C56.0169 551.469 56.4915 551.027 57.0942 550.712C57.7022 550.397 58.4035 550.24 59.1982 550.24C59.9342 550.24 60.5955 550.405 61.1822 550.736C61.7689 551.061 62.2302 551.515 62.5662 552.096C62.9022 552.672 63.0702 553.336 63.0702 554.088C63.0702 554.637 62.9955 555.099 62.8462 555.472C62.6969 555.845 62.4729 556.189 62.1742 556.504C61.8809 556.819 61.5155 557.168 61.0782 557.552L57.5822 560.648L57.4062 560.168H63.0702V561.984H55.1422Z" fill="#E5E5E5"/>
<path d="M88.32 562L91.84 550.48H95.088L98.608 562H96.368L93.232 551.84H93.648L90.56 562H88.32ZM90.432 559.6V557.568H96.512V559.6H90.432ZM103.226 562.24C102.431 562.24 101.735 562.04 101.138 561.64C100.541 561.24 100.074 560.696 99.7379 560.008C99.4072 559.32 99.2419 558.544 99.2419 557.68C99.2419 556.8 99.4099 556.019 99.7459 555.336C100.087 554.648 100.565 554.107 101.178 553.712C101.791 553.317 102.511 553.12 103.338 553.12C104.159 553.12 104.85 553.32 105.41 553.72C105.97 554.12 106.394 554.664 106.682 555.352C106.97 556.04 107.114 556.816 107.114 557.68C107.114 558.544 106.967 559.32 106.674 560.008C106.386 560.696 105.954 561.24 105.378 561.64C104.802 562.04 104.085 562.24 103.226 562.24ZM103.578 560.304C104.063 560.304 104.45 560.195 104.738 559.976C105.031 559.757 105.242 559.451 105.37 559.056C105.498 558.661 105.562 558.203 105.562 557.68C105.562 557.157 105.498 556.699 105.37 556.304C105.242 555.909 105.037 555.603 104.754 555.384C104.477 555.165 104.111 555.056 103.658 555.056C103.173 555.056 102.773 555.176 102.458 555.416C102.149 555.651 101.919 555.968 101.77 556.368C101.621 556.763 101.546 557.2 101.546 557.68C101.546 558.165 101.618 558.608 101.762 559.008C101.906 559.403 102.127 559.717 102.426 559.952C102.725 560.187 103.109 560.304 103.578 560.304ZM105.562 562V556.08H105.29V550.48H107.482V562H105.562ZM116.093 562.24C115.197 562.24 114.429 562.04 113.789 561.64C113.149 561.24 112.658 560.696 112.317 560.008C111.976 559.32 111.805 558.544 111.805 557.68C111.805 556.805 111.981 556.024 112.333 555.336C112.69 554.648 113.192 554.107 113.837 553.712C114.482 553.317 115.245 553.12 116.125 553.12C117.144 553.12 117.997 553.379 118.685 553.896C119.378 554.408 119.821 555.109 120.013 556L117.837 556.576C117.709 556.128 117.485 555.779 117.165 555.528C116.85 555.277 116.493 555.152 116.093 555.152C115.634 555.152 115.258 555.264 114.965 555.488C114.672 555.707 114.456 556.008 114.317 556.392C114.178 556.771 114.109 557.2 114.109 557.68C114.109 558.432 114.274 559.043 114.605 559.512C114.941 559.976 115.437 560.208 116.093 560.208C116.584 560.208 116.957 560.096 117.213 559.872C117.469 559.648 117.661 559.328 117.789 558.912L120.013 559.376C119.768 560.293 119.304 561 118.621 561.496C117.938 561.992 117.096 562.24 116.093 562.24ZM124.947 562.24C124.077 562.24 123.315 562.045 122.659 561.656C122.003 561.267 121.491 560.731 121.123 560.048C120.76 559.36 120.579 558.571 120.579 557.68C120.579 556.779 120.765 555.987 121.139 555.304C121.512 554.616 122.027 554.08 122.683 553.696C123.339 553.312 124.093 553.12 124.947 553.12C125.816 553.12 126.579 553.315 127.235 553.704C127.896 554.093 128.411 554.632 128.779 555.32C129.147 556.003 129.331 556.789 129.331 557.68C129.331 558.576 129.144 559.368 128.771 560.056C128.403 560.739 127.888 561.275 127.227 561.664C126.571 562.048 125.811 562.24 124.947 562.24ZM124.947 560.208C125.645 560.208 126.165 559.973 126.507 559.504C126.853 559.029 127.027 558.421 127.027 557.68C127.027 556.912 126.851 556.299 126.499 555.84C126.152 555.381 125.635 555.152 124.947 555.152C124.472 555.152 124.083 555.259 123.779 555.472C123.475 555.685 123.248 555.981 123.099 556.36C122.955 556.739 122.883 557.179 122.883 557.68C122.883 558.453 123.056 559.069 123.403 559.528C123.755 559.981 124.269 560.208 124.947 560.208ZM136.658 562V557.92C136.658 557.723 136.647 557.472 136.626 557.168C136.605 556.859 136.538 556.549 136.426 556.24C136.314 555.931 136.13 555.672 135.874 555.464C135.623 555.256 135.266 555.152 134.802 555.152C134.615 555.152 134.415 555.181 134.202 555.24C133.989 555.299 133.789 555.413 133.602 555.584C133.415 555.749 133.261 555.995 133.138 556.32C133.021 556.645 132.962 557.077 132.962 557.616L131.714 557.024C131.714 556.341 131.853 555.701 132.13 555.104C132.407 554.507 132.823 554.024 133.378 553.656C133.938 553.288 134.642 553.104 135.49 553.104C136.167 553.104 136.719 553.219 137.146 553.448C137.573 553.677 137.903 553.968 138.138 554.32C138.378 554.672 138.549 555.04 138.65 555.424C138.751 555.803 138.813 556.149 138.834 556.464C138.855 556.779 138.866 557.008 138.866 557.152V562H136.658ZM130.754 562V553.36H132.69V556.224H132.962V562H130.754ZM145.806 562C145.209 562.112 144.622 562.16 144.046 562.144C143.475 562.133 142.963 562.035 142.51 561.848C142.062 561.656 141.721 561.349 141.486 560.928C141.273 560.533 141.161 560.133 141.15 559.728C141.139 559.317 141.134 558.853 141.134 558.336V550.96H143.31V558.208C143.31 558.544 143.313 558.848 143.318 559.12C143.329 559.387 143.385 559.6 143.486 559.76C143.678 560.064 143.985 560.229 144.406 560.256C144.827 560.283 145.294 560.261 145.806 560.192V562ZM139.662 555.04V553.36H145.806V555.04H139.662ZM150.958 562.24C150.073 562.24 149.292 562.051 148.614 561.672C147.942 561.288 147.414 560.763 147.03 560.096C146.652 559.424 146.462 558.656 146.462 557.792C146.462 556.848 146.649 556.027 147.022 555.328C147.396 554.629 147.91 554.088 148.566 553.704C149.222 553.315 149.977 553.12 150.83 553.12C151.737 553.12 152.508 553.333 153.142 553.76C153.777 554.187 154.246 554.787 154.55 555.56C154.854 556.333 154.961 557.243 154.87 558.288H152.718V557.488C152.718 556.608 152.577 555.976 152.294 555.592C152.017 555.203 151.561 555.008 150.926 555.008C150.185 555.008 149.638 555.235 149.286 555.688C148.94 556.136 148.766 556.8 148.766 557.68C148.766 558.485 148.94 559.109 149.286 559.552C149.638 559.989 150.153 560.208 150.83 560.208C151.257 560.208 151.622 560.115 151.926 559.928C152.23 559.741 152.462 559.472 152.622 559.12L154.798 559.744C154.473 560.533 153.958 561.147 153.254 561.584C152.556 562.021 151.79 562.24 150.958 562.24ZM148.094 558.288V556.672H153.822V558.288H148.094ZM162.011 562V557.92C162.011 557.723 162 557.472 161.979 557.168C161.957 556.859 161.891 556.549 161.779 556.24C161.667 555.931 161.483 555.672 161.227 555.464C160.976 555.256 160.619 555.152 160.155 555.152C159.968 555.152 159.768 555.181 159.555 555.24C159.341 555.299 159.141 555.413 158.955 555.584C158.768 555.749 158.613 555.995 158.491 556.32C158.373 556.645 158.315 557.077 158.315 557.616L157.067 557.024C157.067 556.341 157.205 555.701 157.483 555.104C157.76 554.507 158.176 554.024 158.731 553.656C159.291 553.288 159.995 553.104 160.843 553.104C161.52 553.104 162.072 553.219 162.499 553.448C162.925 553.677 163.256 553.968 163.491 554.32C163.731 554.672 163.901 555.04 164.003 555.424C164.104 555.803 164.165 556.149 164.187 556.464C164.208 556.779 164.219 557.008 164.219 557.152V562H162.011ZM156.107 562V553.36H158.043V556.224H158.315V562H156.107ZM171.158 562C170.561 562.112 169.974 562.16 169.398 562.144C168.828 562.133 168.316 562.035 167.862 561.848C167.414 561.656 167.073 561.349 166.838 560.928C166.625 560.533 166.513 560.133 166.502 559.728C166.492 559.317 166.486 558.853 166.486 558.336V550.96H168.662V558.208C168.662 558.544 168.665 558.848 168.67 559.12C168.681 559.387 168.737 559.6 168.838 559.76C169.03 560.064 169.337 560.229 169.758 560.256C170.18 560.283 170.646 560.261 171.158 560.192V562ZM165.014 555.04V553.36H171.158V555.04H165.014ZM179.455 562.24C178.559 562.24 177.791 562.04 177.151 561.64C176.511 561.24 176.02 560.696 175.679 560.008C175.338 559.32 175.167 558.544 175.167 557.68C175.167 556.805 175.343 556.024 175.695 555.336C176.052 554.648 176.554 554.107 177.199 553.712C177.844 553.317 178.607 553.12 179.487 553.12C180.506 553.12 181.359 553.379 182.047 553.896C182.74 554.408 183.183 555.109 183.375 556L181.199 556.576C181.071 556.128 180.847 555.779 180.527 555.528C180.212 555.277 179.855 555.152 179.455 555.152C178.996 555.152 178.62 555.264 178.327 555.488C178.034 555.707 177.818 556.008 177.679 556.392C177.54 556.771 177.471 557.2 177.471 557.68C177.471 558.432 177.636 559.043 177.967 559.512C178.303 559.976 178.799 560.208 179.455 560.208C179.946 560.208 180.319 560.096 180.575 559.872C180.831 559.648 181.023 559.328 181.151 558.912L183.375 559.376C183.13 560.293 182.666 561 181.983 561.496C181.3 561.992 180.458 562.24 179.455 562.24ZM184.655 562V553.36H186.575V555.472L186.367 555.2C186.479 554.901 186.628 554.629 186.815 554.384C187.002 554.139 187.231 553.936 187.503 553.776C187.711 553.648 187.938 553.549 188.183 553.48C188.428 553.405 188.682 553.36 188.943 553.344C189.204 553.323 189.466 553.328 189.727 553.36V555.392C189.487 555.317 189.207 555.293 188.887 555.32C188.572 555.341 188.287 555.413 188.031 555.536C187.775 555.653 187.559 555.811 187.383 556.008C187.207 556.2 187.074 556.429 186.983 556.696C186.892 556.957 186.847 557.253 186.847 557.584V562H184.655ZM194.788 562.24C193.903 562.24 193.122 562.051 192.444 561.672C191.772 561.288 191.244 560.763 190.86 560.096C190.482 559.424 190.292 558.656 190.292 557.792C190.292 556.848 190.479 556.027 190.852 555.328C191.226 554.629 191.74 554.088 192.396 553.704C193.052 553.315 193.807 553.12 194.66 553.12C195.567 553.12 196.338 553.333 196.972 553.76C197.607 554.187 198.076 554.787 198.38 555.56C198.684 556.333 198.791 557.243 198.7 558.288H196.548V557.488C196.548 556.608 196.407 555.976 196.124 555.592C195.847 555.203 195.391 555.008 194.756 555.008C194.015 555.008 193.468 555.235 193.116 555.688C192.77 556.136 192.596 556.8 192.596 557.68C192.596 558.485 192.77 559.109 193.116 559.552C193.468 559.989 193.983 560.208 194.66 560.208C195.087 560.208 195.452 560.115 195.756 559.928C196.06 559.741 196.292 559.472 196.452 559.12L198.628 559.744C198.303 560.533 197.788 561.147 197.084 561.584C196.386 562.021 195.62 562.24 194.788 562.24ZM191.924 558.288V556.672H197.652V558.288H191.924ZM202.431 562.24C201.812 562.24 201.287 562.123 200.855 561.888C200.428 561.648 200.103 561.331 199.879 560.936C199.66 560.536 199.551 560.096 199.551 559.616C199.551 559.216 199.612 558.851 199.735 558.52C199.857 558.189 200.055 557.899 200.327 557.648C200.604 557.392 200.975 557.179 201.439 557.008C201.759 556.891 202.14 556.787 202.583 556.696C203.025 556.605 203.527 556.52 204.087 556.44C204.647 556.355 205.263 556.261 205.935 556.16L205.151 556.592C205.151 556.08 205.028 555.704 204.783 555.464C204.537 555.224 204.127 555.104 203.551 555.104C203.231 555.104 202.897 555.181 202.551 555.336C202.204 555.491 201.961 555.765 201.823 556.16L199.855 555.536C200.073 554.821 200.484 554.24 201.087 553.792C201.689 553.344 202.511 553.12 203.551 553.12C204.313 553.12 204.991 553.237 205.583 553.472C206.175 553.707 206.623 554.112 206.927 554.688C207.097 555.008 207.199 555.328 207.231 555.648C207.263 555.968 207.279 556.325 207.279 556.72V562H205.375V560.224L205.647 560.592C205.225 561.173 204.769 561.595 204.279 561.856C203.793 562.112 203.177 562.24 202.431 562.24ZM202.895 560.528C203.295 560.528 203.631 560.459 203.903 560.32C204.18 560.176 204.399 560.013 204.559 559.832C204.724 559.651 204.836 559.499 204.895 559.376C205.007 559.141 205.071 558.869 205.087 558.56C205.108 558.245 205.119 557.984 205.119 557.776L205.759 557.936C205.113 558.043 204.591 558.133 204.191 558.208C203.791 558.277 203.468 558.341 203.223 558.4C202.977 558.459 202.761 558.523 202.575 558.592C202.361 558.677 202.188 558.771 202.055 558.872C201.927 558.968 201.831 559.075 201.767 559.192C201.708 559.309 201.679 559.44 201.679 559.584C201.679 559.781 201.727 559.952 201.823 560.096C201.924 560.235 202.065 560.341 202.247 560.416C202.428 560.491 202.644 560.528 202.895 560.528ZM214.223 562C213.625 562.112 213.039 562.16 212.463 562.144C211.892 562.133 211.38 562.035 210.927 561.848C210.479 561.656 210.137 561.349 209.903 560.928C209.689 560.533 209.577 560.133 209.567 559.728C209.556 559.317 209.551 558.853 209.551 558.336V550.96H211.727V558.208C211.727 558.544 211.729 558.848 211.735 559.12C211.745 559.387 211.801 559.6 211.903 559.76C212.095 560.064 212.401 560.229 212.823 560.256C213.244 560.283 213.711 560.261 214.223 560.192V562ZM208.079 555.04V553.36H214.223V555.04H208.079ZM215.988 552.16V550.24H218.164V552.16H215.988ZM215.988 562V553.36H218.164V562H215.988ZM224.13 562.24C223.261 562.24 222.498 562.045 221.842 561.656C221.186 561.267 220.674 560.731 220.306 560.048C219.944 559.36 219.762 558.571 219.762 557.68C219.762 556.779 219.949 555.987 220.322 555.304C220.696 554.616 221.21 554.08 221.866 553.696C222.522 553.312 223.277 553.12 224.13 553.12C225 553.12 225.762 553.315 226.418 553.704C227.08 554.093 227.594 554.632 227.962 555.32C228.33 556.003 228.514 556.789 228.514 557.68C228.514 558.576 228.328 559.368 227.954 560.056C227.586 560.739 227.072 561.275 226.41 561.664C225.754 562.048 224.994 562.24 224.13 562.24ZM224.13 560.208C224.829 560.208 225.349 559.973 225.69 559.504C226.037 559.029 226.21 558.421 226.21 557.68C226.21 556.912 226.034 556.299 225.682 555.84C225.336 555.381 224.818 555.152 224.13 555.152C223.656 555.152 223.266 555.259 222.962 555.472C222.658 555.685 222.432 555.981 222.282 556.36C222.138 556.739 222.066 557.179 222.066 557.68C222.066 558.453 222.24 559.069 222.586 559.528C222.938 559.981 223.453 560.208 224.13 560.208ZM235.842 562V557.92C235.842 557.723 235.831 557.472 235.81 557.168C235.788 556.859 235.722 556.549 235.61 556.24C235.498 555.931 235.314 555.672 235.058 555.464C234.807 555.256 234.45 555.152 233.986 555.152C233.799 555.152 233.599 555.181 233.386 555.24C233.172 555.299 232.972 555.413 232.786 555.584C232.599 555.749 232.444 555.995 232.322 556.32C232.204 556.645 232.146 557.077 232.146 557.616L230.898 557.024C230.898 556.341 231.036 555.701 231.314 555.104C231.591 554.507 232.007 554.024 232.562 553.656C233.122 553.288 233.826 553.104 234.674 553.104C235.351 553.104 235.903 553.219 236.33 553.448C236.756 553.677 237.087 553.968 237.322 554.32C237.562 554.672 237.732 555.04 237.834 555.424C237.935 555.803 237.996 556.149 238.018 556.464C238.039 556.779 238.05 557.008 238.05 557.152V562H235.842ZM229.938 562V553.36H231.874V556.224H232.146V562H229.938Z" fill="#161616"/>
<rect x="30" y="588" width="276" height="52" rx="26" fill="white"/>
<circle cx="56" cy="614" r="20" fill="url(#paint3_linear_270_1367)"/>
<path d="M51.3638 620V610.584L49.2038 611.904V609.776L51.3638 608.48H53.3318V620H51.3638ZM58.8754 620.216C58.2994 620.216 57.7554 620.104 57.2434 619.88C56.7314 619.656 56.286 619.339 55.9074 618.928C55.534 618.517 55.2647 618.032 55.0994 617.472L56.9634 616.968C57.0967 617.427 57.3394 617.781 57.6914 618.032C58.0487 618.277 58.4407 618.397 58.8674 618.392C59.246 618.392 59.5847 618.304 59.8834 618.128C60.182 617.952 60.4167 617.715 60.5874 617.416C60.758 617.112 60.8434 616.773 60.8434 616.4C60.8434 615.829 60.6594 615.352 60.2914 614.968C59.9234 614.584 59.4487 614.392 58.8674 614.392C58.6914 614.392 58.518 614.416 58.3474 614.464C58.182 614.512 58.022 614.579 57.8674 614.664L56.9874 613.144L60.8594 609.832L61.0274 610.296H55.5474V608.48H62.6114V610.304L59.4994 613.296L59.4834 612.728C60.182 612.776 60.7767 612.971 61.2674 613.312C61.7634 613.653 62.142 614.093 62.4034 614.632C62.67 615.171 62.8034 615.76 62.8034 616.4C62.8034 617.125 62.6247 617.776 62.2674 618.352C61.9154 618.928 61.4407 619.384 60.8434 619.72C60.2514 620.051 59.5954 620.216 58.8754 620.216Z" fill="#E5E5E5"/>
<path d="M94.064 620.24C92.912 620.24 91.9173 619.989 91.08 619.488C90.248 618.987 89.6053 618.285 89.152 617.384C88.704 616.483 88.48 615.435 88.48 614.24C88.48 613.045 88.704 611.997 89.152 611.096C89.6053 610.195 90.248 609.493 91.08 608.992C91.9173 608.491 92.912 608.24 94.064 608.24C95.3867 608.24 96.496 608.568 97.392 609.224C98.2933 609.88 98.928 610.768 99.296 611.888L97.104 612.496C96.8907 611.797 96.5307 611.256 96.024 610.872C95.5173 610.483 94.864 610.288 94.064 610.288C93.3333 610.288 92.7227 610.451 92.232 610.776C91.7467 611.101 91.3813 611.56 91.136 612.152C90.8907 612.744 90.768 613.44 90.768 614.24C90.768 615.04 90.8907 615.736 91.136 616.328C91.3813 616.92 91.7467 617.379 92.232 617.704C92.7227 618.029 93.3333 618.192 94.064 618.192C94.864 618.192 95.5173 617.997 96.024 617.608C96.5307 617.219 96.8907 616.677 97.104 615.984L99.296 616.592C98.928 617.712 98.2933 618.6 97.392 619.256C96.496 619.912 95.3867 620.24 94.064 620.24ZM103.138 620.24C102.519 620.24 101.994 620.123 101.562 619.888C101.135 619.648 100.81 619.331 100.586 618.936C100.367 618.536 100.258 618.096 100.258 617.616C100.258 617.216 100.319 616.851 100.442 616.52C100.564 616.189 100.762 615.899 101.034 615.648C101.311 615.392 101.682 615.179 102.146 615.008C102.466 614.891 102.847 614.787 103.29 614.696C103.732 614.605 104.234 614.52 104.794 614.44C105.354 614.355 105.97 614.261 106.642 614.16L105.858 614.592C105.858 614.08 105.735 613.704 105.49 613.464C105.244 613.224 104.834 613.104 104.258 613.104C103.938 613.104 103.604 613.181 103.258 613.336C102.911 613.491 102.668 613.765 102.53 614.16L100.562 613.536C100.78 612.821 101.191 612.24 101.794 611.792C102.396 611.344 103.218 611.12 104.258 611.12C105.02 611.12 105.698 611.237 106.29 611.472C106.882 611.707 107.33 612.112 107.634 612.688C107.804 613.008 107.906 613.328 107.938 613.648C107.97 613.968 107.986 614.325 107.986 614.72V620H106.082V618.224L106.354 618.592C105.932 619.173 105.476 619.595 104.986 619.856C104.5 620.112 103.884 620.24 103.138 620.24ZM103.602 618.528C104.002 618.528 104.338 618.459 104.61 618.32C104.887 618.176 105.106 618.013 105.266 617.832C105.431 617.651 105.543 617.499 105.602 617.376C105.714 617.141 105.778 616.869 105.794 616.56C105.815 616.245 105.826 615.984 105.826 615.776L106.466 615.936C105.82 616.043 105.298 616.133 104.898 616.208C104.498 616.277 104.175 616.341 103.93 616.4C103.684 616.459 103.468 616.523 103.282 616.592C103.068 616.677 102.895 616.771 102.762 616.872C102.634 616.968 102.538 617.075 102.474 617.192C102.415 617.309 102.386 617.44 102.386 617.584C102.386 617.781 102.434 617.952 102.53 618.096C102.631 618.235 102.772 618.341 102.954 618.416C103.135 618.491 103.351 618.528 103.602 618.528ZM120.146 620V614.896C120.146 614.325 120.01 613.883 119.738 613.568C119.471 613.248 119.1 613.088 118.626 613.088C118.322 613.088 118.058 613.16 117.834 613.304C117.61 613.443 117.434 613.64 117.306 613.896C117.183 614.147 117.122 614.437 117.122 614.768L116.21 614.16C116.21 613.568 116.348 613.045 116.626 612.592C116.908 612.139 117.284 611.787 117.754 611.536C118.228 611.28 118.754 611.152 119.33 611.152C120.316 611.152 121.06 611.445 121.562 612.032C122.068 612.613 122.322 613.376 122.322 614.32V620H120.146ZM109.73 620V611.36H111.65V614.224H111.922V620H109.73ZM114.946 620V614.896C114.946 614.325 114.81 613.883 114.538 613.568C114.271 613.248 113.9 613.088 113.426 613.088C112.972 613.088 112.607 613.245 112.33 613.56C112.058 613.869 111.922 614.272 111.922 614.768L111.01 614.128C111.01 613.563 111.151 613.056 111.434 612.608C111.716 612.16 112.095 611.805 112.57 611.544C113.05 611.283 113.586 611.152 114.178 611.152C114.855 611.152 115.41 611.296 115.842 611.584C116.279 611.872 116.602 612.256 116.81 612.736C117.018 613.216 117.122 613.744 117.122 614.32V620H114.946ZM128.322 620.24C127.463 620.24 126.746 620.04 126.17 619.64C125.594 619.24 125.159 618.696 124.866 618.008C124.578 617.32 124.434 616.544 124.434 615.68C124.434 614.816 124.578 614.04 124.866 613.352C125.154 612.664 125.578 612.12 126.138 611.72C126.698 611.32 127.389 611.12 128.21 611.12C129.037 611.12 129.757 611.317 130.37 611.712C130.983 612.107 131.458 612.648 131.794 613.336C132.135 614.019 132.306 614.8 132.306 615.68C132.306 616.544 132.138 617.32 131.802 618.008C131.471 618.696 131.007 619.24 130.41 619.64C129.813 620.04 129.117 620.24 128.322 620.24ZM124.066 623.84V611.36H125.986V617.28H126.258V623.84H124.066ZM127.97 618.304C128.439 618.304 128.823 618.187 129.122 617.952C129.421 617.717 129.642 617.403 129.786 617.008C129.93 616.608 130.002 616.165 130.002 615.68C130.002 615.2 129.927 614.763 129.778 614.368C129.629 613.968 129.397 613.651 129.082 613.416C128.773 613.176 128.375 613.056 127.89 613.056C127.437 613.056 127.069 613.165 126.786 613.384C126.509 613.603 126.306 613.909 126.178 614.304C126.05 614.699 125.986 615.157 125.986 615.68C125.986 616.203 126.05 616.661 126.178 617.056C126.306 617.451 126.514 617.757 126.802 617.976C127.095 618.195 127.485 618.304 127.97 618.304ZM136.146 620.24C135.528 620.24 135.002 620.123 134.57 619.888C134.144 619.648 133.818 619.331 133.594 618.936C133.376 618.536 133.266 618.096 133.266 617.616C133.266 617.216 133.328 616.851 133.45 616.52C133.573 616.189 133.77 615.899 134.042 615.648C134.32 615.392 134.69 615.179 135.154 615.008C135.474 614.891 135.856 614.787 136.298 614.696C136.741 614.605 137.242 614.52 137.802 614.44C138.362 614.355 138.978 614.261 139.65 614.16L138.866 614.592C138.866 614.08 138.744 613.704 138.498 613.464C138.253 613.224 137.842 613.104 137.266 613.104C136.946 613.104 136.613 613.181 136.266 613.336C135.92 613.491 135.677 613.765 135.538 614.16L133.57 613.536C133.789 612.821 134.2 612.24 134.802 611.792C135.405 611.344 136.226 611.12 137.266 611.12C138.029 611.12 138.706 611.237 139.298 611.472C139.89 611.707 140.338 612.112 140.642 612.688C140.813 613.008 140.914 613.328 140.946 613.648C140.978 613.968 140.994 614.325 140.994 614.72V620H139.09V618.224L139.362 618.592C138.941 619.173 138.485 619.595 137.994 619.856C137.509 620.112 136.893 620.24 136.146 620.24ZM136.61 618.528C137.01 618.528 137.346 618.459 137.618 618.32C137.896 618.176 138.114 618.013 138.274 617.832C138.44 617.651 138.552 617.499 138.61 617.376C138.722 617.141 138.786 616.869 138.802 616.56C138.824 616.245 138.834 615.984 138.834 615.776L139.474 615.936C138.829 616.043 138.306 616.133 137.906 616.208C137.506 616.277 137.184 616.341 136.938 616.4C136.693 616.459 136.477 616.523 136.29 616.592C136.077 616.677 135.904 616.771 135.77 616.872C135.642 616.968 135.546 617.075 135.482 617.192C135.424 617.309 135.394 617.44 135.394 617.584C135.394 617.781 135.442 617.952 135.538 618.096C135.64 618.235 135.781 618.341 135.962 618.416C136.144 618.491 136.36 618.528 136.61 618.528ZM142.914 610.16V608.24H145.09V610.16H142.914ZM142.914 620V611.36H145.09V620H142.914ZM150.865 624.08C150.374 624.08 149.907 624 149.465 623.84C149.022 623.685 148.625 623.467 148.273 623.184C147.926 622.907 147.643 622.581 147.425 622.208L149.441 621.232C149.579 621.488 149.777 621.683 150.033 621.816C150.294 621.949 150.577 622.016 150.881 622.016C151.206 622.016 151.513 621.96 151.801 621.848C152.089 621.741 152.318 621.579 152.489 621.36C152.665 621.147 152.747 620.88 152.737 620.56V618.048H153.009V611.36H154.913V620.592C154.913 620.805 154.902 621.005 154.881 621.192C154.865 621.384 154.833 621.573 154.785 621.76C154.646 622.288 154.387 622.723 154.009 623.064C153.635 623.405 153.177 623.659 152.633 623.824C152.089 623.995 151.499 624.08 150.865 624.08ZM150.673 620.24C149.878 620.24 149.182 620.04 148.585 619.64C147.987 619.24 147.521 618.696 147.185 618.008C146.854 617.32 146.689 616.544 146.689 615.68C146.689 614.8 146.857 614.019 147.193 613.336C147.534 612.648 148.011 612.107 148.625 611.712C149.238 611.317 149.958 611.12 150.785 611.12C151.606 611.12 152.297 611.32 152.857 611.72C153.417 612.12 153.841 612.664 154.129 613.352C154.417 614.04 154.561 614.816 154.561 615.68C154.561 616.544 154.414 617.32 154.121 618.008C153.833 618.696 153.401 619.24 152.825 619.64C152.249 620.04 151.531 620.24 150.673 620.24ZM151.025 618.304C151.51 618.304 151.897 618.195 152.185 617.976C152.478 617.757 152.689 617.451 152.817 617.056C152.945 616.661 153.009 616.203 153.009 615.68C153.009 615.157 152.945 614.699 152.817 614.304C152.689 613.909 152.483 613.603 152.201 613.384C151.923 613.165 151.558 613.056 151.105 613.056C150.619 613.056 150.219 613.176 149.905 613.416C149.595 613.651 149.366 613.968 149.217 614.368C149.067 614.763 148.993 615.2 148.993 615.68C148.993 616.165 149.065 616.608 149.209 617.008C149.353 617.403 149.574 617.717 149.873 617.952C150.171 618.187 150.555 618.304 151.025 618.304ZM162.721 620V615.92C162.721 615.723 162.71 615.472 162.689 615.168C162.668 614.859 162.601 614.549 162.489 614.24C162.377 613.931 162.193 613.672 161.937 613.464C161.686 613.256 161.329 613.152 160.865 613.152C160.678 613.152 160.478 613.181 160.265 613.24C160.052 613.299 159.852 613.413 159.665 613.584C159.478 613.749 159.324 613.995 159.201 614.32C159.084 614.645 159.025 615.077 159.025 615.616L157.777 615.024C157.777 614.341 157.916 613.701 158.193 613.104C158.47 612.507 158.886 612.024 159.441 611.656C160.001 611.288 160.705 611.104 161.553 611.104C162.23 611.104 162.782 611.219 163.209 611.448C163.636 611.677 163.966 611.968 164.201 612.32C164.441 612.672 164.612 613.04 164.713 613.424C164.814 613.803 164.876 614.149 164.897 614.464C164.918 614.779 164.929 615.008 164.929 615.152V620H162.721ZM156.817 620V611.36H158.753V614.224H159.025V620H156.817ZM170.061 620.24C168.973 620.24 168.093 619.995 167.421 619.504C166.754 619.008 166.349 618.309 166.205 617.408L168.429 617.072C168.52 617.477 168.72 617.795 169.029 618.024C169.344 618.253 169.741 618.368 170.221 618.368C170.616 618.368 170.92 618.293 171.133 618.144C171.346 617.989 171.453 617.776 171.453 617.504C171.453 617.333 171.41 617.197 171.325 617.096C171.24 616.989 171.048 616.885 170.749 616.784C170.456 616.683 169.997 616.549 169.373 616.384C168.669 616.203 168.106 616 167.685 615.776C167.264 615.552 166.96 615.285 166.773 614.976C166.586 614.661 166.493 614.283 166.493 613.84C166.493 613.285 166.634 612.805 166.917 612.4C167.2 611.989 167.597 611.675 168.109 611.456C168.626 611.232 169.234 611.12 169.933 611.12C170.61 611.12 171.21 611.224 171.733 611.432C172.256 611.64 172.677 611.936 172.997 612.32C173.322 612.704 173.522 613.157 173.597 613.68L171.373 614.08C171.336 613.76 171.197 613.507 170.957 613.32C170.717 613.133 170.392 613.024 169.981 612.992C169.581 612.965 169.258 613.019 169.013 613.152C168.773 613.285 168.653 613.477 168.653 613.728C168.653 613.877 168.704 614.003 168.805 614.104C168.912 614.205 169.128 614.309 169.453 614.416C169.784 614.523 170.285 614.661 170.957 614.832C171.613 615.003 172.138 615.203 172.533 615.432C172.933 615.656 173.224 615.928 173.405 616.248C173.586 616.563 173.677 616.944 173.677 617.392C173.677 618.277 173.357 618.973 172.717 619.48C172.077 619.987 171.192 620.24 170.061 620.24ZM181.374 620.24C180.286 620.24 179.406 619.995 178.734 619.504C178.067 619.008 177.662 618.309 177.518 617.408L179.742 617.072C179.833 617.477 180.033 617.795 180.342 618.024C180.657 618.253 181.054 618.368 181.534 618.368C181.929 618.368 182.233 618.293 182.446 618.144C182.659 617.989 182.766 617.776 182.766 617.504C182.766 617.333 182.723 617.197 182.638 617.096C182.553 616.989 182.361 616.885 182.062 616.784C181.769 616.683 181.31 616.549 180.686 616.384C179.982 616.203 179.419 616 178.998 615.776C178.577 615.552 178.273 615.285 178.086 614.976C177.899 614.661 177.806 614.283 177.806 613.84C177.806 613.285 177.947 612.805 178.23 612.4C178.513 611.989 178.91 611.675 179.422 611.456C179.939 611.232 180.547 611.12 181.246 611.12C181.923 611.12 182.523 611.224 183.046 611.432C183.569 611.64 183.99 611.936 184.31 612.32C184.635 612.704 184.835 613.157 184.91 613.68L182.686 614.08C182.649 613.76 182.51 613.507 182.27 613.32C182.03 613.133 181.705 613.024 181.294 612.992C180.894 612.965 180.571 613.019 180.326 613.152C180.086 613.285 179.966 613.477 179.966 613.728C179.966 613.877 180.017 614.003 180.118 614.104C180.225 614.205 180.441 614.309 180.766 614.416C181.097 614.523 181.598 614.661 182.27 614.832C182.926 615.003 183.451 615.203 183.846 615.432C184.246 615.656 184.537 615.928 184.718 616.248C184.899 616.563 184.99 616.944 184.99 617.392C184.99 618.277 184.67 618.973 184.03 619.48C183.39 619.987 182.505 620.24 181.374 620.24ZM190.444 620.24C189.559 620.24 188.777 620.051 188.1 619.672C187.428 619.288 186.9 618.763 186.516 618.096C186.137 617.424 185.948 616.656 185.948 615.792C185.948 614.848 186.135 614.027 186.508 613.328C186.881 612.629 187.396 612.088 188.052 611.704C188.708 611.315 189.463 611.12 190.316 611.12C191.223 611.12 191.993 611.333 192.628 611.76C193.263 612.187 193.732 612.787 194.036 613.56C194.34 614.333 194.447 615.243 194.356 616.288H192.204V615.488C192.204 614.608 192.063 613.976 191.78 613.592C191.503 613.203 191.047 613.008 190.412 613.008C189.671 613.008 189.124 613.235 188.772 613.688C188.425 614.136 188.252 614.8 188.252 615.68C188.252 616.485 188.425 617.109 188.772 617.552C189.124 617.989 189.639 618.208 190.316 618.208C190.743 618.208 191.108 618.115 191.412 617.928C191.716 617.741 191.948 617.472 192.108 617.12L194.284 617.744C193.959 618.533 193.444 619.147 192.74 619.584C192.041 620.021 191.276 620.24 190.444 620.24ZM187.58 616.288V614.672H193.308V616.288H187.58ZM201.027 620C200.429 620.112 199.843 620.16 199.267 620.144C198.696 620.133 198.184 620.035 197.731 619.848C197.283 619.656 196.941 619.349 196.707 618.928C196.493 618.533 196.381 618.133 196.371 617.728C196.36 617.317 196.355 616.853 196.355 616.336V608.96H198.531V616.208C198.531 616.544 198.533 616.848 198.539 617.12C198.549 617.387 198.605 617.6 198.707 617.76C198.899 618.064 199.205 618.229 199.627 618.256C200.048 618.283 200.515 618.261 201.027 618.192V620ZM194.883 613.04V611.36H201.027V613.04H194.883ZM205.848 620.256C205.171 620.256 204.619 620.141 204.192 619.912C203.765 619.683 203.432 619.392 203.192 619.04C202.957 618.688 202.789 618.323 202.688 617.944C202.587 617.56 202.525 617.211 202.504 616.896C202.483 616.581 202.472 616.352 202.472 616.208V611.36H204.68V615.44C204.68 615.637 204.691 615.891 204.712 616.2C204.733 616.504 204.8 616.811 204.912 617.12C205.024 617.429 205.205 617.688 205.456 617.896C205.712 618.104 206.072 618.208 206.536 618.208C206.723 618.208 206.923 618.179 207.136 618.12C207.349 618.061 207.549 617.949 207.736 617.784C207.923 617.613 208.075 617.365 208.192 617.04C208.315 616.709 208.376 616.277 208.376 615.744L209.624 616.336C209.624 617.019 209.485 617.659 209.208 618.256C208.931 618.853 208.512 619.336 207.952 619.704C207.397 620.072 206.696 620.256 205.848 620.256ZM208.648 620V617.136H208.376V611.36H210.568V620H208.648ZM216.724 620.24C215.865 620.24 215.148 620.04 214.572 619.64C213.996 619.24 213.561 618.696 213.268 618.008C212.98 617.32 212.836 616.544 212.836 615.68C212.836 614.816 212.98 614.04 213.268 613.352C213.556 612.664 213.98 612.12 214.54 611.72C215.1 611.32 215.79 611.12 216.612 611.12C217.438 611.12 218.158 611.317 218.772 611.712C219.385 612.107 219.86 612.648 220.196 613.336C220.537 614.019 220.708 614.8 220.708 615.68C220.708 616.544 220.54 617.32 220.204 618.008C219.873 618.696 219.409 619.24 218.812 619.64C218.214 620.04 217.518 620.24 216.724 620.24ZM212.468 623.84V611.36H214.388V617.28H214.66V623.84H212.468ZM216.372 618.304C216.841 618.304 217.225 618.187 217.524 617.952C217.822 617.717 218.044 617.403 218.188 617.008C218.332 616.608 218.404 616.165 218.404 615.68C218.404 615.2 218.329 614.763 218.18 614.368C218.03 613.968 217.798 613.651 217.484 613.416C217.174 613.176 216.777 613.056 216.292 613.056C215.838 613.056 215.47 613.165 215.188 613.384C214.91 613.603 214.708 613.909 214.58 614.304C214.452 614.699 214.388 615.157 214.388 615.68C214.388 616.203 214.452 616.661 214.58 617.056C214.708 617.451 214.916 617.757 215.204 617.976C215.497 618.195 215.886 618.304 216.372 618.304Z" fill="#161616"/>
<path d="M40.908 96.432C36.636 96.432 33.252 95.16 30.756 92.616L33.528 88.728C35.592 90.888 38.136 91.968 41.16 91.968C42.48 91.968 43.5 91.716 44.22 91.212C44.964 90.684 45.336 90.048 45.336 89.304C45.336 88.656 44.988 88.116 44.292 87.684C43.62 87.252 42.768 86.94 41.736 86.748C40.728 86.556 39.624 86.28 38.424 85.92C37.224 85.56 36.108 85.152 35.076 84.696C34.068 84.24 33.216 83.52 32.52 82.536C31.848 81.552 31.512 80.352 31.512 78.936C31.512 76.872 32.34 75.144 33.996 73.752C35.652 72.336 37.86 71.628 40.62 71.628C44.436 71.628 47.556 72.744 49.98 74.976L47.136 78.72C45.24 76.968 42.912 76.092 40.152 76.092C39.072 76.092 38.232 76.308 37.632 76.74C37.032 77.172 36.732 77.76 36.732 78.504C36.732 79.08 37.068 79.572 37.74 79.98C38.436 80.364 39.288 80.652 40.296 80.844C41.328 81.036 42.432 81.324 43.608 81.708C44.808 82.068 45.912 82.488 46.92 82.968C47.952 83.424 48.804 84.156 49.476 85.164C50.172 86.148 50.52 87.336 50.52 88.728C50.52 91.032 49.692 92.892 48.036 94.308C46.404 95.724 44.028 96.432 40.908 96.432ZM60.9459 96.432C58.2579 96.432 56.0379 95.592 54.2859 93.912C52.5339 92.232 51.6579 90.024 51.6579 87.288C51.6579 84.72 52.4979 82.56 54.1779 80.808C55.8819 79.056 58.0419 78.18 60.6579 78.18C63.2499 78.18 65.3499 79.068 66.9579 80.844C68.5659 82.596 69.3699 84.9 69.3699 87.756V88.764H56.4459C56.5899 89.916 57.1059 90.876 57.9939 91.644C58.8819 92.412 60.0339 92.796 61.4499 92.796C62.2179 92.796 63.0459 92.64 63.9339 92.328C64.8459 92.016 65.5659 91.596 66.0939 91.068L68.1099 94.02C66.3579 95.628 63.9699 96.432 60.9459 96.432ZM64.9419 85.668C64.8699 84.684 64.4739 83.796 63.7539 83.004C63.0579 82.212 62.0259 81.816 60.6579 81.816C59.3619 81.816 58.3539 82.212 57.6339 83.004C56.9139 83.772 56.4939 84.66 56.3739 85.668H64.9419ZM77.4244 96.432C75.8164 96.432 74.5924 96.024 73.7524 95.208C72.9124 94.392 72.4924 93.216 72.4924 91.68V82.608H69.6124V78.612H72.4924V73.86H77.1004V78.612H80.6284V82.608H77.1004V90.456C77.1004 91.008 77.2444 91.464 77.5324 91.824C77.8204 92.184 78.2044 92.364 78.6844 92.364C79.4044 92.364 79.9324 92.196 80.2684 91.86L81.2404 95.316C80.4004 96.06 79.1284 96.432 77.4244 96.432ZM98.9844 96H94.4124V93.804C92.8524 95.556 90.8124 96.432 88.2924 96.432C86.4204 96.432 85.0164 95.952 84.0804 94.992C83.1444 94.032 82.6764 92.688 82.6764 90.96V78.612H87.2484V89.16C87.2484 91.296 88.3164 92.364 90.4524 92.364C92.0604 92.364 93.3804 91.704 94.4124 90.384V78.612H98.9844V96ZM112.38 96.432C110.196 96.432 108.408 95.544 107.016 93.768V102.624H102.444V78.612H107.016V80.808C108.384 79.056 110.172 78.18 112.38 78.18C114.66 78.18 116.508 78.996 117.924 80.628C119.364 82.236 120.084 84.456 120.084 87.288C120.084 90.12 119.364 92.352 117.924 93.984C116.508 95.616 114.66 96.432 112.38 96.432ZM110.94 92.364C112.26 92.364 113.316 91.896 114.108 90.96C114.924 90.024 115.332 88.8 115.332 87.288C115.332 85.8 114.924 84.588 114.108 83.652C113.316 82.716 112.26 82.248 110.94 82.248C110.196 82.248 109.452 82.44 108.708 82.824C107.964 83.208 107.4 83.676 107.016 84.228V90.384C107.4 90.936 107.964 91.404 108.708 91.788C109.476 92.172 110.22 92.364 110.94 92.364Z" fill="#161616"/>
<path opacity="0.2" d="M334 332C334 292.218 316.511 254.064 285.38 225.934C254.249 197.804 212.026 182 168 182C123.974 182 81.7513 197.804 50.6203 225.934C19.4892 254.064 2.00001 292.218 2 332" stroke="#161616" stroke-width="2" stroke-dasharray="6 4"/>
<circle cx="168" cy="181" r="43" fill="white"/>
<g clip-path="url(#clip0_270_1367)">
<path d="M160.369 176.738C162.23 176.738 163.738 175.23 163.738 173.369C163.738 171.508 162.23 170 160.369 170C158.508 170 157 171.508 157 173.369C157 175.23 158.508 176.738 160.369 176.738Z" fill="#A2A2A2"/>
<path d="M168.502 184.869C170.363 184.869 171.871 183.361 171.871 181.5C171.871 179.639 170.363 178.131 168.502 178.131C166.641 178.131 165.133 179.639 165.133 181.5C165.133 183.361 166.641 184.869 168.502 184.869Z" fill="#A2A2A2"/>
<path d="M176.631 193C178.492 193 180 191.492 180 189.631C180 187.77 178.492 186.262 176.631 186.262C174.77 186.262 173.262 187.77 173.262 189.631C173.262 191.492 174.77 193 176.631 193Z" fill="#A2A2A2"/>
<path d="M164.906 174.717C165.026 174.273 165.087 173.823 165.087 173.369C165.087 172.916 165.026 172.465 164.906 172.021H178.653C179.397 172.021 180.001 172.626 180.001 173.369C180.001 174.112 179.397 174.717 178.653 174.717H164.906Z" fill="#A2A2A2"/>
<path d="M163.783 181.5C163.783 181.029 163.874 180.582 164.003 180.152H158.348C157.604 180.152 157 180.757 157 181.5C157 182.243 157.604 182.848 158.348 182.848H164.003C163.874 182.418 163.783 181.971 163.783 181.5Z" fill="#A2A2A2"/>
<path d="M178.652 180.152H172.996C173.125 180.582 173.216 181.029 173.216 181.5C173.216 181.971 173.125 182.418 172.996 182.848H178.652C179.395 182.848 179.999 182.243 179.999 181.5C179.999 180.757 179.395 180.152 178.652 180.152Z" fill="#A2A2A2"/>
<path d="M158.348 190.979C157.604 190.979 157 190.374 157 189.631C157 188.888 157.604 188.283 158.348 188.283H172.094C171.975 188.727 171.914 189.177 171.914 189.631C171.914 190.084 171.975 190.535 172.094 190.979H158.348Z" fill="#A2A2A2"/>
</g>
<path opacity="0.4" d="M31.3598 37.996V22.484H34.2718V23.8H32.6758V36.68H34.2718V37.996H31.3598ZM41.2951 35.189C40.7958 35.189 40.3268 35.0957 39.8881 34.909C39.4495 34.7177 39.0691 34.447 38.7471 34.097C38.4298 33.747 38.1988 33.334 38.0541 32.858L39.4681 32.466C39.6035 32.9 39.8391 33.2337 40.1751 33.467C40.5111 33.6957 40.8845 33.8077 41.2951 33.803C41.6638 33.7983 41.9881 33.712 42.2681 33.544C42.5481 33.376 42.7675 33.1497 42.9261 32.865C43.0848 32.5757 43.1641 32.2443 43.1641 31.871C43.1641 31.311 42.9891 30.849 42.6391 30.485C42.2938 30.121 41.8411 29.939 41.2811 29.939C41.1225 29.939 40.9591 29.9623 40.7911 30.009C40.6278 30.0557 40.4738 30.1163 40.3291 30.191L39.6431 29.036L43.1991 25.893L43.3531 26.313H38.4531V24.92H44.5151V26.313L41.5611 29.155L41.5471 28.679C42.1818 28.679 42.7325 28.8213 43.1991 29.106C43.6658 29.386 44.0251 29.7687 44.2771 30.254C44.5338 30.7347 44.6621 31.2737 44.6621 31.871C44.6621 32.515 44.5105 33.0867 44.2071 33.586C43.9085 34.0853 43.5048 34.4773 42.9961 34.762C42.4921 35.0467 41.9251 35.189 41.2951 35.189ZM51.6406 37.996H48.7286V36.68H50.3246V23.8H48.7286V22.484H51.6406V37.996Z" fill="#161616"/>
<path opacity="0.4" d="M63.2645 35L60.3385 24.92H61.8715L63.9925 32.543L66.1135 24.927L67.6535 24.92L69.7745 32.543L71.8955 24.92H73.4355L70.5025 35H69.0465L66.8835 27.461L64.7205 35H63.2645ZM74.33 35V24.92H80.77V26.299H75.793V29.127H79.93V30.506H75.793V33.621H80.77V35H74.33ZM82.1711 35V24.92H88.6111V26.299H83.6341V29.127H87.7711V30.506H83.6341V33.621H88.6111V35H82.1711ZM90.0121 35V24.92H91.4751V29.624L95.6961 24.92H97.5161L93.0571 29.841L97.8451 35H95.9691L91.4751 30.184V35H90.0121Z" fill="#161616"/>
<g opacity="0.4">
<path fill-rule="evenodd" clip-rule="evenodd" d="M109.913 32.0265L110.496 32.6098C110.583 32.6967 110.702 32.7428 110.826 32.7376C110.948 32.7317 111.063 32.6746 111.142 32.5801L112.114 31.4134C112.268 31.2279 112.243 30.952 112.058 30.7974C111.872 30.6428 111.596 30.6679 111.442 30.8534L110.776 31.652L110.532 31.4076C110.361 31.2366 110.084 31.2366 109.913 31.4076C109.742 31.5785 109.742 31.8556 109.913 32.0265Z" fill="#161616"/>
<path fill-rule="evenodd" clip-rule="evenodd" d="M116.979 28.2417H105.021V34.5126C105.021 34.9378 105.19 35.3461 105.49 35.6471C105.791 35.9476 106.2 36.1167 106.625 36.1167H115.375C115.8 36.1167 116.209 35.9476 116.51 35.6471C116.81 35.3461 116.979 34.9378 116.979 34.5126V28.2417ZM111 28.8414C109.47 28.8414 108.229 30.0827 108.229 31.6122C108.229 33.1411 109.47 34.3831 111 34.3831C112.529 34.3831 113.771 33.1411 113.771 31.6122C113.771 30.0827 112.529 28.8414 111 28.8414ZM105.021 27.3667H116.979V26.3622C116.979 25.937 116.81 25.5286 116.51 25.2276C116.209 24.9272 115.8 24.7581 115.375 24.7581H114.062V26.2164C114.062 26.4579 113.866 26.6539 113.625 26.6539C113.383 26.6539 113.187 26.4579 113.187 26.2164V24.7581H108.812V26.2164C108.812 26.4579 108.616 26.6539 108.375 26.6539C108.133 26.6539 107.937 26.4579 107.937 26.2164V24.7581H106.625C106.2 24.7581 105.791 24.9272 105.49 25.2276C105.19 25.5286 105.021 25.937 105.021 26.3622V27.3667Z" fill="#161616"/>
<path fill-rule="evenodd" clip-rule="evenodd" d="M113.188 24.7581H114.062V24.3206C114.062 24.0791 113.866 23.8831 113.625 23.8831C113.383 23.8831 113.188 24.0791 113.188 24.3206V24.7581Z" fill="#161616"/>
<path fill-rule="evenodd" clip-rule="evenodd" d="M107.938 24.7581H108.812V24.3206C108.812 24.0791 108.616 23.8831 108.375 23.8831C108.133 23.8831 107.938 24.0791 107.938 24.3206V24.7581Z" fill="#161616"/>
</g>
<defs>
<linearGradient id="paint0_linear_270_1367" x1="76" y1="460" x2="28.4793" y2="429.035" gradientUnits="userSpaceOnUse">
<stop stop-color="#111215"/>
<stop offset="1" stop-color="#272B2E"/>
</linearGradient>
<linearGradient id="paint1_linear_270_1367" x1="76" y1="518" x2="28.4793" y2="487.035" gradientUnits="userSpaceOnUse">
<stop stop-color="#111215"/>
<stop offset="1" stop-color="#272B2E"/>
</linearGradient>
<linearGradient id="paint2_linear_270_1367" x1="76" y1="576" x2="28.4793" y2="545.035" gradientUnits="userSpaceOnUse">
<stop stop-color="#111215"/>
<stop offset="1" stop-color="#272B2E"/>
</linearGradient>
<linearGradient id="paint3_linear_270_1367" x1="76" y1="634" x2="28.4793" y2="603.035" gradientUnits="userSpaceOnUse">
<stop stop-color="#111215"/>
<stop offset="1" stop-color="#272B2E"/>
</linearGradient>
<clipPath id="clip0_270_1367">
<rect width="23" height="23" fill="white" transform="translate(157 170)"/>
</clipPath>
</defs>
</svg>
