<svg width="297" height="297" viewBox="0 0 297 297" fill="none" xmlns="http://www.w3.org/2000/svg">
<circle cx="148.5" cy="148.5" r="148" stroke="url(#paint0_radial_2_3288)" stroke-opacity="0.66"/>
<circle cx="148.5" cy="148.5" r="148" stroke="url(#paint1_radial_2_3288)" stroke-opacity="0.66"/>
<circle cx="148.5" cy="148.5" r="148" stroke="url(#paint2_radial_2_3288)"/>
<g clip-path="url(#clip0_2_3288)">
<path d="M131.716 166.234C131.716 166.234 156.273 166.355 164.378 173.13L160.144 174.642C160.144 174.642 148.652 166.476 128.631 167.988C129.659 167.081 131.716 166.234 131.716 166.234Z" fill="white"/>
<path d="M166.257 166.234C166.257 166.234 141.7 166.355 133.595 173.13L137.829 174.642C137.829 174.642 149.321 166.476 169.342 167.988C168.314 167.081 166.257 166.234 166.257 166.234Z" fill="white"/>
<path fill-rule="evenodd" clip-rule="evenodd" d="M111.031 81.6739C116.173 78.3471 121.495 73.3872 130.629 70C123.975 70.0605 113.451 74.2341 111.031 81.6739Z" fill="white"/>
<path fill-rule="evenodd" clip-rule="evenodd" d="M116.959 82.7031C115.87 83.187 115.084 83.4894 114.177 83.7314C112.483 84.1548 111.092 84.2758 109.64 84.7597C108.491 85.1226 107.523 85.7274 106.737 86.3928C106.011 86.9977 105.467 87.6025 105.043 88.2074C104.197 89.4171 103.471 91.3527 103.471 92.8044C104.136 92.139 104.741 91.5946 105.406 91.1107C106.435 90.3849 107.402 89.8405 108.431 89.4171C109.217 89.1147 109.882 88.8123 110.548 88.4493C113.39 86.9977 115.024 84.9411 116.959 82.7031Z" fill="white"/>
<path fill-rule="evenodd" clip-rule="evenodd" d="M103.41 92.8646C103.41 90.7475 105.346 87.1788 106.495 85.7876C107.281 84.8199 107.886 83.7311 108.431 82.5819C109.398 80.5858 110.245 78.2873 110.487 76.5332C109.277 77.259 108.007 78.0454 106.676 79.0736C103.773 81.4326 102.14 83.973 102.563 87.4208C102.684 88.812 102.684 91.7153 103.41 92.8646Z" fill="white"/>
<path fill-rule="evenodd" clip-rule="evenodd" d="M108.552 93.2266C107.584 93.8919 106.858 94.3153 106.072 94.6782C104.499 95.3436 103.169 95.7065 101.898 96.4323C100.87 96.9767 100.084 97.7026 99.4184 98.5494C98.8135 99.2752 98.4506 99.9406 98.1482 100.606C97.6038 101.937 97.3014 103.993 97.6643 105.384C98.1482 104.598 98.6321 103.993 99.1764 103.388C99.9628 102.481 100.81 101.816 101.777 101.211C102.443 100.787 103.048 100.364 103.652 99.9406C106.011 98.0655 107.161 95.7065 108.552 93.2266Z" fill="white"/>
<path fill-rule="evenodd" clip-rule="evenodd" d="M97.6068 105.446C97.1229 103.389 98.2116 99.5181 99.0584 98.006C99.6028 96.9172 99.9657 95.768 100.208 94.5582C100.692 92.4412 100.994 90.0822 100.873 88.3281C99.8448 89.2959 98.8165 90.2032 97.6672 91.4734C95.3688 94.2558 94.3405 97.0382 95.4897 100.365C95.9131 101.635 96.639 104.418 97.6068 105.446Z" fill="white"/>
<path fill-rule="evenodd" clip-rule="evenodd" d="M103.53 103.752C102.743 104.72 102.138 105.385 101.413 105.99C100.021 107.139 98.6906 107.865 97.6019 108.954C96.6946 109.861 96.1502 110.829 95.7268 111.857C95.3639 112.825 95.1824 113.611 95.1219 114.398C95.0009 115.97 95.4848 118.208 96.3316 119.66C96.5736 118.692 96.876 117.906 97.1785 117.119C97.7228 115.97 98.3882 115.002 99.1745 114.095C99.7189 113.43 100.263 112.825 100.687 112.22C102.622 109.559 102.985 106.776 103.53 103.752Z" fill="white"/>
<path fill-rule="evenodd" clip-rule="evenodd" d="M96.3304 119.721C95.0602 117.665 94.8183 113.249 95.1207 111.435C95.3022 110.104 95.2417 108.773 95.1207 107.442C94.8788 105.023 94.2739 102.422 93.4876 100.607C92.7617 101.878 91.9754 103.148 91.2496 104.781C89.7979 108.41 89.7374 111.616 92.2174 114.822C93.1851 116.092 94.9393 118.874 96.3304 119.721Z" fill="white"/>
<path fill-rule="evenodd" clip-rule="evenodd" d="M101.172 116.15C100.628 117.239 100.204 118.025 99.5996 118.751C98.5109 120.142 97.3616 121.11 96.5148 122.441C95.8495 123.53 95.4865 124.558 95.3656 125.707C95.2446 126.736 95.2446 127.582 95.426 128.369C95.7285 130.002 96.6963 132.119 97.9665 133.389C97.9665 132.361 98.027 131.514 98.2084 130.667C98.4504 129.397 98.8738 128.369 99.4182 127.28C99.8416 126.494 100.144 125.828 100.446 125.102C101.717 122.139 101.354 119.296 101.172 116.15Z" fill="white"/>
<path fill-rule="evenodd" clip-rule="evenodd" d="M97.967 133.45C96.1524 131.636 94.8217 127.281 94.7007 125.345C94.5798 124.014 94.1563 122.684 93.6725 121.353C92.8256 118.994 91.6159 116.514 90.3457 114.82C89.9223 116.272 89.4384 117.663 89.136 119.417C88.6521 123.349 89.3779 126.555 92.6442 129.337C93.9144 130.426 96.3943 132.845 97.967 133.45Z" fill="white"/>
<path fill-rule="evenodd" clip-rule="evenodd" d="M101.417 128.008C101.296 129.278 101.115 130.185 100.812 131.153C100.207 132.907 99.4209 134.238 98.9975 135.811C98.6951 137.081 98.7556 138.291 99.058 139.5C99.3 140.589 99.6629 141.436 100.086 142.222C100.994 143.795 102.808 145.73 104.562 146.698C104.199 145.609 103.957 144.763 103.776 143.855C103.534 142.464 103.594 141.254 103.776 140.045C103.897 139.137 104.018 138.351 104.018 137.565C104.26 133.996 102.808 131.153 101.417 128.008Z" fill="white"/>
<path fill-rule="evenodd" clip-rule="evenodd" d="M104.623 146.698C102.082 145.307 99.0581 141.194 98.2113 139.258C97.6065 137.927 96.6387 136.657 95.6709 135.447C93.9168 133.27 91.7393 131.032 89.8037 129.641C89.8642 131.213 89.9852 132.786 90.2876 134.721C91.1949 138.835 93.1305 141.98 97.546 143.915C99.3001 144.641 102.748 146.516 104.623 146.698Z" fill="white"/>
<path fill-rule="evenodd" clip-rule="evenodd" d="M106.193 139.803C106.556 141.194 106.737 142.222 106.797 143.311C106.858 145.367 106.495 147.001 106.737 148.815C106.918 150.267 107.463 151.537 108.249 152.686C108.975 153.775 109.64 154.561 110.427 155.287C112.06 156.678 114.782 158.251 117.02 158.735C116.173 157.707 115.568 156.86 115.084 155.953C114.298 154.561 113.874 153.231 113.572 151.9C113.33 150.872 113.088 150.025 112.846 149.178C111.576 145.367 108.915 142.767 106.193 139.803Z" fill="white"/>
<path fill-rule="evenodd" clip-rule="evenodd" d="M117.08 158.795C113.814 158.069 108.975 154.561 107.281 152.807C106.071 151.536 104.62 150.508 103.047 149.48C100.325 147.665 97.0589 145.911 94.458 145.004C95.1838 146.698 95.9097 148.331 96.9984 150.266C99.5994 154.379 102.926 157.162 108.43 157.948C110.547 158.19 115.023 159.158 117.08 158.795Z" fill="white"/>
<path fill-rule="evenodd" clip-rule="evenodd" d="M116.114 150.871C117.142 152.141 117.747 153.109 118.231 154.198C119.138 156.254 119.562 157.948 120.59 159.702C121.437 161.093 122.586 162.182 123.917 163.15C125.127 163.997 126.215 164.602 127.365 165.085C129.663 165.993 133.232 166.719 135.772 166.537C134.442 165.751 133.413 165.085 132.506 164.299C131.054 163.15 130.026 162.001 129.119 160.67C128.453 159.763 127.788 158.916 127.123 158.129C124.219 154.803 120.288 152.988 116.114 150.871Z" fill="white"/>
<path fill-rule="evenodd" clip-rule="evenodd" d="M135.89 166.538C132.14 166.78 125.486 164.784 122.946 163.514C121.131 162.606 119.135 162.001 117.018 161.457C113.329 160.489 109.155 159.703 106.01 159.582C107.522 161.034 108.974 162.485 110.97 164.058C115.506 167.385 120.224 169.139 126.394 168.232C128.753 167.929 133.834 167.566 135.89 166.538Z" fill="white"/>
<path fill-rule="evenodd" clip-rule="evenodd" d="M186.951 81.6739C181.81 78.4076 176.426 73.3872 167.353 70C174.007 70.0605 184.531 74.2341 186.951 81.6739Z" fill="white"/>
<path fill-rule="evenodd" clip-rule="evenodd" d="M181.018 82.7031C182.107 83.187 182.893 83.4894 183.801 83.7314C185.494 84.1548 186.886 84.2758 188.337 84.7597C189.487 85.1226 190.454 85.7274 191.241 86.3928C191.966 86.9977 192.511 87.6025 192.934 88.2074C193.781 89.4171 194.507 91.3527 194.507 92.8044C193.842 92.139 193.237 91.5946 192.571 91.1107C191.543 90.3849 190.575 89.8405 189.487 89.4171C188.7 89.1147 188.035 88.8123 187.369 88.4493C184.587 86.9977 182.954 84.9411 181.018 82.7031Z" fill="white"/>
<path fill-rule="evenodd" clip-rule="evenodd" d="M194.569 92.8646C194.569 90.7475 192.633 87.1788 191.484 85.7876C190.698 84.8199 190.093 83.7311 189.549 82.5819C188.581 80.5858 187.734 78.2873 187.492 76.5332C188.702 77.259 189.972 78.0454 191.303 79.0736C194.206 81.4326 195.839 83.973 195.416 87.4208C195.295 88.812 195.295 91.7153 194.569 92.8646Z" fill="white"/>
<path fill-rule="evenodd" clip-rule="evenodd" d="M189.437 93.2266C190.404 93.8919 191.13 94.3153 191.916 94.6782C193.489 95.3436 194.82 95.7065 196.09 96.4323C197.118 96.9767 197.905 97.7026 198.57 98.5494C199.175 99.2752 199.538 99.9406 199.84 100.606C200.385 101.937 200.687 103.993 200.324 105.384C199.84 104.598 199.356 103.993 198.812 103.388C198.026 102.481 197.179 101.816 196.211 101.211C195.546 100.787 194.941 100.364 194.336 99.9406C191.977 98.0655 190.828 95.7065 189.437 93.2266Z" fill="white"/>
<path fill-rule="evenodd" clip-rule="evenodd" d="M200.386 105.446C200.87 103.389 199.781 99.5181 198.934 98.006C198.39 96.9172 198.027 95.768 197.785 94.5582C197.301 92.4412 196.999 90.0822 197.12 88.3281C198.148 89.2959 199.176 90.2032 200.325 91.4734C202.624 94.2558 203.652 97.0382 202.503 100.365C202.079 101.635 201.354 104.418 200.386 105.446Z" fill="white"/>
<path fill-rule="evenodd" clip-rule="evenodd" d="M194.448 103.752C195.235 104.72 195.839 105.385 196.565 105.99C197.956 107.139 199.287 107.865 200.376 108.954C201.283 109.861 201.828 110.829 202.251 111.857C202.614 112.825 202.795 113.611 202.856 114.398C202.977 115.97 202.493 118.208 201.646 119.66C201.404 118.692 201.102 117.906 200.799 117.119C200.255 115.97 199.59 115.002 198.803 114.095C198.259 113.43 197.715 112.825 197.291 112.22C195.356 109.559 194.993 106.776 194.448 103.752Z" fill="white"/>
<path fill-rule="evenodd" clip-rule="evenodd" d="M201.646 119.721C202.917 117.665 203.158 113.249 202.856 111.435C202.675 110.104 202.735 108.773 202.856 107.442C203.098 105.023 203.703 102.422 204.489 100.607C205.215 101.878 206.001 103.148 206.727 104.781C208.179 108.41 208.239 111.616 205.759 114.822C204.792 116.092 203.037 118.874 201.646 119.721Z" fill="white"/>
<path fill-rule="evenodd" clip-rule="evenodd" d="M196.813 116.15C197.357 117.239 197.78 118.025 198.385 118.751C199.474 120.142 200.623 121.11 201.47 122.441C202.135 123.53 202.498 124.558 202.619 125.707C202.74 126.736 202.74 127.582 202.559 128.369C202.256 130.002 201.289 132.119 200.018 133.389C200.018 132.361 199.958 131.514 199.776 130.667C199.534 129.397 199.111 128.369 198.567 127.28C198.143 126.494 197.841 125.828 197.538 125.102C196.268 122.139 196.631 119.296 196.813 116.15Z" fill="white"/>
<path fill-rule="evenodd" clip-rule="evenodd" d="M200.018 133.45C201.832 131.636 203.163 127.281 203.284 125.345C203.405 124.014 203.828 122.684 204.312 121.353C205.159 118.994 206.369 116.514 207.639 114.82C208.062 116.272 208.546 117.663 208.849 119.417C209.393 123.288 208.667 126.494 205.34 129.277C204.07 130.426 201.59 132.845 200.018 133.45Z" fill="white"/>
<path fill-rule="evenodd" clip-rule="evenodd" d="M196.579 128.008C196.7 129.278 196.881 130.185 197.184 131.153C197.789 132.907 198.575 134.238 198.998 135.811C199.301 137.081 199.24 138.291 198.938 139.5C198.696 140.589 198.333 141.436 197.91 142.222C197.002 143.795 195.188 145.73 193.434 146.698C193.797 145.609 194.038 144.763 194.22 143.855C194.462 142.464 194.401 141.254 194.22 140.045C194.099 139.137 193.978 138.351 193.978 137.565C193.736 133.996 195.188 131.153 196.579 128.008Z" fill="white"/>
<path fill-rule="evenodd" clip-rule="evenodd" d="M193.371 146.698C195.912 145.307 198.936 141.194 199.783 139.258C200.388 137.927 201.355 136.657 202.323 135.447C204.077 133.27 206.255 131.032 208.19 129.641C208.13 131.213 208.009 132.786 207.706 134.721C206.799 138.835 204.864 141.98 200.448 143.915C198.694 144.641 195.246 146.516 193.371 146.698Z" fill="white"/>
<path fill-rule="evenodd" clip-rule="evenodd" d="M191.794 139.803C191.431 141.194 191.249 142.222 191.189 143.311C191.129 145.367 191.491 147.001 191.25 148.815C191.068 150.267 190.524 151.537 189.737 152.686C189.012 153.775 188.346 154.561 187.56 155.287C185.927 156.678 183.205 158.251 180.967 158.735C181.814 157.707 182.418 156.86 182.902 155.953C183.689 154.561 184.112 153.231 184.415 151.9C184.656 150.872 184.898 150.025 185.14 149.178C186.411 145.367 189.072 142.767 191.794 139.803Z" fill="white"/>
<path fill-rule="evenodd" clip-rule="evenodd" d="M180.904 158.795C184.171 158.069 189.009 154.561 190.703 152.807C191.913 151.536 193.365 150.508 194.937 149.48C197.659 147.665 200.925 145.911 203.526 145.004C202.8 146.698 202.075 148.331 200.986 150.266C198.385 154.379 195.058 157.162 189.554 157.948C187.437 158.19 182.961 159.158 180.904 158.795Z" fill="white"/>
<path fill-rule="evenodd" clip-rule="evenodd" d="M181.877 150.871C180.849 152.141 180.244 153.109 179.76 154.198C178.853 156.254 178.429 157.948 177.401 159.702C176.554 161.093 175.405 162.182 174.074 163.15C172.864 163.997 171.776 164.602 170.626 165.085C168.328 165.993 164.759 166.719 162.219 166.537C163.549 165.751 164.578 165.085 165.485 164.299C166.937 163.15 167.965 162.001 168.872 160.67C169.538 159.763 170.203 158.916 170.868 158.129C173.772 154.803 177.703 152.988 181.877 150.871Z" fill="white"/>
<path fill-rule="evenodd" clip-rule="evenodd" d="M162.094 166.538C165.844 166.78 172.497 164.784 175.038 163.514C176.852 162.606 178.849 162.001 180.966 161.457C184.655 160.489 188.829 159.703 191.974 159.582C190.462 161.034 189.01 162.485 187.014 164.058C182.478 167.385 177.76 169.139 171.59 168.232C169.231 167.929 164.15 167.566 162.094 166.538Z" fill="white"/>
<path d="M129 105.173V128.7C129 129.746 129.515 130.725 130.378 131.316L147.075 142.776C148.151 143.515 149.569 143.519 150.649 142.788L167.605 131.315C168.477 130.724 169 129.74 169 128.687V105.173C169 103.421 167.579 102 165.827 102H132.173C130.421 102 129 103.421 129 105.173Z" fill="white"/>
<path d="M158.447 122.95C158.31 123.393 157.9 123.696 157.436 123.696H140.841C140.377 123.696 139.967 123.393 139.83 122.95L137.847 116.535C137.59 115.703 138.393 114.934 139.213 115.226L142.777 116.497C143.191 116.644 143.653 116.52 143.938 116.185L148.333 111.015C148.755 110.518 149.522 110.518 149.945 111.015L154.339 116.185C154.624 116.52 155.086 116.644 155.5 116.497L159.064 115.226C159.884 114.934 160.687 115.703 160.43 116.535L158.447 122.95Z" fill="#010C07"/>
<path d="M140.061 126.978C140.061 126.394 140.534 125.921 141.118 125.921H157.159C157.743 125.921 158.217 126.394 158.217 126.978V127.088C158.217 127.672 157.743 128.146 157.159 128.146H141.118C140.534 128.146 140.061 127.672 140.061 127.088V126.978Z" fill="#010C07"/>
</g>
<path d="M116.533 207H114.427V196.848H110.791V194.994H120.169V196.848H116.533V207ZM123.565 207.216C122.221 207.216 121.141 206.778 120.325 205.902C119.509 205.014 119.101 203.928 119.101 202.644C119.101 201.36 119.509 200.28 120.325 199.404C121.141 198.528 122.221 198.09 123.565 198.09C124.921 198.09 126.007 198.528 126.823 199.404C127.639 200.28 128.047 201.36 128.047 202.644C128.047 203.94 127.639 205.026 126.823 205.902C126.007 206.778 124.921 207.216 123.565 207.216ZM123.565 205.542C124.345 205.542 124.957 205.266 125.401 204.714C125.857 204.15 126.085 203.46 126.085 202.644C126.085 201.84 125.857 201.162 125.401 200.61C124.957 200.046 124.345 199.764 123.565 199.764C122.797 199.764 122.185 200.046 121.729 200.61C121.285 201.162 121.063 201.84 121.063 202.644C121.063 203.46 121.285 204.15 121.729 204.714C122.185 205.266 122.797 205.542 123.565 205.542ZM134.28 207.216C133.128 207.216 132.198 206.742 131.49 205.794V210.312H129.6V198.306H131.49V199.494C132.186 198.558 133.116 198.09 134.28 198.09C135.42 198.09 136.344 198.498 137.052 199.314C137.772 200.13 138.132 201.24 138.132 202.644C138.132 204.048 137.772 205.164 137.052 205.992C136.344 206.808 135.42 207.216 134.28 207.216ZM133.722 205.542C134.466 205.542 135.06 205.272 135.504 204.732C135.948 204.192 136.17 203.496 136.17 202.644C136.17 201.792 135.948 201.102 135.504 200.574C135.06 200.034 134.466 199.764 133.722 199.764C133.29 199.764 132.864 199.878 132.444 200.106C132.024 200.334 131.706 200.61 131.49 200.934V204.372C131.706 204.696 132.024 204.972 132.444 205.2C132.864 205.428 133.29 205.542 133.722 205.542ZM153.251 207H150.821L148.157 202.518H146.069V207H143.963V194.994H149.237C150.413 194.994 151.361 195.342 152.081 196.038C152.801 196.734 153.161 197.64 153.161 198.756C153.161 199.764 152.885 200.574 152.333 201.186C151.781 201.786 151.109 202.152 150.317 202.284L153.251 207ZM148.949 200.664C149.549 200.664 150.041 200.49 150.425 200.142C150.809 199.794 151.001 199.332 151.001 198.756C151.001 198.18 150.809 197.718 150.425 197.37C150.041 197.022 149.549 196.848 148.949 196.848H146.069V200.664H148.949ZM161.7 207H159.81V206.064C159.138 206.832 158.202 207.216 157.002 207.216C156.21 207.216 155.508 206.964 154.896 206.46C154.284 205.944 153.978 205.236 153.978 204.336C153.978 203.412 154.278 202.71 154.878 202.23C155.49 201.75 156.198 201.51 157.002 201.51C158.238 201.51 159.174 201.882 159.81 202.626V201.33C159.81 200.826 159.624 200.43 159.252 200.142C158.88 199.854 158.388 199.71 157.776 199.71C156.804 199.71 155.946 200.076 155.202 200.808L154.428 199.494C155.412 198.558 156.63 198.09 158.082 198.09C159.15 198.09 160.02 198.342 160.692 198.846C161.364 199.35 161.7 200.148 161.7 201.24V207ZM157.74 205.92C158.688 205.92 159.378 205.62 159.81 205.02V203.706C159.378 203.106 158.688 202.806 157.74 202.806C157.2 202.806 156.756 202.95 156.408 203.238C156.06 203.526 155.886 203.904 155.886 204.372C155.886 204.84 156.06 205.218 156.408 205.506C156.756 205.782 157.2 205.92 157.74 205.92ZM166.4 207.216C165.668 207.216 165.11 207.024 164.726 206.64C164.354 206.256 164.168 205.704 164.168 204.984V199.962H162.728V198.306H164.168V195.93H166.058V198.306H167.822V199.962H166.058V204.516C166.058 204.828 166.13 205.08 166.274 205.272C166.418 205.452 166.622 205.542 166.886 205.542C167.27 205.542 167.552 205.44 167.732 205.236L168.182 206.658C167.786 207.03 167.192 207.216 166.4 207.216ZM173.192 207.216C171.872 207.216 170.78 206.796 169.916 205.956C169.064 205.104 168.638 204 168.638 202.644C168.638 201.372 169.052 200.298 169.88 199.422C170.72 198.534 171.776 198.09 173.048 198.09C174.332 198.09 175.364 198.534 176.144 199.422C176.936 200.31 177.332 201.444 177.332 202.824V203.274H170.618C170.69 203.958 170.972 204.528 171.464 204.984C171.956 205.44 172.598 205.668 173.39 205.668C173.834 205.668 174.278 205.584 174.722 205.416C175.178 205.248 175.556 205.014 175.856 204.714L176.72 205.956C175.844 206.796 174.668 207.216 173.192 207.216ZM175.496 201.942C175.472 201.342 175.25 200.808 174.83 200.34C174.422 199.872 173.828 199.638 173.048 199.638C172.304 199.638 171.722 199.872 171.302 200.34C170.882 200.796 170.648 201.33 170.6 201.942H175.496ZM186.848 207H184.958V205.812C184.238 206.748 183.308 207.216 182.168 207.216C181.028 207.216 180.098 206.808 179.378 205.992C178.658 205.176 178.298 204.066 178.298 202.662C178.298 201.27 178.658 200.16 179.378 199.332C180.098 198.504 181.028 198.09 182.168 198.09C183.308 198.09 184.238 198.564 184.958 199.512V194.994H186.848V207ZM182.708 205.542C183.152 205.542 183.584 205.434 184.004 205.218C184.424 205.002 184.742 204.726 184.958 204.39V200.934C184.742 200.598 184.424 200.322 184.004 200.106C183.584 199.878 183.152 199.764 182.708 199.764C181.964 199.764 181.37 200.034 180.926 200.574C180.482 201.114 180.26 201.81 180.26 202.662C180.26 203.514 180.482 204.21 180.926 204.75C181.37 205.278 181.964 205.542 182.708 205.542ZM135.926 232H133.82V219.994H139.094C140.306 219.994 141.26 220.354 141.956 221.074C142.664 221.794 143.018 222.688 143.018 223.756C143.018 224.812 142.664 225.706 141.956 226.438C141.26 227.158 140.306 227.518 139.094 227.518H135.926V232ZM138.806 225.664C139.406 225.664 139.898 225.49 140.282 225.142C140.666 224.794 140.858 224.332 140.858 223.756C140.858 223.18 140.666 222.718 140.282 222.37C139.898 222.022 139.406 221.848 138.806 221.848H135.926V225.664H138.806ZM146.247 232H144.357V219.994H146.247V232ZM156.097 232H154.207V230.848C153.391 231.76 152.365 232.216 151.129 232.216C149.269 232.216 148.339 231.298 148.339 229.462V223.306H150.229V228.778C150.229 229.414 150.379 229.87 150.679 230.146C150.979 230.41 151.411 230.542 151.975 230.542C152.431 230.542 152.857 230.434 153.253 230.218C153.649 230.002 153.967 229.732 154.207 229.408V223.306H156.097V232ZM161.162 232.216C159.602 232.216 158.36 231.766 157.436 230.866L158.3 229.498C158.624 229.834 159.062 230.122 159.614 230.362C160.166 230.602 160.712 230.722 161.252 230.722C161.804 230.722 162.224 230.614 162.512 230.398C162.812 230.182 162.962 229.9 162.962 229.552C162.962 229.24 162.782 229 162.422 228.832C162.062 228.652 161.624 228.514 161.108 228.418C160.592 228.31 160.076 228.184 159.56 228.04C159.044 227.884 158.606 227.614 158.246 227.23C157.886 226.846 157.706 226.348 157.706 225.736C157.706 224.992 158.012 224.368 158.624 223.864C159.236 223.348 160.07 223.09 161.126 223.09C162.458 223.09 163.586 223.498 164.51 224.314L163.718 225.646C163.442 225.334 163.076 225.082 162.62 224.89C162.164 224.698 161.672 224.602 161.144 224.602C160.652 224.602 160.256 224.704 159.956 224.908C159.668 225.1 159.524 225.352 159.524 225.664C159.524 225.904 159.65 226.102 159.902 226.258C160.166 226.402 160.49 226.51 160.874 226.582C161.27 226.654 161.696 226.756 162.152 226.888C162.608 227.008 163.028 227.152 163.412 227.32C163.808 227.488 164.132 227.764 164.384 228.148C164.648 228.52 164.78 228.976 164.78 229.516C164.78 230.308 164.462 230.956 163.826 231.46C163.19 231.964 162.302 232.216 161.162 232.216Z" fill="white"/>
<defs>
<radialGradient id="paint0_radial_2_3288" cx="0" cy="0" r="1" gradientUnits="userSpaceOnUse" gradientTransform="translate(361.752 701.481) rotate(-117.321) scale(874.695 425.086)">
<stop stop-color="white"/>
<stop offset="1" stop-color="white" stop-opacity="0"/>
</radialGradient>
<radialGradient id="paint1_radial_2_3288" cx="0" cy="0" r="1" gradientUnits="userSpaceOnUse" gradientTransform="translate(-56.7561 -227.353) rotate(54.1092) scale(652.043 336.094)">
<stop stop-color="white"/>
<stop offset="1" stop-color="white" stop-opacity="0"/>
</radialGradient>
<radialGradient id="paint2_radial_2_3288" cx="0" cy="0" r="1" gradientUnits="userSpaceOnUse" gradientTransform="translate(148.5 140.409) rotate(134.427) scale(230.943 172.559)">
<stop stop-color="white"/>
<stop offset="1" stop-color="#151515" stop-opacity="0"/>
</radialGradient>
<clipPath id="clip0_2_3288">
<rect width="120" height="120" fill="white" transform="translate(89 63)"/>
</clipPath>
</defs>
</svg>
