<svg width="297" height="297" viewBox="0 0 297 297" fill="none" xmlns="http://www.w3.org/2000/svg">
<circle cx="148.5" cy="148.5" r="148" stroke="url(#paint0_radial_2_3293)" stroke-opacity="0.66"/>
<circle cx="148.5" cy="148.5" r="148" stroke="url(#paint1_radial_2_3293)" stroke-opacity="0.66"/>
<circle cx="148.5" cy="148.5" r="148" stroke="url(#paint2_radial_2_3293)"/>
<g clip-path="url(#clip0_2_3293)">
<path d="M131.216 166.234C131.216 166.234 155.773 166.355 163.878 173.13L159.644 174.642C159.644 174.642 148.152 166.476 128.131 167.988C129.159 167.081 131.216 166.234 131.216 166.234Z" fill="white"/>
<path d="M165.757 166.234C165.757 166.234 141.2 166.355 133.095 173.13L137.329 174.642C137.329 174.642 148.821 166.476 168.842 167.988C167.814 167.081 165.757 166.234 165.757 166.234Z" fill="white"/>
<path fill-rule="evenodd" clip-rule="evenodd" d="M110.531 81.6739C115.673 78.3471 120.995 73.3872 130.129 70C123.475 70.0605 112.951 74.2341 110.531 81.6739Z" fill="white"/>
<path fill-rule="evenodd" clip-rule="evenodd" d="M116.459 82.7031C115.37 83.187 114.584 83.4894 113.677 83.7314C111.983 84.1548 110.592 84.2758 109.14 84.7597C107.991 85.1226 107.023 85.7274 106.237 86.3928C105.511 86.9977 104.967 87.6025 104.543 88.2074C103.697 89.4171 102.971 91.3527 102.971 92.8044C103.636 92.139 104.241 91.5946 104.906 91.1107C105.935 90.3849 106.902 89.8405 107.931 89.4171C108.717 89.1147 109.382 88.8123 110.048 88.4493C112.89 86.9977 114.524 84.9411 116.459 82.7031Z" fill="white"/>
<path fill-rule="evenodd" clip-rule="evenodd" d="M102.91 92.8646C102.91 90.7475 104.846 87.1788 105.995 85.7876C106.781 84.8199 107.386 83.7311 107.931 82.5819C108.898 80.5858 109.745 78.2873 109.987 76.5332C108.777 77.259 107.507 78.0454 106.176 79.0736C103.273 81.4326 101.64 83.973 102.063 87.4208C102.184 88.812 102.184 91.7153 102.91 92.8646Z" fill="white"/>
<path fill-rule="evenodd" clip-rule="evenodd" d="M108.052 93.2266C107.084 93.8919 106.358 94.3153 105.572 94.6782C103.999 95.3436 102.669 95.7065 101.398 96.4323C100.37 96.9767 99.5837 97.7026 98.9184 98.5494C98.3135 99.2752 97.9506 99.9406 97.6482 100.606C97.1038 101.937 96.8014 103.993 97.1643 105.384C97.6482 104.598 98.1321 103.993 98.6764 103.388C99.4628 102.481 100.31 101.816 101.277 101.211C101.943 100.787 102.548 100.364 103.152 99.9406C105.511 98.0655 106.661 95.7065 108.052 93.2266Z" fill="white"/>
<path fill-rule="evenodd" clip-rule="evenodd" d="M97.1068 105.446C96.6229 103.389 97.7116 99.5181 98.5584 98.006C99.1028 96.9172 99.4657 95.768 99.7077 94.5582C100.192 92.4412 100.494 90.0822 100.373 88.3281C99.3448 89.2959 98.3165 90.2032 97.1672 91.4734C94.8688 94.2558 93.8405 97.0382 94.9897 100.365C95.4131 101.635 96.139 104.418 97.1068 105.446Z" fill="white"/>
<path fill-rule="evenodd" clip-rule="evenodd" d="M103.03 103.752C102.243 104.72 101.638 105.385 100.913 105.99C99.5213 107.139 98.1906 107.865 97.1019 108.954C96.1946 109.861 95.6502 110.829 95.2268 111.857C94.8639 112.825 94.6824 113.611 94.6219 114.398C94.5009 115.97 94.9848 118.208 95.8316 119.66C96.0736 118.692 96.376 117.906 96.6785 117.119C97.2228 115.97 97.8882 115.002 98.6745 114.095C99.2189 113.43 99.7633 112.825 100.187 112.22C102.122 109.559 102.485 106.776 103.03 103.752Z" fill="white"/>
<path fill-rule="evenodd" clip-rule="evenodd" d="M95.8304 119.721C94.5602 117.665 94.3183 113.249 94.6207 111.435C94.8022 110.104 94.7417 108.773 94.6207 107.442C94.3788 105.023 93.7739 102.422 92.9876 100.607C92.2617 101.878 91.4754 103.148 90.7496 104.781C89.2979 108.41 89.2374 111.616 91.7174 114.822C92.6851 116.092 94.4393 118.874 95.8304 119.721Z" fill="white"/>
<path fill-rule="evenodd" clip-rule="evenodd" d="M100.672 116.15C100.128 117.239 99.7045 118.025 99.0996 118.751C98.0109 120.142 96.8616 121.11 96.0148 122.441C95.3495 123.53 94.9865 124.558 94.8656 125.707C94.7446 126.736 94.7446 127.582 94.926 128.369C95.2285 130.002 96.1963 132.119 97.4665 133.389C97.4665 132.361 97.527 131.514 97.7084 130.667C97.9504 129.397 98.3738 128.369 98.9182 127.28C99.3416 126.494 99.644 125.828 99.9464 125.102C101.217 122.139 100.854 119.296 100.672 116.15Z" fill="white"/>
<path fill-rule="evenodd" clip-rule="evenodd" d="M97.467 133.45C95.6524 131.636 94.3217 127.281 94.2007 125.345C94.0798 124.014 93.6563 122.684 93.1725 121.353C92.3256 118.994 91.1159 116.514 89.8457 114.82C89.4223 116.272 88.9384 117.663 88.636 119.417C88.1521 123.349 88.8779 126.555 92.1442 129.337C93.4144 130.426 95.8943 132.845 97.467 133.45Z" fill="white"/>
<path fill-rule="evenodd" clip-rule="evenodd" d="M100.917 128.008C100.796 129.278 100.615 130.185 100.312 131.153C99.7072 132.907 98.9209 134.238 98.4975 135.811C98.1951 137.081 98.2556 138.291 98.558 139.5C98.7999 140.589 99.1629 141.436 99.5863 142.222C100.494 143.795 102.308 145.73 104.062 146.698C103.699 145.609 103.457 144.763 103.276 143.855C103.034 142.464 103.094 141.254 103.276 140.045C103.397 139.137 103.518 138.351 103.518 137.565C103.76 133.996 102.308 131.153 100.917 128.008Z" fill="white"/>
<path fill-rule="evenodd" clip-rule="evenodd" d="M104.123 146.698C101.582 145.307 98.5581 141.194 97.7113 139.258C97.1065 137.927 96.1387 136.657 95.1709 135.447C93.4168 133.27 91.2393 131.032 89.3037 129.641C89.3642 131.213 89.4852 132.786 89.7876 134.721C90.6949 138.835 92.6305 141.98 97.046 143.915C98.8001 144.641 102.248 146.516 104.123 146.698Z" fill="white"/>
<path fill-rule="evenodd" clip-rule="evenodd" d="M105.693 139.803C106.056 141.194 106.237 142.222 106.297 143.311C106.358 145.367 105.995 147.001 106.237 148.815C106.418 150.267 106.963 151.537 107.749 152.686C108.475 153.775 109.14 154.561 109.927 155.287C111.56 156.678 114.282 158.251 116.52 158.735C115.673 157.707 115.068 156.86 114.584 155.953C113.798 154.561 113.374 153.231 113.072 151.9C112.83 150.872 112.588 150.025 112.346 149.178C111.076 145.367 108.415 142.767 105.693 139.803Z" fill="white"/>
<path fill-rule="evenodd" clip-rule="evenodd" d="M116.58 158.795C113.314 158.069 108.475 154.561 106.781 152.807C105.571 151.536 104.12 150.508 102.547 149.48C99.8252 147.665 96.5589 145.911 93.958 145.004C94.6838 146.698 95.4097 148.331 96.4984 150.266C99.0994 154.379 102.426 157.162 107.93 157.948C110.047 158.19 114.523 159.158 116.58 158.795Z" fill="white"/>
<path fill-rule="evenodd" clip-rule="evenodd" d="M115.614 150.871C116.642 152.141 117.247 153.109 117.731 154.198C118.638 156.254 119.062 157.948 120.09 159.702C120.937 161.093 122.086 162.182 123.417 163.15C124.627 163.997 125.715 164.602 126.865 165.085C129.163 165.993 132.732 166.719 135.272 166.537C133.942 165.751 132.913 165.085 132.006 164.299C130.554 163.15 129.526 162.001 128.619 160.67C127.953 159.763 127.288 158.916 126.623 158.129C123.719 154.803 119.788 152.988 115.614 150.871Z" fill="white"/>
<path fill-rule="evenodd" clip-rule="evenodd" d="M135.39 166.538C131.64 166.78 124.986 164.784 122.446 163.514C120.631 162.606 118.635 162.001 116.518 161.457C112.829 160.489 108.655 159.703 105.51 159.582C107.022 161.034 108.474 162.485 110.47 164.058C115.006 167.385 119.724 169.139 125.894 168.232C128.253 167.929 133.334 167.566 135.39 166.538Z" fill="white"/>
<path fill-rule="evenodd" clip-rule="evenodd" d="M186.451 81.6739C181.31 78.4076 175.926 73.3872 166.853 70C173.507 70.0605 184.031 74.2341 186.451 81.6739Z" fill="white"/>
<path fill-rule="evenodd" clip-rule="evenodd" d="M180.518 82.7031C181.607 83.187 182.393 83.4894 183.301 83.7314C184.994 84.1548 186.386 84.2758 187.837 84.7597C188.986 85.1226 189.954 85.7274 190.741 86.3928C191.466 86.9977 192.011 87.6025 192.434 88.2074C193.281 89.4171 194.007 91.3527 194.007 92.8044C193.342 92.139 192.737 91.5946 192.071 91.1107C191.043 90.3849 190.075 89.8405 188.986 89.4171C188.2 89.1147 187.535 88.8123 186.869 88.4493C184.087 86.9977 182.454 84.9411 180.518 82.7031Z" fill="white"/>
<path fill-rule="evenodd" clip-rule="evenodd" d="M194.069 92.8646C194.069 90.7475 192.133 87.1788 190.984 85.7876C190.198 84.8199 189.593 83.7311 189.049 82.5819C188.081 80.5858 187.234 78.2873 186.992 76.5332C188.202 77.259 189.472 78.0454 190.803 79.0736C193.706 81.4326 195.339 83.973 194.916 87.4208C194.795 88.812 194.795 91.7153 194.069 92.8646Z" fill="white"/>
<path fill-rule="evenodd" clip-rule="evenodd" d="M188.937 93.2266C189.904 93.8919 190.63 94.3153 191.416 94.6782C192.989 95.3436 194.32 95.7065 195.59 96.4323C196.618 96.9767 197.405 97.7026 198.07 98.5494C198.675 99.2752 199.038 99.9406 199.34 100.606C199.885 101.937 200.187 103.993 199.824 105.384C199.34 104.598 198.856 103.993 198.312 103.388C197.526 102.481 196.679 101.816 195.711 101.211C195.046 100.787 194.441 100.364 193.836 99.9406C191.477 98.0655 190.328 95.7065 188.937 93.2266Z" fill="white"/>
<path fill-rule="evenodd" clip-rule="evenodd" d="M199.886 105.446C200.37 103.389 199.281 99.5181 198.434 98.006C197.89 96.9172 197.527 95.768 197.285 94.5582C196.801 92.4412 196.499 90.0822 196.62 88.3281C197.648 89.2959 198.676 90.2032 199.825 91.4734C202.124 94.2558 203.152 97.0382 202.003 100.365C201.58 101.635 200.854 104.418 199.886 105.446Z" fill="white"/>
<path fill-rule="evenodd" clip-rule="evenodd" d="M193.948 103.752C194.735 104.72 195.339 105.385 196.065 105.99C197.456 107.139 198.787 107.865 199.876 108.954C200.783 109.861 201.328 110.829 201.751 111.857C202.114 112.825 202.295 113.611 202.356 114.398C202.477 115.97 201.993 118.208 201.146 119.66C200.904 118.692 200.602 117.906 200.299 117.119C199.755 115.97 199.09 115.002 198.303 114.095C197.759 113.43 197.215 112.825 196.791 112.22C194.856 109.559 194.493 106.776 193.948 103.752Z" fill="white"/>
<path fill-rule="evenodd" clip-rule="evenodd" d="M201.146 119.721C202.417 117.665 202.658 113.249 202.356 111.435C202.175 110.104 202.235 108.773 202.356 107.442C202.598 105.023 203.203 102.422 203.989 100.607C204.715 101.878 205.501 103.148 206.227 104.781C207.679 108.41 207.739 111.616 205.259 114.822C204.292 116.092 202.537 118.874 201.146 119.721Z" fill="white"/>
<path fill-rule="evenodd" clip-rule="evenodd" d="M196.313 116.15C196.857 117.239 197.28 118.025 197.885 118.751C198.974 120.142 200.123 121.11 200.97 122.441C201.635 123.53 201.998 124.558 202.119 125.707C202.24 126.736 202.24 127.582 202.059 128.369C201.756 130.002 200.789 132.119 199.518 133.389C199.518 132.361 199.458 131.514 199.276 130.667C199.034 129.397 198.611 128.369 198.067 127.28C197.643 126.494 197.341 125.828 197.038 125.102C195.768 122.139 196.131 119.296 196.313 116.15Z" fill="white"/>
<path fill-rule="evenodd" clip-rule="evenodd" d="M199.518 133.45C201.332 131.636 202.663 127.281 202.784 125.345C202.905 124.014 203.328 122.684 203.812 121.353C204.659 118.994 205.869 116.514 207.139 114.82C207.562 116.272 208.046 117.663 208.349 119.417C208.893 123.288 208.167 126.494 204.84 129.277C203.57 130.426 201.09 132.845 199.518 133.45Z" fill="white"/>
<path fill-rule="evenodd" clip-rule="evenodd" d="M196.079 128.008C196.2 129.278 196.381 130.185 196.684 131.153C197.289 132.907 198.075 134.238 198.498 135.811C198.801 137.081 198.74 138.291 198.438 139.5C198.196 140.589 197.833 141.436 197.41 142.222C196.502 143.795 194.688 145.73 192.934 146.698C193.297 145.609 193.538 144.763 193.72 143.855C193.962 142.464 193.901 141.254 193.72 140.045C193.599 139.137 193.478 138.351 193.478 137.565C193.236 133.996 194.688 131.153 196.079 128.008Z" fill="white"/>
<path fill-rule="evenodd" clip-rule="evenodd" d="M192.871 146.698C195.412 145.307 198.436 141.194 199.283 139.258C199.888 137.927 200.855 136.657 201.823 135.447C203.577 133.27 205.755 131.032 207.69 129.641C207.63 131.213 207.509 132.786 207.206 134.721C206.299 138.835 204.364 141.98 199.948 143.915C198.194 144.641 194.746 146.516 192.871 146.698Z" fill="white"/>
<path fill-rule="evenodd" clip-rule="evenodd" d="M191.294 139.803C190.931 141.194 190.749 142.222 190.689 143.311C190.629 145.367 190.991 147.001 190.75 148.815C190.568 150.267 190.024 151.537 189.237 152.686C188.512 153.775 187.846 154.561 187.06 155.287C185.427 156.678 182.705 158.251 180.467 158.735C181.314 157.707 181.918 156.86 182.402 155.953C183.189 154.561 183.612 153.231 183.915 151.9C184.156 150.872 184.398 150.025 184.64 149.178C185.911 145.367 188.572 142.767 191.294 139.803Z" fill="white"/>
<path fill-rule="evenodd" clip-rule="evenodd" d="M180.404 158.795C183.671 158.069 188.509 154.561 190.203 152.807C191.413 151.536 192.865 150.508 194.437 149.48C197.159 147.665 200.425 145.911 203.026 145.004C202.3 146.698 201.575 148.331 200.486 150.266C197.885 154.379 194.558 157.162 189.054 157.948C186.937 158.19 182.461 159.158 180.404 158.795Z" fill="white"/>
<path fill-rule="evenodd" clip-rule="evenodd" d="M181.377 150.871C180.349 152.141 179.744 153.109 179.26 154.198C178.353 156.254 177.929 157.948 176.901 159.702C176.054 161.093 174.905 162.182 173.574 163.15C172.364 163.997 171.276 164.602 170.126 165.085C167.828 165.993 164.259 166.719 161.719 166.537C163.049 165.751 164.078 165.085 164.985 164.299C166.437 163.15 167.465 162.001 168.372 160.67C169.038 159.763 169.703 158.916 170.368 158.129C173.272 154.803 177.203 152.988 181.377 150.871Z" fill="white"/>
<path fill-rule="evenodd" clip-rule="evenodd" d="M161.594 166.538C165.344 166.78 171.997 164.784 174.538 163.514C176.352 162.606 178.349 162.001 180.466 161.457C184.155 160.489 188.329 159.703 191.474 159.582C189.962 161.034 188.51 162.485 186.514 164.058C181.978 167.385 177.26 169.139 171.09 168.232C168.731 167.929 163.65 167.566 161.594 166.538Z" fill="white"/>
<path d="M142.744 145C142.234 145 141.76 144.91 141.32 144.73C140.88 144.546 140.5 144.294 140.181 143.974C139.866 143.654 139.639 143.282 139.5 142.858L141.112 142.486C141.176 142.718 141.294 142.918 141.466 143.086C141.642 143.254 141.846 143.384 142.077 143.476C142.313 143.568 142.556 143.614 142.806 143.614C143.131 143.614 143.427 143.546 143.696 143.41C143.964 143.274 144.177 143.092 144.335 142.864C144.492 142.632 144.571 142.376 144.571 142.096C144.571 141.816 144.49 141.562 144.328 141.334C144.17 141.102 143.957 140.92 143.689 140.788C143.42 140.652 143.126 140.584 142.806 140.584C142.422 140.584 142.103 140.644 141.848 140.764C141.598 140.884 141.406 141.012 141.271 141.148L139.84 140.752L140.146 136.18H145.578V137.536H141.042L141.667 137.026L141.445 140.206L141.139 139.882C141.399 139.678 141.7 139.526 142.042 139.426C142.385 139.326 142.716 139.276 143.036 139.276C143.661 139.276 144.214 139.4 144.696 139.648C145.182 139.892 145.562 140.226 145.835 140.65C146.113 141.074 146.252 141.556 146.252 142.096C146.252 142.636 146.09 143.126 145.765 143.566C145.441 144.002 145.013 144.35 144.48 144.61C143.953 144.87 143.374 145 142.744 145Z" fill="white"/>
<path d="M147.779 144.82V143.338H149.495V144.82H147.779Z" fill="white"/>
<path d="M154.902 145C154.193 145 153.568 144.87 153.026 144.61C152.485 144.346 152.061 143.98 151.755 143.512C151.454 143.044 151.304 142.504 151.304 141.892V139.108C151.304 138.496 151.454 137.956 151.755 137.488C152.061 137.02 152.485 136.656 153.026 136.396C153.568 136.132 154.193 136 154.902 136C155.61 136 156.233 136.132 156.77 136.396C157.312 136.656 157.736 137.02 158.042 137.488C158.347 137.956 158.5 138.496 158.5 139.108V141.892C158.5 142.504 158.347 143.044 158.042 143.512C157.736 143.98 157.312 144.346 156.77 144.61C156.233 144.87 155.61 145 154.902 145ZM154.902 143.626C155.254 143.626 155.573 143.554 155.86 143.41C156.148 143.262 156.374 143.066 156.541 142.822C156.708 142.574 156.791 142.298 156.791 141.994V139C156.791 138.692 156.708 138.416 156.541 138.172C156.374 137.924 156.148 137.728 155.86 137.584C155.573 137.436 155.254 137.362 154.902 137.362C154.55 137.362 154.23 137.436 153.943 137.584C153.656 137.728 153.429 137.924 153.263 138.172C153.096 138.416 153.012 138.692 153.012 139V141.994C153.012 142.298 153.096 142.574 153.263 142.822C153.429 143.066 153.656 143.262 153.943 143.41C154.23 143.554 154.55 143.626 154.902 143.626Z" fill="white"/>
<path d="M163.128 120.337V117H133.872V120.337H128.5L130.474 125.168L128.5 130H138.39V126.664H158.61V130H168.5L166.526 125.168L168.5 120.337H163.128Z" fill="white"/>
<path d="M143.77 105.472C144.075 105.765 144.213 106.187 144.141 106.601L143.462 110.507C143.281 111.548 144.389 112.342 145.338 111.851L148.897 110.006C149.274 109.811 149.724 109.811 150.101 110.006L153.66 111.851C154.609 112.343 155.718 111.548 155.536 110.507L154.857 106.601C154.785 106.188 154.924 105.765 155.229 105.472L158.108 102.706C158.876 101.969 158.452 100.683 157.391 100.532L153.413 99.9617C152.991 99.9015 152.627 99.6405 152.439 99.2644L150.66 95.7106C150.185 94.7631 148.815 94.7631 148.34 95.7106L146.561 99.2644C146.373 99.6405 146.009 99.9015 145.588 99.9617L141.609 100.532C140.548 100.684 140.124 101.969 140.892 102.706L143.771 105.472H143.77Z" fill="white"/>
<path d="M156.761 106.987L158.681 108.776C158.884 108.966 158.977 109.239 158.929 109.507L158.476 112.034C158.355 112.708 159.094 113.222 159.727 112.903L162.099 111.71C162.35 111.584 162.65 111.584 162.901 111.71L165.273 112.903C165.906 113.222 166.645 112.708 166.524 112.034L166.071 109.507C166.023 109.239 166.116 108.966 166.319 108.776L168.239 106.987C168.75 106.509 168.468 105.678 167.761 105.579L165.109 105.21C164.828 105.171 164.585 105.003 164.459 104.759L163.273 102.46C162.957 101.847 162.043 101.847 161.727 102.46L160.541 104.759C160.415 105.003 160.172 105.171 159.891 105.21L157.239 105.579C156.532 105.677 156.25 106.509 156.761 106.987Z" fill="white"/>
<path d="M130.863 108.776C131.083 108.966 131.183 109.239 131.131 109.507L130.64 112.034C130.509 112.708 131.311 113.222 131.995 112.903L134.566 111.71C134.837 111.584 135.163 111.584 135.434 111.71L138.005 112.903C138.69 113.222 139.491 112.708 139.36 112.034L138.869 109.507C138.817 109.239 138.917 108.966 139.137 108.776L141.217 106.987C141.771 106.509 141.465 105.678 140.699 105.579L137.826 105.21C137.522 105.171 137.258 105.003 137.123 104.759L135.837 102.46C135.495 101.847 134.505 101.847 134.163 102.46L132.877 104.759C132.742 105.003 132.478 105.171 132.174 105.21L129.301 105.579C128.535 105.677 128.229 106.509 128.783 106.987L130.863 108.776Z" fill="white"/>
</g>
<path d="M98.6666 207H96.5606V197.73L94.5986 199.764L93.3746 198.486L96.8306 194.994H98.6666V207ZM107.917 207H105.811V204.282H100.087V202.59L105.019 194.994H107.917V202.428H109.519V204.282H107.917V207ZM105.811 202.428V196.884L102.157 202.428H105.811ZM115.352 207.216C114.5 207.216 113.75 207.054 113.102 206.73C112.454 206.394 111.938 205.938 111.554 205.362C111.17 204.786 110.882 204.138 110.69 203.418C110.498 202.686 110.402 201.888 110.402 201.024C110.402 199.212 110.864 197.724 111.788 196.56C112.712 195.396 114.014 194.814 115.694 194.814C117.086 194.814 118.238 195.258 119.15 196.146L118.16 197.748C117.488 197.04 116.666 196.686 115.694 196.686C114.734 196.686 113.966 197.07 113.39 197.838C112.814 198.606 112.526 199.542 112.526 200.646C112.526 200.802 112.532 200.916 112.544 200.988C112.844 200.544 113.288 200.154 113.876 199.818C114.464 199.482 115.094 199.314 115.766 199.314C116.906 199.314 117.86 199.656 118.628 200.34C119.396 201.012 119.78 201.96 119.78 203.184C119.78 204.324 119.372 205.284 118.556 206.064C117.74 206.832 116.672 207.216 115.352 207.216ZM115.244 205.344C115.988 205.344 116.576 205.134 117.008 204.714C117.44 204.282 117.656 203.796 117.656 203.256C117.656 202.56 117.422 202.032 116.954 201.672C116.486 201.3 115.898 201.114 115.19 201.114C114.686 201.114 114.2 201.246 113.732 201.51C113.264 201.762 112.874 202.104 112.562 202.536C112.634 203.304 112.886 203.964 113.318 204.516C113.75 205.068 114.392 205.344 115.244 205.344ZM128.628 201.546H125.298V205.272H123.966V201.546H120.636V200.322H123.966V196.722H125.298V200.322H128.628V201.546ZM136.167 207H134.277V198.306H136.167V199.584C136.503 199.152 136.923 198.798 137.427 198.522C137.931 198.246 138.453 198.108 138.993 198.108V199.98C138.825 199.944 138.627 199.926 138.399 199.926C138.003 199.926 137.577 200.046 137.121 200.286C136.677 200.514 136.359 200.778 136.167 201.078V207ZM144.171 207.216C142.851 207.216 141.759 206.796 140.895 205.956C140.043 205.104 139.617 204 139.617 202.644C139.617 201.372 140.031 200.298 140.859 199.422C141.699 198.534 142.755 198.09 144.027 198.09C145.311 198.09 146.343 198.534 147.123 199.422C147.915 200.31 148.311 201.444 148.311 202.824V203.274H141.597C141.669 203.958 141.951 204.528 142.443 204.984C142.935 205.44 143.577 205.668 144.369 205.668C144.813 205.668 145.257 205.584 145.701 205.416C146.157 205.248 146.535 205.014 146.835 204.714L147.699 205.956C146.823 206.796 145.647 207.216 144.171 207.216ZM146.475 201.942C146.451 201.342 146.229 200.808 145.809 200.34C145.401 199.872 144.807 199.638 144.027 199.638C143.283 199.638 142.701 199.872 142.281 200.34C141.861 200.796 141.627 201.33 141.579 201.942H146.475ZM154.136 207H152.102L148.556 198.306H150.572L153.11 204.822L155.648 198.306H157.682L154.136 207ZM159.445 197.244C159.133 197.244 158.857 197.13 158.617 196.902C158.389 196.674 158.275 196.398 158.275 196.074C158.275 195.75 158.389 195.474 158.617 195.246C158.857 195.018 159.133 194.904 159.445 194.904C159.769 194.904 160.045 195.018 160.273 195.246C160.501 195.474 160.615 195.75 160.615 196.074C160.615 196.398 160.501 196.674 160.273 196.902C160.045 197.13 159.769 197.244 159.445 197.244ZM160.399 207H158.509V198.306H160.399V207ZM166.505 207.216C165.185 207.216 164.093 206.796 163.229 205.956C162.377 205.104 161.951 204 161.951 202.644C161.951 201.372 162.365 200.298 163.193 199.422C164.033 198.534 165.089 198.09 166.361 198.09C167.645 198.09 168.677 198.534 169.457 199.422C170.249 200.31 170.645 201.444 170.645 202.824V203.274H163.931C164.003 203.958 164.285 204.528 164.777 204.984C165.269 205.44 165.911 205.668 166.703 205.668C167.147 205.668 167.591 205.584 168.035 205.416C168.491 205.248 168.869 205.014 169.169 204.714L170.033 205.956C169.157 206.796 167.981 207.216 166.505 207.216ZM168.809 201.942C168.785 201.342 168.563 200.808 168.143 200.34C167.735 199.872 167.141 199.638 166.361 199.638C165.617 199.638 165.035 199.872 164.615 200.34C164.195 200.796 163.961 201.33 163.913 201.942H168.809ZM181.709 207H179.729L177.713 200.628L175.697 207H173.717L171.017 198.306H172.979L174.815 204.624L176.885 198.306H178.541L180.611 204.624L182.447 198.306H184.409L181.709 207ZM189.375 207.216C188.055 207.216 186.963 206.796 186.099 205.956C185.247 205.104 184.821 204 184.821 202.644C184.821 201.372 185.235 200.298 186.063 199.422C186.903 198.534 187.959 198.09 189.231 198.09C190.515 198.09 191.547 198.534 192.327 199.422C193.119 200.31 193.515 201.444 193.515 202.824V203.274H186.801C186.873 203.958 187.155 204.528 187.647 204.984C188.139 205.44 188.781 205.668 189.573 205.668C190.017 205.668 190.461 205.584 190.905 205.416C191.361 205.248 191.739 205.014 192.039 204.714L192.903 205.956C192.027 206.796 190.851 207.216 189.375 207.216ZM191.679 201.942C191.655 201.342 191.433 200.808 191.013 200.34C190.605 199.872 190.011 199.638 189.231 199.638C188.487 199.638 187.905 199.872 187.485 200.34C187.065 200.796 186.831 201.33 186.783 201.942H191.679ZM203.03 207H201.14V205.812C200.42 206.748 199.49 207.216 198.35 207.216C197.21 207.216 196.28 206.808 195.56 205.992C194.84 205.176 194.48 204.066 194.48 202.662C194.48 201.27 194.84 200.16 195.56 199.332C196.28 198.504 197.21 198.09 198.35 198.09C199.49 198.09 200.42 198.564 201.14 199.512V194.994H203.03V207ZM198.89 205.542C199.334 205.542 199.766 205.434 200.186 205.218C200.606 205.002 200.924 204.726 201.14 204.39V200.934C200.924 200.598 200.606 200.322 200.186 200.106C199.766 199.878 199.334 199.764 198.89 199.764C198.146 199.764 197.552 200.034 197.108 200.574C196.664 201.114 196.442 201.81 196.442 202.662C196.442 203.514 196.664 204.21 197.108 204.75C197.552 205.278 198.146 205.542 198.89 205.542ZM117.973 232.216C116.653 232.216 115.573 231.79 114.733 230.938C113.893 230.074 113.473 228.976 113.473 227.644C113.473 226.324 113.893 225.238 114.733 224.386C115.573 223.522 116.653 223.09 117.973 223.09C119.425 223.09 120.535 223.606 121.303 224.638L120.061 225.79C119.581 225.106 118.915 224.764 118.063 224.764C117.271 224.764 116.635 225.034 116.155 225.574C115.675 226.102 115.435 226.792 115.435 227.644C115.435 228.496 115.675 229.192 116.155 229.732C116.635 230.272 117.271 230.542 118.063 230.542C118.891 230.542 119.557 230.2 120.061 229.516L121.303 230.668C120.535 231.7 119.425 232.216 117.973 232.216ZM126.524 232.216C125.18 232.216 124.1 231.778 123.284 230.902C122.468 230.014 122.06 228.928 122.06 227.644C122.06 226.36 122.468 225.28 123.284 224.404C124.1 223.528 125.18 223.09 126.524 223.09C127.88 223.09 128.966 223.528 129.782 224.404C130.598 225.28 131.006 226.36 131.006 227.644C131.006 228.94 130.598 230.026 129.782 230.902C128.966 231.778 127.88 232.216 126.524 232.216ZM126.524 230.542C127.304 230.542 127.916 230.266 128.36 229.714C128.816 229.15 129.044 228.46 129.044 227.644C129.044 226.84 128.816 226.162 128.36 225.61C127.916 225.046 127.304 224.764 126.524 224.764C125.756 224.764 125.144 225.046 124.688 225.61C124.244 226.162 124.022 226.84 124.022 227.644C124.022 228.46 124.244 229.15 124.688 229.714C125.144 230.266 125.756 230.542 126.524 230.542ZM145.105 232H143.215V226.33C143.215 225.286 142.741 224.764 141.793 224.764C141.397 224.764 141.013 224.878 140.641 225.106C140.269 225.334 139.981 225.604 139.777 225.916V232H137.887V226.33C137.887 225.286 137.407 224.764 136.447 224.764C136.063 224.764 135.685 224.878 135.313 225.106C134.953 225.334 134.665 225.61 134.449 225.934V232H132.559V223.306H134.449V224.494C134.665 224.17 135.037 223.858 135.565 223.558C136.105 223.246 136.675 223.09 137.275 223.09C138.535 223.09 139.327 223.624 139.651 224.692C139.927 224.26 140.335 223.888 140.875 223.576C141.415 223.252 141.991 223.09 142.603 223.09C144.271 223.09 145.105 223.966 145.105 225.718V232ZM151.873 232.216C150.721 232.216 149.791 231.742 149.083 230.794V235.312H147.193V223.306H149.083V224.494C149.779 223.558 150.709 223.09 151.873 223.09C153.013 223.09 153.937 223.498 154.645 224.314C155.365 225.13 155.725 226.24 155.725 227.644C155.725 229.048 155.365 230.164 154.645 230.992C153.937 231.808 153.013 232.216 151.873 232.216ZM151.315 230.542C152.059 230.542 152.653 230.272 153.097 229.732C153.541 229.192 153.763 228.496 153.763 227.644C153.763 226.792 153.541 226.102 153.097 225.574C152.653 225.034 152.059 224.764 151.315 224.764C150.883 224.764 150.457 224.878 150.037 225.106C149.617 225.334 149.299 225.61 149.083 225.934V229.372C149.299 229.696 149.617 229.972 150.037 230.2C150.457 230.428 150.883 230.542 151.315 230.542ZM164.439 232H162.549V231.064C161.877 231.832 160.941 232.216 159.741 232.216C158.949 232.216 158.247 231.964 157.635 231.46C157.023 230.944 156.717 230.236 156.717 229.336C156.717 228.412 157.017 227.71 157.617 227.23C158.229 226.75 158.937 226.51 159.741 226.51C160.977 226.51 161.913 226.882 162.549 227.626V226.33C162.549 225.826 162.363 225.43 161.991 225.142C161.619 224.854 161.127 224.71 160.515 224.71C159.543 224.71 158.685 225.076 157.941 225.808L157.167 224.494C158.151 223.558 159.369 223.09 160.821 223.09C161.889 223.09 162.759 223.342 163.431 223.846C164.103 224.35 164.439 225.148 164.439 226.24V232ZM160.479 230.92C161.427 230.92 162.117 230.62 162.549 230.02V228.706C162.117 228.106 161.427 227.806 160.479 227.806C159.939 227.806 159.495 227.95 159.147 228.238C158.799 228.526 158.625 228.904 158.625 229.372C158.625 229.84 158.799 230.218 159.147 230.506C159.495 230.782 159.939 230.92 160.479 230.92ZM174.287 232H172.397V226.564C172.397 225.364 171.815 224.764 170.651 224.764C170.195 224.764 169.769 224.878 169.373 225.106C168.977 225.334 168.659 225.61 168.419 225.934V232H166.529V223.306H168.419V224.494C168.743 224.11 169.175 223.78 169.715 223.504C170.255 223.228 170.843 223.09 171.479 223.09C172.403 223.09 173.099 223.33 173.567 223.81C174.047 224.29 174.287 224.98 174.287 225.88V232ZM176.004 235.402L176.292 233.71C176.508 233.806 176.748 233.854 177.012 233.854C177.624 233.854 178.038 233.602 178.254 233.098L178.686 232.108L175.122 223.306H177.138L179.676 229.822L182.214 223.306H184.248L180.054 233.566C179.538 234.85 178.542 235.504 177.066 235.528C176.67 235.528 176.316 235.486 176.004 235.402Z" fill="white"/>
<defs>
<radialGradient id="paint0_radial_2_3293" cx="0" cy="0" r="1" gradientUnits="userSpaceOnUse" gradientTransform="translate(361.752 701.481) rotate(-117.321) scale(874.695 425.086)">
<stop stop-color="white"/>
<stop offset="1" stop-color="white" stop-opacity="0"/>
</radialGradient>
<radialGradient id="paint1_radial_2_3293" cx="0" cy="0" r="1" gradientUnits="userSpaceOnUse" gradientTransform="translate(-56.7561 -227.353) rotate(54.1092) scale(652.043 336.094)">
<stop stop-color="white"/>
<stop offset="1" stop-color="white" stop-opacity="0"/>
</radialGradient>
<radialGradient id="paint2_radial_2_3293" cx="0" cy="0" r="1" gradientUnits="userSpaceOnUse" gradientTransform="translate(148.5 140.409) rotate(134.427) scale(230.943 172.559)">
<stop stop-color="white"/>
<stop offset="1" stop-color="#151515" stop-opacity="0"/>
</radialGradient>
<clipPath id="clip0_2_3293">
<rect width="120" height="120" fill="white" transform="translate(88.5 63)"/>
</clipPath>
</defs>
</svg>
