<svg width="297" height="297" viewBox="0 0 297 297" fill="none" xmlns="http://www.w3.org/2000/svg">
<circle cx="148.5" cy="148.5" r="148" stroke="url(#paint0_radial_2_3298)" stroke-opacity="0.66"/>
<circle cx="148.5" cy="148.5" r="148" stroke="url(#paint1_radial_2_3298)" stroke-opacity="0.66"/>
<circle cx="148.5" cy="148.5" r="148" stroke="url(#paint2_radial_2_3298)"/>
<g clip-path="url(#clip0_2_3298)">
<path d="M131.216 166.234C131.216 166.234 155.773 166.355 163.878 173.13L159.644 174.642C159.644 174.642 148.152 166.476 128.131 167.988C129.159 167.081 131.216 166.234 131.216 166.234Z" fill="white"/>
<path d="M165.757 166.234C165.757 166.234 141.2 166.355 133.095 173.13L137.329 174.642C137.329 174.642 148.821 166.476 168.842 167.988C167.814 167.081 165.757 166.234 165.757 166.234Z" fill="white"/>
<path fill-rule="evenodd" clip-rule="evenodd" d="M110.531 81.6739C115.673 78.3471 120.995 73.3872 130.129 70C123.475 70.0605 112.951 74.2341 110.531 81.6739Z" fill="white"/>
<path fill-rule="evenodd" clip-rule="evenodd" d="M116.459 82.7031C115.37 83.187 114.584 83.4894 113.677 83.7314C111.983 84.1548 110.592 84.2758 109.14 84.7597C107.991 85.1226 107.023 85.7274 106.237 86.3928C105.511 86.9977 104.967 87.6025 104.543 88.2074C103.697 89.4171 102.971 91.3527 102.971 92.8044C103.636 92.139 104.241 91.5946 104.906 91.1107C105.935 90.3849 106.902 89.8405 107.931 89.4171C108.717 89.1147 109.382 88.8123 110.048 88.4493C112.89 86.9977 114.524 84.9411 116.459 82.7031Z" fill="white"/>
<path fill-rule="evenodd" clip-rule="evenodd" d="M102.91 92.8646C102.91 90.7475 104.846 87.1788 105.995 85.7876C106.781 84.8199 107.386 83.7311 107.931 82.5819C108.898 80.5858 109.745 78.2873 109.987 76.5332C108.777 77.259 107.507 78.0454 106.176 79.0736C103.273 81.4326 101.64 83.973 102.063 87.4208C102.184 88.812 102.184 91.7153 102.91 92.8646Z" fill="white"/>
<path fill-rule="evenodd" clip-rule="evenodd" d="M108.052 93.2266C107.084 93.8919 106.358 94.3153 105.572 94.6782C103.999 95.3436 102.669 95.7065 101.398 96.4323C100.37 96.9767 99.5837 97.7026 98.9184 98.5494C98.3135 99.2752 97.9506 99.9406 97.6482 100.606C97.1038 101.937 96.8014 103.993 97.1643 105.384C97.6482 104.598 98.1321 103.993 98.6764 103.388C99.4628 102.481 100.31 101.816 101.277 101.211C101.943 100.787 102.548 100.364 103.152 99.9406C105.511 98.0655 106.661 95.7065 108.052 93.2266Z" fill="white"/>
<path fill-rule="evenodd" clip-rule="evenodd" d="M97.1068 105.446C96.6229 103.389 97.7116 99.5181 98.5584 98.006C99.1028 96.9172 99.4657 95.768 99.7077 94.5582C100.192 92.4412 100.494 90.0822 100.373 88.3281C99.3448 89.2959 98.3165 90.2032 97.1672 91.4734C94.8688 94.2558 93.8405 97.0382 94.9897 100.365C95.4131 101.635 96.139 104.418 97.1068 105.446Z" fill="white"/>
<path fill-rule="evenodd" clip-rule="evenodd" d="M103.03 103.752C102.243 104.72 101.638 105.385 100.913 105.99C99.5213 107.139 98.1906 107.865 97.1019 108.954C96.1946 109.861 95.6502 110.829 95.2268 111.857C94.8639 112.825 94.6824 113.611 94.6219 114.398C94.5009 115.97 94.9848 118.208 95.8316 119.66C96.0736 118.692 96.376 117.906 96.6785 117.119C97.2228 115.97 97.8882 115.002 98.6745 114.095C99.2189 113.43 99.7633 112.825 100.187 112.22C102.122 109.559 102.485 106.776 103.03 103.752Z" fill="white"/>
<path fill-rule="evenodd" clip-rule="evenodd" d="M95.8304 119.721C94.5602 117.665 94.3183 113.249 94.6207 111.435C94.8022 110.104 94.7417 108.773 94.6207 107.442C94.3788 105.023 93.7739 102.422 92.9876 100.607C92.2617 101.878 91.4754 103.148 90.7496 104.781C89.2979 108.41 89.2374 111.616 91.7174 114.822C92.6851 116.092 94.4393 118.874 95.8304 119.721Z" fill="white"/>
<path fill-rule="evenodd" clip-rule="evenodd" d="M100.672 116.15C100.128 117.239 99.7045 118.025 99.0996 118.751C98.0109 120.142 96.8616 121.11 96.0148 122.441C95.3495 123.53 94.9865 124.558 94.8656 125.707C94.7446 126.736 94.7446 127.582 94.926 128.369C95.2285 130.002 96.1963 132.119 97.4665 133.389C97.4665 132.361 97.527 131.514 97.7084 130.667C97.9504 129.397 98.3738 128.369 98.9182 127.28C99.3416 126.494 99.644 125.828 99.9464 125.102C101.217 122.139 100.854 119.296 100.672 116.15Z" fill="white"/>
<path fill-rule="evenodd" clip-rule="evenodd" d="M97.467 133.45C95.6524 131.636 94.3217 127.281 94.2007 125.345C94.0798 124.014 93.6563 122.684 93.1725 121.353C92.3256 118.994 91.1159 116.514 89.8457 114.82C89.4223 116.272 88.9384 117.663 88.636 119.417C88.1521 123.349 88.8779 126.555 92.1442 129.337C93.4144 130.426 95.8943 132.845 97.467 133.45Z" fill="white"/>
<path fill-rule="evenodd" clip-rule="evenodd" d="M100.917 128.008C100.796 129.278 100.615 130.185 100.312 131.153C99.7073 132.907 98.9209 134.238 98.4975 135.811C98.1951 137.081 98.2556 138.291 98.558 139.5C98.8 140.589 99.1629 141.436 99.5863 142.222C100.494 143.795 102.308 145.73 104.062 146.698C103.699 145.609 103.457 144.763 103.276 143.855C103.034 142.464 103.095 141.254 103.276 140.045C103.397 139.137 103.518 138.351 103.518 137.565C103.76 133.996 102.308 131.153 100.917 128.008Z" fill="white"/>
<path fill-rule="evenodd" clip-rule="evenodd" d="M104.123 146.698C101.582 145.307 98.5581 141.194 97.7113 139.258C97.1065 137.927 96.1387 136.657 95.1709 135.447C93.4168 133.27 91.2393 131.032 89.3037 129.641C89.3642 131.213 89.4852 132.786 89.7876 134.721C90.6949 138.835 92.6305 141.98 97.046 143.915C98.8001 144.641 102.248 146.516 104.123 146.698Z" fill="white"/>
<path fill-rule="evenodd" clip-rule="evenodd" d="M105.693 139.803C106.056 141.194 106.237 142.222 106.297 143.311C106.358 145.367 105.995 147.001 106.237 148.815C106.418 150.267 106.963 151.537 107.749 152.686C108.475 153.775 109.14 154.561 109.927 155.287C111.56 156.678 114.282 158.251 116.52 158.735C115.673 157.707 115.068 156.86 114.584 155.953C113.798 154.561 113.374 153.231 113.072 151.9C112.83 150.872 112.588 150.025 112.346 149.178C111.076 145.367 108.415 142.767 105.693 139.803Z" fill="white"/>
<path fill-rule="evenodd" clip-rule="evenodd" d="M116.58 158.795C113.314 158.069 108.475 154.561 106.781 152.807C105.571 151.536 104.12 150.508 102.547 149.48C99.8252 147.665 96.5589 145.911 93.958 145.004C94.6838 146.698 95.4097 148.331 96.4984 150.266C99.0994 154.379 102.426 157.162 107.93 157.948C110.047 158.19 114.523 159.158 116.58 158.795Z" fill="white"/>
<path fill-rule="evenodd" clip-rule="evenodd" d="M115.614 150.871C116.642 152.141 117.247 153.109 117.731 154.198C118.638 156.254 119.062 157.948 120.09 159.702C120.937 161.093 122.086 162.182 123.417 163.15C124.627 163.997 125.715 164.602 126.865 165.085C129.163 165.993 132.732 166.719 135.272 166.537C133.942 165.751 132.913 165.085 132.006 164.299C130.554 163.15 129.526 162.001 128.619 160.67C127.953 159.763 127.288 158.916 126.623 158.129C123.719 154.803 119.788 152.988 115.614 150.871Z" fill="white"/>
<path fill-rule="evenodd" clip-rule="evenodd" d="M135.39 166.538C131.64 166.78 124.986 164.784 122.446 163.514C120.631 162.606 118.635 162.001 116.518 161.457C112.829 160.489 108.655 159.703 105.51 159.582C107.022 161.034 108.474 162.485 110.47 164.058C115.006 167.385 119.724 169.139 125.894 168.232C128.253 167.929 133.334 167.566 135.39 166.538Z" fill="white"/>
<path fill-rule="evenodd" clip-rule="evenodd" d="M186.451 81.6739C181.31 78.4076 175.926 73.3872 166.853 70C173.507 70.0605 184.031 74.2341 186.451 81.6739Z" fill="white"/>
<path fill-rule="evenodd" clip-rule="evenodd" d="M180.518 82.7031C181.607 83.187 182.394 83.4894 183.301 83.7314C184.994 84.1548 186.386 84.2758 187.837 84.7597C188.987 85.1226 189.954 85.7274 190.741 86.3928C191.466 86.9977 192.011 87.6025 192.434 88.2074C193.281 89.4171 194.007 91.3527 194.007 92.8044C193.342 92.139 192.737 91.5946 192.071 91.1107C191.043 90.3849 190.075 89.8405 188.987 89.4171C188.2 89.1147 187.535 88.8123 186.87 88.4493C184.087 86.9977 182.454 84.9411 180.518 82.7031Z" fill="white"/>
<path fill-rule="evenodd" clip-rule="evenodd" d="M194.069 92.8646C194.069 90.7475 192.133 87.1788 190.984 85.7876C190.198 84.8199 189.593 83.7311 189.049 82.5819C188.081 80.5858 187.234 78.2873 186.992 76.5332C188.202 77.259 189.472 78.0454 190.803 79.0736C193.706 81.4326 195.339 83.973 194.916 87.4208C194.795 88.812 194.795 91.7153 194.069 92.8646Z" fill="white"/>
<path fill-rule="evenodd" clip-rule="evenodd" d="M188.937 93.2266C189.904 93.8919 190.63 94.3153 191.416 94.6782C192.989 95.3436 194.32 95.7065 195.59 96.4323C196.618 96.9767 197.405 97.7026 198.07 98.5494C198.675 99.2752 199.038 99.9406 199.34 100.606C199.885 101.937 200.187 103.993 199.824 105.384C199.34 104.598 198.856 103.993 198.312 103.388C197.526 102.481 196.679 101.816 195.711 101.211C195.046 100.787 194.441 100.364 193.836 99.9406C191.477 98.0655 190.328 95.7065 188.937 93.2266Z" fill="white"/>
<path fill-rule="evenodd" clip-rule="evenodd" d="M199.886 105.446C200.37 103.389 199.281 99.5181 198.434 98.006C197.89 96.9172 197.527 95.768 197.285 94.5582C196.801 92.4412 196.499 90.0822 196.62 88.3281C197.648 89.2959 198.676 90.2032 199.825 91.4734C202.124 94.2558 203.152 97.0382 202.003 100.365C201.579 101.635 200.854 104.418 199.886 105.446Z" fill="white"/>
<path fill-rule="evenodd" clip-rule="evenodd" d="M193.948 103.752C194.735 104.72 195.339 105.385 196.065 105.99C197.456 107.139 198.787 107.865 199.876 108.954C200.783 109.861 201.328 110.829 201.751 111.857C202.114 112.825 202.295 113.611 202.356 114.398C202.477 115.97 201.993 118.208 201.146 119.66C200.904 118.692 200.602 117.906 200.299 117.119C199.755 115.97 199.09 115.002 198.303 114.095C197.759 113.43 197.215 112.825 196.791 112.22C194.856 109.559 194.493 106.776 193.948 103.752Z" fill="white"/>
<path fill-rule="evenodd" clip-rule="evenodd" d="M201.146 119.721C202.417 117.665 202.659 113.249 202.356 111.435C202.175 110.104 202.235 108.773 202.356 107.442C202.598 105.023 203.203 102.422 203.989 100.607C204.715 101.878 205.501 103.148 206.227 104.781C207.679 108.41 207.739 111.616 205.259 114.822C204.292 116.092 202.538 118.874 201.146 119.721Z" fill="white"/>
<path fill-rule="evenodd" clip-rule="evenodd" d="M196.313 116.15C196.857 117.239 197.28 118.025 197.885 118.751C198.974 120.142 200.123 121.11 200.97 122.441C201.635 123.53 201.998 124.558 202.119 125.707C202.24 126.736 202.24 127.582 202.059 128.369C201.756 130.002 200.789 132.119 199.518 133.389C199.518 132.361 199.458 131.514 199.276 130.667C199.034 129.397 198.611 128.369 198.067 127.28C197.643 126.494 197.341 125.828 197.038 125.102C195.768 122.139 196.131 119.296 196.313 116.15Z" fill="white"/>
<path fill-rule="evenodd" clip-rule="evenodd" d="M199.518 133.45C201.332 131.636 202.663 127.281 202.784 125.345C202.905 124.014 203.328 122.684 203.812 121.353C204.659 118.994 205.869 116.514 207.139 114.82C207.562 116.272 208.046 117.663 208.349 119.417C208.893 123.288 208.167 126.494 204.84 129.277C203.57 130.426 201.09 132.845 199.518 133.45Z" fill="white"/>
<path fill-rule="evenodd" clip-rule="evenodd" d="M196.079 128.008C196.2 129.278 196.381 130.185 196.684 131.153C197.289 132.907 198.075 134.238 198.498 135.811C198.801 137.081 198.74 138.291 198.438 139.5C198.196 140.589 197.833 141.436 197.41 142.222C196.502 143.795 194.688 145.73 192.934 146.698C193.297 145.609 193.538 144.763 193.72 143.855C193.962 142.464 193.901 141.254 193.72 140.045C193.599 139.137 193.478 138.351 193.478 137.565C193.236 133.996 194.688 131.153 196.079 128.008Z" fill="white"/>
<path fill-rule="evenodd" clip-rule="evenodd" d="M192.871 146.698C195.412 145.307 198.436 141.194 199.283 139.258C199.888 137.927 200.855 136.657 201.823 135.447C203.577 133.27 205.755 131.032 207.69 129.641C207.63 131.213 207.509 132.786 207.206 134.721C206.299 138.835 204.364 141.98 199.948 143.915C198.194 144.641 194.746 146.516 192.871 146.698Z" fill="white"/>
<path fill-rule="evenodd" clip-rule="evenodd" d="M191.294 139.803C190.931 141.194 190.749 142.222 190.689 143.311C190.629 145.367 190.991 147.001 190.75 148.815C190.568 150.267 190.024 151.537 189.237 152.686C188.512 153.775 187.846 154.561 187.06 155.287C185.427 156.678 182.705 158.251 180.467 158.735C181.314 157.707 181.918 156.86 182.402 155.953C183.189 154.561 183.612 153.231 183.915 151.9C184.156 150.872 184.398 150.025 184.64 149.178C185.911 145.367 188.572 142.767 191.294 139.803Z" fill="white"/>
<path fill-rule="evenodd" clip-rule="evenodd" d="M180.404 158.795C183.671 158.069 188.509 154.561 190.203 152.807C191.413 151.536 192.865 150.508 194.437 149.48C197.159 147.665 200.425 145.911 203.026 145.004C202.3 146.698 201.575 148.331 200.486 150.266C197.885 154.379 194.558 157.162 189.054 157.948C186.937 158.19 182.461 159.158 180.404 158.795Z" fill="white"/>
<path fill-rule="evenodd" clip-rule="evenodd" d="M181.377 150.871C180.349 152.141 179.744 153.109 179.26 154.198C178.353 156.254 177.929 157.948 176.901 159.702C176.054 161.093 174.905 162.182 173.574 163.15C172.364 163.997 171.276 164.602 170.126 165.085C167.828 165.993 164.259 166.719 161.719 166.537C163.049 165.751 164.078 165.085 164.985 164.299C166.437 163.15 167.465 162.001 168.372 160.67C169.038 159.763 169.703 158.916 170.368 158.129C173.272 154.803 177.203 152.988 181.377 150.871Z" fill="white"/>
<path fill-rule="evenodd" clip-rule="evenodd" d="M161.594 166.538C165.344 166.78 171.997 164.784 174.538 163.514C176.352 162.606 178.349 162.001 180.466 161.457C184.155 160.489 188.329 159.703 191.474 159.582C189.962 161.034 188.51 162.485 186.514 164.058C181.978 167.385 177.26 169.139 171.09 168.232C168.731 167.929 163.65 167.566 161.594 166.538Z" fill="white"/>
<path d="M161.075 121.183C158.959 121.183 156.977 120.304 155.176 118.874L155.614 116.855L155.633 116.78C156.024 114.63 157.263 111.021 161.075 111.021C163.934 111.021 166.259 113.302 166.259 116.107C166.249 118.902 163.924 121.183 161.075 121.183ZM161.075 105.87C156.205 105.87 152.431 108.974 150.897 114.078C148.553 110.628 146.78 106.487 145.742 103H140.5V116.378C140.5 119.014 138.308 121.164 135.621 121.164C132.934 121.164 130.742 119.014 130.742 116.378V103H125.5V116.378C125.481 121.856 130.027 126.353 135.611 126.353C141.196 126.353 145.741 121.856 145.741 116.378V114.134C146.761 116.219 148.009 118.322 149.525 120.192L146.313 135H151.678L154.003 124.259C156.043 125.539 158.387 126.343 161.075 126.343C166.821 126.343 171.5 121.725 171.5 116.088C171.5 110.46 166.821 105.87 161.075 105.87Z" fill="white"/>
</g>
<path d="M83.4742 207H81.3682V197.73L79.4062 199.764L78.1822 198.486L81.6382 194.994H83.4742V207ZM92.0941 206.676C91.4581 207.036 90.7381 207.216 89.9341 207.216C89.1301 207.216 88.4101 207.036 87.7741 206.676C87.1381 206.316 86.6341 205.836 86.2621 205.236C85.8901 204.636 85.6081 203.976 85.4161 203.256C85.2241 202.536 85.1281 201.786 85.1281 201.006C85.1281 200.226 85.2241 199.476 85.4161 198.756C85.6081 198.036 85.8901 197.382 86.2621 196.794C86.6341 196.194 87.1381 195.714 87.7741 195.354C88.4101 194.994 89.1301 194.814 89.9341 194.814C90.7381 194.814 91.4581 194.994 92.0941 195.354C92.7301 195.714 93.2341 196.194 93.6061 196.794C93.9781 197.382 94.2601 198.036 94.4521 198.756C94.6441 199.476 94.7401 200.226 94.7401 201.006C94.7401 201.786 94.6441 202.536 94.4521 203.256C94.2601 203.976 93.9781 204.636 93.6061 205.236C93.2341 205.836 92.7301 206.316 92.0941 206.676ZM87.9181 204.12C88.3501 204.936 89.0221 205.344 89.9341 205.344C90.8461 205.344 91.5181 204.936 91.9501 204.12C92.3821 203.304 92.5981 202.266 92.5981 201.006C92.5981 200.202 92.5141 199.488 92.3461 198.864C92.1901 198.24 91.9021 197.724 91.4821 197.316C91.0741 196.896 90.5581 196.686 89.9341 196.686C89.3101 196.686 88.7881 196.896 88.3681 197.316C87.9601 197.724 87.6721 198.24 87.5041 198.864C87.3481 199.488 87.2701 200.202 87.2701 201.006C87.2701 202.266 87.4861 203.304 87.9181 204.12ZM102.826 206.676C102.19 207.036 101.47 207.216 100.666 207.216C99.8619 207.216 99.1419 207.036 98.5059 206.676C97.8699 206.316 97.3659 205.836 96.9939 205.236C96.6219 204.636 96.3399 203.976 96.1479 203.256C95.9559 202.536 95.8599 201.786 95.8599 201.006C95.8599 200.226 95.9559 199.476 96.1479 198.756C96.3399 198.036 96.6219 197.382 96.9939 196.794C97.3659 196.194 97.8699 195.714 98.5059 195.354C99.1419 194.994 99.8619 194.814 100.666 194.814C101.47 194.814 102.19 194.994 102.826 195.354C103.462 195.714 103.966 196.194 104.338 196.794C104.71 197.382 104.992 198.036 105.184 198.756C105.376 199.476 105.472 200.226 105.472 201.006C105.472 201.786 105.376 202.536 105.184 203.256C104.992 203.976 104.71 204.636 104.338 205.236C103.966 205.836 103.462 206.316 102.826 206.676ZM98.6499 204.12C99.0819 204.936 99.7539 205.344 100.666 205.344C101.578 205.344 102.25 204.936 102.682 204.12C103.114 203.304 103.33 202.266 103.33 201.006C103.33 200.202 103.246 199.488 103.078 198.864C102.922 198.24 102.634 197.724 102.214 197.316C101.806 196.896 101.29 196.686 100.666 196.686C100.042 196.686 99.5199 196.896 99.0999 197.316C98.6919 197.724 98.4039 198.24 98.2359 198.864C98.0799 199.488 98.0019 200.202 98.0019 201.006C98.0019 202.266 98.2179 203.304 98.6499 204.12ZM109.328 200.772C108.452 200.772 107.738 200.496 107.186 199.944C106.634 199.38 106.358 198.672 106.358 197.82C106.358 196.956 106.634 196.242 107.186 195.678C107.738 195.102 108.452 194.814 109.328 194.814C110.216 194.814 110.936 195.102 111.488 195.678C112.052 196.242 112.334 196.956 112.334 197.82C112.334 198.672 112.052 199.38 111.488 199.944C110.936 200.496 110.216 200.772 109.328 200.772ZM109.364 207H108.176L115.844 194.994H117.05L109.364 207ZM117.932 206.388C117.38 206.94 116.666 207.216 115.79 207.216C114.914 207.216 114.2 206.94 113.648 206.388C113.096 205.824 112.82 205.116 112.82 204.264C112.82 203.4 113.096 202.686 113.648 202.122C114.2 201.546 114.914 201.258 115.79 201.258C116.666 201.258 117.38 201.546 117.932 202.122C118.496 202.698 118.778 203.412 118.778 204.264C118.778 205.116 118.496 205.824 117.932 206.388ZM109.328 199.584C109.796 199.584 110.18 199.422 110.48 199.098C110.78 198.762 110.93 198.336 110.93 197.82C110.93 197.28 110.78 196.848 110.48 196.524C110.18 196.188 109.796 196.02 109.328 196.02C108.86 196.02 108.476 196.188 108.176 196.524C107.888 196.848 107.744 197.28 107.744 197.82C107.744 198.336 107.894 198.762 108.194 199.098C108.494 199.422 108.872 199.584 109.328 199.584ZM114.638 205.542C114.938 205.866 115.322 206.028 115.79 206.028C116.258 206.028 116.642 205.866 116.942 205.542C117.242 205.206 117.392 204.78 117.392 204.264C117.392 203.724 117.242 203.292 116.942 202.968C116.642 202.632 116.258 202.464 115.79 202.464C115.322 202.464 114.938 202.632 114.638 202.968C114.35 203.292 114.206 203.724 114.206 204.264C114.206 204.78 114.35 205.206 114.638 205.542ZM126.516 207.216C125.184 207.216 124.122 206.796 123.33 205.956L124.302 204.354C124.914 205.014 125.598 205.344 126.354 205.344C127.002 205.344 127.512 205.146 127.884 204.75C128.268 204.354 128.46 203.826 128.46 203.166V194.994H130.566V203.202C130.566 204.522 130.194 205.524 129.45 206.208C128.706 206.88 127.728 207.216 126.516 207.216ZM136.64 207.216C135.296 207.216 134.216 206.778 133.4 205.902C132.584 205.014 132.176 203.928 132.176 202.644C132.176 201.36 132.584 200.28 133.4 199.404C134.216 198.528 135.296 198.09 136.64 198.09C137.996 198.09 139.082 198.528 139.898 199.404C140.714 200.28 141.122 201.36 141.122 202.644C141.122 203.94 140.714 205.026 139.898 205.902C139.082 206.778 137.996 207.216 136.64 207.216ZM136.64 205.542C137.42 205.542 138.032 205.266 138.476 204.714C138.932 204.15 139.16 203.46 139.16 202.644C139.16 201.84 138.932 201.162 138.476 200.61C138.032 200.046 137.42 199.764 136.64 199.764C135.872 199.764 135.26 200.046 134.804 200.61C134.36 201.162 134.138 201.84 134.138 202.644C134.138 203.46 134.36 204.15 134.804 204.714C135.26 205.266 135.872 205.542 136.64 205.542ZM144.565 204.39C144.769 204.714 145.081 204.99 145.501 205.218C145.933 205.434 146.365 205.542 146.797 205.542C147.541 205.542 148.135 205.278 148.579 204.75C149.035 204.21 149.263 203.514 149.263 202.662C149.263 201.81 149.035 201.114 148.579 200.574C148.135 200.034 147.541 199.764 146.797 199.764C146.365 199.764 145.939 199.878 145.519 200.106C145.099 200.334 144.781 200.616 144.565 200.952V204.39ZM144.565 207H142.675V194.994H144.565V199.512C145.273 198.564 146.203 198.09 147.355 198.09C148.483 198.09 149.407 198.51 150.127 199.35C150.847 200.178 151.207 201.282 151.207 202.662C151.207 204.066 150.847 205.176 150.127 205.992C149.407 206.808 148.483 207.216 147.355 207.216C146.215 207.216 145.285 206.748 144.565 205.812V207ZM161.195 207.216C159.131 207.216 157.505 206.58 156.317 205.308L157.487 203.688C158.519 204.792 159.785 205.344 161.285 205.344C162.089 205.344 162.689 205.182 163.085 204.858C163.493 204.534 163.697 204.15 163.697 203.706C163.697 203.25 163.457 202.89 162.977 202.626C162.497 202.35 161.915 202.134 161.231 201.978C160.547 201.822 159.857 201.636 159.161 201.42C158.477 201.204 157.895 200.838 157.415 200.322C156.935 199.806 156.695 199.14 156.695 198.324C156.695 197.316 157.097 196.482 157.901 195.822C158.717 195.15 159.773 194.814 161.069 194.814C162.917 194.814 164.417 195.372 165.569 196.488L164.363 198.054C163.451 197.142 162.293 196.686 160.889 196.686C160.265 196.686 159.767 196.824 159.395 197.1C159.035 197.364 158.855 197.724 158.855 198.18C158.855 198.48 158.981 198.732 159.233 198.936C159.497 199.14 159.833 199.308 160.241 199.44C160.649 199.56 161.099 199.68 161.591 199.8C162.095 199.92 162.593 200.07 163.085 200.25C163.589 200.418 164.045 200.628 164.453 200.88C164.861 201.132 165.191 201.48 165.443 201.924C165.707 202.368 165.839 202.896 165.839 203.508C165.839 204.588 165.449 205.476 164.669 206.172C163.889 206.868 162.731 207.216 161.195 207.216ZM175.122 207H173.232V205.848C172.416 206.76 171.39 207.216 170.154 207.216C168.294 207.216 167.364 206.298 167.364 204.462V198.306H169.254V203.778C169.254 204.414 169.404 204.87 169.704 205.146C170.004 205.41 170.436 205.542 171 205.542C171.456 205.542 171.882 205.434 172.278 205.218C172.674 205.002 172.992 204.732 173.232 204.408V198.306H175.122V207ZM181.177 207.216C179.857 207.216 178.777 206.79 177.937 205.938C177.097 205.074 176.677 203.976 176.677 202.644C176.677 201.324 177.097 200.238 177.937 199.386C178.777 198.522 179.857 198.09 181.177 198.09C182.629 198.09 183.739 198.606 184.507 199.638L183.265 200.79C182.785 200.106 182.119 199.764 181.267 199.764C180.475 199.764 179.839 200.034 179.359 200.574C178.879 201.102 178.639 201.792 178.639 202.644C178.639 203.496 178.879 204.192 179.359 204.732C179.839 205.272 180.475 205.542 181.267 205.542C182.095 205.542 182.761 205.2 183.265 204.516L184.507 205.668C183.739 206.7 182.629 207.216 181.177 207.216ZM189.765 207.216C188.445 207.216 187.365 206.79 186.525 205.938C185.685 205.074 185.265 203.976 185.265 202.644C185.265 201.324 185.685 200.238 186.525 199.386C187.365 198.522 188.445 198.09 189.765 198.09C191.217 198.09 192.327 198.606 193.095 199.638L191.853 200.79C191.373 200.106 190.707 199.764 189.855 199.764C189.063 199.764 188.427 200.034 187.947 200.574C187.467 201.102 187.227 201.792 187.227 202.644C187.227 203.496 187.467 204.192 187.947 204.732C188.427 205.272 189.063 205.542 189.855 205.542C190.683 205.542 191.349 205.2 191.853 204.516L193.095 205.668C192.327 206.7 191.217 207.216 189.765 207.216ZM198.406 207.216C197.086 207.216 195.994 206.796 195.13 205.956C194.278 205.104 193.852 204 193.852 202.644C193.852 201.372 194.266 200.298 195.094 199.422C195.934 198.534 196.99 198.09 198.262 198.09C199.546 198.09 200.578 198.534 201.358 199.422C202.15 200.31 202.546 201.444 202.546 202.824V203.274H195.832C195.904 203.958 196.186 204.528 196.678 204.984C197.17 205.44 197.812 205.668 198.604 205.668C199.048 205.668 199.492 205.584 199.936 205.416C200.392 205.248 200.77 205.014 201.07 204.714L201.934 205.956C201.058 206.796 199.882 207.216 198.406 207.216ZM200.71 201.942C200.686 201.342 200.464 200.808 200.044 200.34C199.636 199.872 199.042 199.638 198.262 199.638C197.518 199.638 196.936 199.872 196.516 200.34C196.096 200.796 195.862 201.33 195.814 201.942H200.71ZM207.021 207.216C205.461 207.216 204.219 206.766 203.295 205.866L204.159 204.498C204.483 204.834 204.921 205.122 205.473 205.362C206.025 205.602 206.571 205.722 207.111 205.722C207.663 205.722 208.083 205.614 208.371 205.398C208.671 205.182 208.821 204.9 208.821 204.552C208.821 204.24 208.641 204 208.281 203.832C207.921 203.652 207.483 203.514 206.967 203.418C206.451 203.31 205.935 203.184 205.419 203.04C204.903 202.884 204.465 202.614 204.105 202.23C203.745 201.846 203.565 201.348 203.565 200.736C203.565 199.992 203.871 199.368 204.483 198.864C205.095 198.348 205.929 198.09 206.985 198.09C208.317 198.09 209.445 198.498 210.369 199.314L209.577 200.646C209.301 200.334 208.935 200.082 208.479 199.89C208.023 199.698 207.531 199.602 207.003 199.602C206.511 199.602 206.115 199.704 205.815 199.908C205.527 200.1 205.383 200.352 205.383 200.664C205.383 200.904 205.509 201.102 205.761 201.258C206.025 201.402 206.349 201.51 206.733 201.582C207.129 201.654 207.555 201.756 208.011 201.888C208.467 202.008 208.887 202.152 209.271 202.32C209.667 202.488 209.991 202.764 210.243 203.148C210.507 203.52 210.639 203.976 210.639 204.516C210.639 205.308 210.321 205.956 209.685 206.46C209.049 206.964 208.161 207.216 207.021 207.216ZM215.152 207.216C213.592 207.216 212.35 206.766 211.426 205.866L212.29 204.498C212.614 204.834 213.052 205.122 213.604 205.362C214.156 205.602 214.702 205.722 215.242 205.722C215.794 205.722 216.214 205.614 216.502 205.398C216.802 205.182 216.952 204.9 216.952 204.552C216.952 204.24 216.772 204 216.412 203.832C216.052 203.652 215.614 203.514 215.098 203.418C214.582 203.31 214.066 203.184 213.55 203.04C213.034 202.884 212.596 202.614 212.236 202.23C211.876 201.846 211.696 201.348 211.696 200.736C211.696 199.992 212.002 199.368 212.614 198.864C213.226 198.348 214.06 198.09 215.116 198.09C216.448 198.09 217.576 198.498 218.5 199.314L217.708 200.646C217.432 200.334 217.066 200.082 216.61 199.89C216.154 199.698 215.662 199.602 215.134 199.602C214.642 199.602 214.246 199.704 213.946 199.908C213.658 200.1 213.514 200.352 213.514 200.664C213.514 200.904 213.64 201.102 213.892 201.258C214.156 201.402 214.48 201.51 214.864 201.582C215.26 201.654 215.686 201.756 216.142 201.888C216.598 202.008 217.018 202.152 217.402 202.32C217.798 202.488 218.122 202.764 218.374 203.148C218.638 203.52 218.77 203.976 218.77 204.516C218.77 205.308 218.452 205.956 217.816 206.46C217.18 206.964 216.292 207.216 215.152 207.216ZM111.037 232.216C109.693 232.216 108.613 231.778 107.797 230.902C106.981 230.014 106.573 228.928 106.573 227.644C106.573 226.36 106.981 225.28 107.797 224.404C108.613 223.528 109.693 223.09 111.037 223.09C112.393 223.09 113.479 223.528 114.295 224.404C115.111 225.28 115.519 226.36 115.519 227.644C115.519 228.94 115.111 230.026 114.295 230.902C113.479 231.778 112.393 232.216 111.037 232.216ZM111.037 230.542C111.817 230.542 112.429 230.266 112.873 229.714C113.329 229.15 113.557 228.46 113.557 227.644C113.557 226.84 113.329 226.162 112.873 225.61C112.429 225.046 111.817 224.764 111.037 224.764C110.269 224.764 109.657 225.046 109.201 225.61C108.757 226.162 108.535 226.84 108.535 227.644C108.535 228.46 108.757 229.15 109.201 229.714C109.657 230.266 110.269 230.542 111.037 230.542ZM124.83 232H122.94V226.564C122.94 225.364 122.358 224.764 121.194 224.764C120.738 224.764 120.312 224.878 119.916 225.106C119.52 225.334 119.202 225.61 118.962 225.934V232H117.072V223.306H118.962V224.494C119.286 224.11 119.718 223.78 120.258 223.504C120.798 223.228 121.386 223.09 122.022 223.09C122.946 223.09 123.642 223.33 124.11 223.81C124.59 224.29 124.83 224.98 124.83 225.88V232ZM136.444 232.216C134.74 232.216 133.444 231.772 132.556 230.884C131.68 229.996 131.242 228.79 131.242 227.266V219.994H133.366V227.194C133.366 228.166 133.63 228.934 134.158 229.498C134.698 230.062 135.46 230.344 136.444 230.344C137.428 230.344 138.184 230.062 138.712 229.498C139.24 228.934 139.504 228.166 139.504 227.194V219.994H141.628V227.248C141.628 228.784 141.184 229.996 140.296 230.884C139.42 231.772 138.136 232.216 136.444 232.216ZM148.445 232.216C147.293 232.216 146.363 231.742 145.655 230.794V235.312H143.765V223.306H145.655V224.494C146.351 223.558 147.281 223.09 148.445 223.09C149.585 223.09 150.509 223.498 151.217 224.314C151.937 225.13 152.297 226.24 152.297 227.644C152.297 229.048 151.937 230.164 151.217 230.992C150.509 231.808 149.585 232.216 148.445 232.216ZM147.887 230.542C148.631 230.542 149.225 230.272 149.669 229.732C150.113 229.192 150.335 228.496 150.335 227.644C150.335 226.792 150.113 226.102 149.669 225.574C149.225 225.034 148.631 224.764 147.887 224.764C147.455 224.764 147.029 224.878 146.609 225.106C146.189 225.334 145.871 225.61 145.655 225.934V229.372C145.871 229.696 146.189 229.972 146.609 230.2C147.029 230.428 147.455 230.542 147.887 230.542ZM163.369 232H161.389L159.373 225.628L157.357 232H155.377L152.677 223.306H154.639L156.475 229.624L158.545 223.306H160.201L162.271 229.624L164.107 223.306H166.069L163.369 232ZM170.946 232.216C169.602 232.216 168.522 231.778 167.706 230.902C166.89 230.014 166.482 228.928 166.482 227.644C166.482 226.36 166.89 225.28 167.706 224.404C168.522 223.528 169.602 223.09 170.946 223.09C172.302 223.09 173.388 223.528 174.204 224.404C175.02 225.28 175.428 226.36 175.428 227.644C175.428 228.94 175.02 230.026 174.204 230.902C173.388 231.778 172.302 232.216 170.946 232.216ZM170.946 230.542C171.726 230.542 172.338 230.266 172.782 229.714C173.238 229.15 173.466 228.46 173.466 227.644C173.466 226.84 173.238 226.162 172.782 225.61C172.338 225.046 171.726 224.764 170.946 224.764C170.178 224.764 169.566 225.046 169.11 225.61C168.666 226.162 168.444 226.84 168.444 227.644C168.444 228.46 168.666 229.15 169.11 229.714C169.566 230.266 170.178 230.542 170.946 230.542ZM178.87 232H176.98V223.306H178.87V224.584C179.206 224.152 179.626 223.798 180.13 223.522C180.634 223.246 181.156 223.108 181.696 223.108V224.98C181.528 224.944 181.33 224.926 181.102 224.926C180.706 224.926 180.28 225.046 179.824 225.286C179.38 225.514 179.062 225.778 178.87 226.078V232ZM190.996 232H188.62L185.956 228.418L184.75 229.66V232H182.86V219.994H184.75V227.5L188.584 223.306H190.924L187.306 227.248L190.996 232Z" fill="white"/>
<defs>
<radialGradient id="paint0_radial_2_3298" cx="0" cy="0" r="1" gradientUnits="userSpaceOnUse" gradientTransform="translate(361.752 701.481) rotate(-117.321) scale(874.695 425.086)">
<stop stop-color="white"/>
<stop offset="1" stop-color="white" stop-opacity="0"/>
</radialGradient>
<radialGradient id="paint1_radial_2_3298" cx="0" cy="0" r="1" gradientUnits="userSpaceOnUse" gradientTransform="translate(-56.7561 -227.353) rotate(54.1092) scale(652.043 336.094)">
<stop stop-color="white"/>
<stop offset="1" stop-color="white" stop-opacity="0"/>
</radialGradient>
<radialGradient id="paint2_radial_2_3298" cx="0" cy="0" r="1" gradientUnits="userSpaceOnUse" gradientTransform="translate(148.5 140.409) rotate(134.427) scale(230.943 172.559)">
<stop stop-color="white"/>
<stop offset="1" stop-color="#151515" stop-opacity="0"/>
</radialGradient>
<clipPath id="clip0_2_3298">
<rect width="120" height="120" fill="white" transform="translate(88.5 63)"/>
</clipPath>
</defs>
</svg>
