<svg width="297" height="297" viewBox="0 0 297 297" fill="none" xmlns="http://www.w3.org/2000/svg">
<circle cx="148.5" cy="148.5" r="148" stroke="url(#paint0_radial_2_3303)" stroke-opacity="0.66"/>
<circle cx="148.5" cy="148.5" r="148" stroke="url(#paint1_radial_2_3303)" stroke-opacity="0.66"/>
<circle cx="148.5" cy="148.5" r="148" stroke="url(#paint2_radial_2_3303)"/>
<g clip-path="url(#clip0_2_3303)">
<path d="M131.216 166.234C131.216 166.234 155.773 166.355 163.878 173.13L159.644 174.642C159.644 174.642 148.152 166.476 128.131 167.988C129.159 167.081 131.216 166.234 131.216 166.234Z" fill="white"/>
<path d="M165.757 166.234C165.757 166.234 141.2 166.355 133.095 173.13L137.329 174.642C137.329 174.642 148.821 166.476 168.842 167.988C167.814 167.081 165.757 166.234 165.757 166.234Z" fill="white"/>
<path fill-rule="evenodd" clip-rule="evenodd" d="M110.531 81.6739C115.673 78.3471 120.995 73.3872 130.129 70C123.475 70.0605 112.951 74.2341 110.531 81.6739Z" fill="white"/>
<path fill-rule="evenodd" clip-rule="evenodd" d="M116.459 82.7031C115.37 83.187 114.584 83.4894 113.677 83.7314C111.983 84.1548 110.592 84.2758 109.14 84.7597C107.991 85.1226 107.023 85.7274 106.237 86.3928C105.511 86.9977 104.967 87.6025 104.543 88.2074C103.697 89.4171 102.971 91.3527 102.971 92.8044C103.636 92.139 104.241 91.5946 104.906 91.1107C105.935 90.3849 106.902 89.8405 107.931 89.4171C108.717 89.1147 109.382 88.8123 110.048 88.4493C112.89 86.9977 114.524 84.9411 116.459 82.7031Z" fill="white"/>
<path fill-rule="evenodd" clip-rule="evenodd" d="M102.91 92.8646C102.91 90.7475 104.846 87.1788 105.995 85.7876C106.781 84.8199 107.386 83.7311 107.931 82.5819C108.898 80.5858 109.745 78.2873 109.987 76.5332C108.777 77.259 107.507 78.0454 106.176 79.0736C103.273 81.4326 101.64 83.973 102.063 87.4208C102.184 88.812 102.184 91.7153 102.91 92.8646Z" fill="white"/>
<path fill-rule="evenodd" clip-rule="evenodd" d="M108.052 93.2266C107.084 93.8919 106.358 94.3153 105.572 94.6782C103.999 95.3436 102.669 95.7065 101.398 96.4323C100.37 96.9767 99.5837 97.7026 98.9184 98.5494C98.3135 99.2752 97.9506 99.9406 97.6482 100.606C97.1038 101.937 96.8014 103.993 97.1643 105.384C97.6482 104.598 98.1321 103.993 98.6764 103.388C99.4628 102.481 100.31 101.816 101.277 101.211C101.943 100.787 102.548 100.364 103.152 99.9406C105.511 98.0655 106.661 95.7065 108.052 93.2266Z" fill="white"/>
<path fill-rule="evenodd" clip-rule="evenodd" d="M97.1068 105.446C96.6229 103.389 97.7116 99.5181 98.5584 98.006C99.1028 96.9172 99.4657 95.768 99.7077 94.5582C100.192 92.4412 100.494 90.0822 100.373 88.3281C99.3448 89.2959 98.3165 90.2032 97.1672 91.4734C94.8688 94.2558 93.8405 97.0382 94.9897 100.365C95.4131 101.635 96.139 104.418 97.1068 105.446Z" fill="white"/>
<path fill-rule="evenodd" clip-rule="evenodd" d="M103.03 103.752C102.243 104.72 101.638 105.385 100.913 105.99C99.5213 107.139 98.1906 107.865 97.1019 108.954C96.1946 109.861 95.6502 110.829 95.2268 111.857C94.8639 112.825 94.6824 113.611 94.6219 114.398C94.5009 115.97 94.9848 118.208 95.8316 119.66C96.0736 118.692 96.376 117.906 96.6785 117.119C97.2228 115.97 97.8882 115.002 98.6745 114.095C99.2189 113.43 99.7633 112.825 100.187 112.22C102.122 109.559 102.485 106.776 103.03 103.752Z" fill="white"/>
<path fill-rule="evenodd" clip-rule="evenodd" d="M95.8304 119.721C94.5602 117.665 94.3183 113.249 94.6207 111.435C94.8022 110.104 94.7417 108.773 94.6207 107.442C94.3788 105.023 93.7739 102.422 92.9876 100.607C92.2617 101.878 91.4754 103.148 90.7496 104.781C89.2979 108.41 89.2374 111.616 91.7174 114.822C92.6851 116.092 94.4393 118.874 95.8304 119.721Z" fill="white"/>
<path fill-rule="evenodd" clip-rule="evenodd" d="M100.672 116.15C100.128 117.239 99.7045 118.025 99.0996 118.751C98.0109 120.142 96.8616 121.11 96.0148 122.441C95.3495 123.53 94.9865 124.558 94.8656 125.707C94.7446 126.736 94.7446 127.582 94.926 128.369C95.2285 130.002 96.1963 132.119 97.4665 133.389C97.4665 132.361 97.527 131.514 97.7084 130.667C97.9504 129.397 98.3738 128.369 98.9182 127.28C99.3416 126.494 99.644 125.828 99.9464 125.102C101.217 122.139 100.854 119.296 100.672 116.15Z" fill="white"/>
<path fill-rule="evenodd" clip-rule="evenodd" d="M97.467 133.45C95.6524 131.636 94.3217 127.281 94.2007 125.345C94.0798 124.014 93.6563 122.684 93.1725 121.353C92.3256 118.994 91.1159 116.514 89.8457 114.82C89.4223 116.272 88.9384 117.663 88.636 119.417C88.1521 123.349 88.8779 126.555 92.1442 129.337C93.4144 130.426 95.8943 132.845 97.467 133.45Z" fill="white"/>
<path fill-rule="evenodd" clip-rule="evenodd" d="M100.917 128.008C100.796 129.278 100.615 130.185 100.312 131.153C99.7073 132.907 98.9209 134.238 98.4975 135.811C98.1951 137.081 98.2556 138.291 98.558 139.5C98.8 140.589 99.1629 141.436 99.5863 142.222C100.494 143.795 102.308 145.73 104.062 146.698C103.699 145.609 103.457 144.763 103.276 143.855C103.034 142.464 103.095 141.254 103.276 140.045C103.397 139.137 103.518 138.351 103.518 137.565C103.76 133.996 102.308 131.153 100.917 128.008Z" fill="white"/>
<path fill-rule="evenodd" clip-rule="evenodd" d="M104.123 146.698C101.582 145.307 98.5581 141.194 97.7113 139.258C97.1065 137.927 96.1387 136.657 95.1709 135.447C93.4168 133.27 91.2393 131.032 89.3037 129.641C89.3642 131.213 89.4852 132.786 89.7876 134.721C90.6949 138.835 92.6305 141.98 97.046 143.915C98.8001 144.641 102.248 146.516 104.123 146.698Z" fill="white"/>
<path fill-rule="evenodd" clip-rule="evenodd" d="M105.693 139.803C106.056 141.194 106.237 142.222 106.297 143.311C106.358 145.367 105.995 147.001 106.237 148.815C106.418 150.267 106.963 151.537 107.749 152.686C108.475 153.775 109.14 154.561 109.927 155.287C111.56 156.678 114.282 158.251 116.52 158.735C115.673 157.707 115.068 156.86 114.584 155.953C113.798 154.561 113.374 153.231 113.072 151.9C112.83 150.872 112.588 150.025 112.346 149.178C111.076 145.367 108.415 142.767 105.693 139.803Z" fill="white"/>
<path fill-rule="evenodd" clip-rule="evenodd" d="M116.58 158.795C113.314 158.069 108.475 154.561 106.781 152.807C105.571 151.536 104.12 150.508 102.547 149.48C99.8252 147.665 96.5589 145.911 93.958 145.004C94.6838 146.698 95.4097 148.331 96.4984 150.266C99.0994 154.379 102.426 157.162 107.93 157.948C110.047 158.19 114.523 159.158 116.58 158.795Z" fill="white"/>
<path fill-rule="evenodd" clip-rule="evenodd" d="M115.614 150.871C116.642 152.141 117.247 153.109 117.731 154.198C118.638 156.254 119.062 157.948 120.09 159.702C120.937 161.093 122.086 162.182 123.417 163.15C124.627 163.997 125.715 164.602 126.865 165.085C129.163 165.993 132.732 166.719 135.272 166.537C133.942 165.751 132.913 165.085 132.006 164.299C130.554 163.15 129.526 162.001 128.619 160.67C127.953 159.763 127.288 158.916 126.623 158.129C123.719 154.803 119.788 152.988 115.614 150.871Z" fill="white"/>
<path fill-rule="evenodd" clip-rule="evenodd" d="M135.39 166.538C131.64 166.78 124.986 164.784 122.446 163.514C120.631 162.606 118.635 162.001 116.518 161.457C112.829 160.489 108.655 159.703 105.51 159.582C107.022 161.034 108.474 162.485 110.47 164.058C115.006 167.385 119.724 169.139 125.894 168.232C128.253 167.929 133.334 167.566 135.39 166.538Z" fill="white"/>
<path fill-rule="evenodd" clip-rule="evenodd" d="M186.451 81.6739C181.31 78.4076 175.926 73.3872 166.853 70C173.507 70.0605 184.031 74.2341 186.451 81.6739Z" fill="white"/>
<path fill-rule="evenodd" clip-rule="evenodd" d="M180.518 82.7031C181.607 83.187 182.393 83.4894 183.301 83.7314C184.994 84.1548 186.386 84.2758 187.837 84.7597C188.986 85.1226 189.954 85.7274 190.741 86.3928C191.466 86.9977 192.011 87.6025 192.434 88.2074C193.281 89.4171 194.007 91.3527 194.007 92.8044C193.342 92.139 192.737 91.5946 192.071 91.1107C191.043 90.3849 190.075 89.8405 188.986 89.4171C188.2 89.1147 187.535 88.8123 186.869 88.4493C184.087 86.9977 182.454 84.9411 180.518 82.7031Z" fill="white"/>
<path fill-rule="evenodd" clip-rule="evenodd" d="M194.069 92.8646C194.069 90.7475 192.133 87.1788 190.984 85.7876C190.198 84.8199 189.593 83.7311 189.049 82.5819C188.081 80.5858 187.234 78.2873 186.992 76.5332C188.202 77.259 189.472 78.0454 190.803 79.0736C193.706 81.4326 195.339 83.973 194.916 87.4208C194.795 88.812 194.795 91.7153 194.069 92.8646Z" fill="white"/>
<path fill-rule="evenodd" clip-rule="evenodd" d="M188.937 93.2266C189.904 93.8919 190.63 94.3153 191.416 94.6782C192.989 95.3436 194.32 95.7065 195.59 96.4323C196.618 96.9767 197.405 97.7026 198.07 98.5494C198.675 99.2752 199.038 99.9406 199.34 100.606C199.885 101.937 200.187 103.993 199.824 105.384C199.34 104.598 198.856 103.993 198.312 103.388C197.526 102.481 196.679 101.816 195.711 101.211C195.046 100.787 194.441 100.364 193.836 99.9406C191.477 98.0655 190.328 95.7065 188.937 93.2266Z" fill="white"/>
<path fill-rule="evenodd" clip-rule="evenodd" d="M199.886 105.446C200.37 103.389 199.281 99.5181 198.434 98.006C197.89 96.9172 197.527 95.768 197.285 94.5582C196.801 92.4412 196.499 90.0822 196.62 88.3281C197.648 89.2959 198.676 90.2032 199.825 91.4734C202.124 94.2558 203.152 97.0382 202.003 100.365C201.58 101.635 200.854 104.418 199.886 105.446Z" fill="white"/>
<path fill-rule="evenodd" clip-rule="evenodd" d="M193.948 103.752C194.735 104.72 195.339 105.385 196.065 105.99C197.456 107.139 198.787 107.865 199.876 108.954C200.783 109.861 201.328 110.829 201.751 111.857C202.114 112.825 202.295 113.611 202.356 114.398C202.477 115.97 201.993 118.208 201.146 119.66C200.904 118.692 200.602 117.906 200.299 117.119C199.755 115.97 199.09 115.002 198.303 114.095C197.759 113.43 197.215 112.825 196.791 112.22C194.856 109.559 194.493 106.776 193.948 103.752Z" fill="white"/>
<path fill-rule="evenodd" clip-rule="evenodd" d="M201.146 119.721C202.417 117.665 202.658 113.249 202.356 111.435C202.175 110.104 202.235 108.773 202.356 107.442C202.598 105.023 203.203 102.422 203.989 100.607C204.715 101.878 205.501 103.148 206.227 104.781C207.679 108.41 207.739 111.616 205.259 114.822C204.292 116.092 202.537 118.874 201.146 119.721Z" fill="white"/>
<path fill-rule="evenodd" clip-rule="evenodd" d="M196.313 116.15C196.857 117.239 197.28 118.025 197.885 118.751C198.974 120.142 200.123 121.11 200.97 122.441C201.635 123.53 201.998 124.558 202.119 125.707C202.24 126.736 202.24 127.582 202.059 128.369C201.756 130.002 200.789 132.119 199.518 133.389C199.518 132.361 199.458 131.514 199.276 130.667C199.034 129.397 198.611 128.369 198.067 127.28C197.643 126.494 197.341 125.828 197.038 125.102C195.768 122.139 196.131 119.296 196.313 116.15Z" fill="white"/>
<path fill-rule="evenodd" clip-rule="evenodd" d="M199.518 133.45C201.332 131.636 202.663 127.281 202.784 125.345C202.905 124.014 203.328 122.684 203.812 121.353C204.659 118.994 205.869 116.514 207.139 114.82C207.562 116.272 208.046 117.663 208.349 119.417C208.893 123.288 208.167 126.494 204.84 129.277C203.57 130.426 201.09 132.845 199.518 133.45Z" fill="white"/>
<path fill-rule="evenodd" clip-rule="evenodd" d="M196.079 128.008C196.2 129.278 196.381 130.185 196.684 131.153C197.289 132.907 198.075 134.238 198.498 135.811C198.801 137.081 198.74 138.291 198.438 139.5C198.196 140.589 197.833 141.436 197.41 142.222C196.502 143.795 194.688 145.73 192.934 146.698C193.297 145.609 193.538 144.763 193.72 143.855C193.962 142.464 193.901 141.254 193.72 140.045C193.599 139.137 193.478 138.351 193.478 137.565C193.236 133.996 194.688 131.153 196.079 128.008Z" fill="white"/>
<path fill-rule="evenodd" clip-rule="evenodd" d="M192.871 146.698C195.412 145.307 198.436 141.194 199.283 139.258C199.888 137.927 200.855 136.657 201.823 135.447C203.577 133.27 205.755 131.032 207.69 129.641C207.63 131.213 207.509 132.786 207.206 134.721C206.299 138.835 204.364 141.98 199.948 143.915C198.194 144.641 194.746 146.516 192.871 146.698Z" fill="white"/>
<path fill-rule="evenodd" clip-rule="evenodd" d="M191.294 139.803C190.931 141.194 190.749 142.222 190.689 143.311C190.629 145.367 190.991 147.001 190.75 148.815C190.568 150.267 190.024 151.537 189.237 152.686C188.512 153.775 187.846 154.561 187.06 155.287C185.427 156.678 182.705 158.251 180.467 158.735C181.314 157.707 181.918 156.86 182.402 155.953C183.189 154.561 183.612 153.231 183.915 151.9C184.156 150.872 184.398 150.025 184.64 149.178C185.911 145.367 188.572 142.767 191.294 139.803Z" fill="white"/>
<path fill-rule="evenodd" clip-rule="evenodd" d="M180.404 158.795C183.671 158.069 188.509 154.561 190.203 152.807C191.413 151.536 192.865 150.508 194.437 149.48C197.159 147.665 200.425 145.911 203.026 145.004C202.3 146.698 201.575 148.331 200.486 150.266C197.885 154.379 194.558 157.162 189.054 157.948C186.937 158.19 182.461 159.158 180.404 158.795Z" fill="white"/>
<path fill-rule="evenodd" clip-rule="evenodd" d="M181.377 150.871C180.349 152.141 179.744 153.109 179.26 154.198C178.353 156.254 177.929 157.948 176.901 159.702C176.054 161.093 174.905 162.182 173.574 163.15C172.364 163.997 171.276 164.602 170.126 165.085C167.828 165.993 164.259 166.719 161.719 166.537C163.049 165.751 164.078 165.085 164.985 164.299C166.437 163.15 167.465 162.001 168.372 160.67C169.038 159.763 169.703 158.916 170.368 158.129C173.272 154.803 177.203 152.988 181.377 150.871Z" fill="white"/>
<path fill-rule="evenodd" clip-rule="evenodd" d="M161.594 166.538C165.344 166.78 171.997 164.784 174.538 163.514C176.352 162.606 178.349 162.001 180.466 161.457C184.155 160.489 188.329 159.703 191.474 159.582C189.962 161.034 188.51 162.485 186.514 164.058C181.978 167.385 177.26 169.139 171.09 168.232C168.731 167.929 163.65 167.566 161.594 166.538Z" fill="white"/>
<path d="M162.783 103.087C162.753 102.875 162.562 102.758 162.405 102.745C162.248 102.732 159.183 102.687 159.183 102.687C159.183 102.687 156.62 100.259 156.367 100.012C156.114 99.7643 155.619 99.8393 155.427 99.8945C155.424 99.8953 154.946 100.04 154.139 100.283C154.004 99.8567 153.806 99.3326 153.523 98.806C152.61 97.1076 151.274 96.2086 149.658 96.2063C149.657 96.2063 149.655 96.2063 149.653 96.2063C149.541 96.2063 149.429 96.2166 149.318 96.2265C149.27 96.1707 149.222 96.1154 149.172 96.0627C148.469 95.3286 147.566 94.9709 146.485 95.0018C144.399 95.0602 142.322 96.5296 140.638 99.1392C139.452 100.976 138.551 103.283 138.295 105.069C135.9 105.792 134.224 106.299 134.188 106.31C132.979 106.68 132.941 106.717 132.783 107.828C132.663 108.669 129.5 132.528 129.5 132.528L156.01 137L167.5 134.214C167.5 134.214 162.812 103.299 162.783 103.087ZM139.78 104.62C140.497 101.351 143.306 96.4458 146.525 96.3555C147.015 96.3455 147.427 96.4504 147.78 96.6765C147.216 96.9619 146.671 97.3721 146.16 97.9069C144.835 99.2934 143.82 101.446 143.415 103.522C142.152 103.904 140.917 104.277 139.78 104.62ZM149.367 101.725C147.978 102.144 146.462 102.602 144.941 103.061C145.369 101.464 146.18 99.8728 147.176 98.8306C147.546 98.4429 148.065 98.0103 148.678 97.7633C149.256 98.9369 149.381 100.601 149.367 101.725ZM150.754 101.306C150.738 100.275 150.612 98.8422 150.12 97.6033C151.703 97.8958 152.482 99.6428 152.811 100.684C152.201 100.869 151.506 101.078 150.754 101.306Z" fill="white"/>
<path d="M162.41 102.745C162.253 102.732 159.188 102.687 159.188 102.687C159.188 102.687 156.625 100.258 156.372 100.011C156.277 99.9191 156.149 99.8719 156.016 99.8516L156.016 137L167.505 134.214C167.505 134.214 162.817 103.299 162.787 103.087C162.758 102.875 162.567 102.758 162.41 102.745Z" fill="white"/>
<path d="M149.643 108.508L148.309 113.377C148.309 113.377 146.82 112.716 145.056 112.825C142.468 112.984 142.44 114.576 142.466 114.975C142.607 117.153 148.481 117.629 148.811 122.73C149.071 126.743 146.629 129.488 143.11 129.705C138.888 129.965 136.562 127.535 136.562 127.535L137.457 123.821C137.457 123.821 139.797 125.543 141.67 125.428C142.894 125.353 143.331 124.382 143.286 123.696C143.102 120.855 138.32 121.022 138.017 116.354C137.763 112.426 140.408 108.446 146.243 108.086C148.492 107.948 149.643 108.508 149.643 108.508Z" fill="#010C07"/>
</g>
<path d="M90.6595 207.216C88.5955 207.216 86.9695 206.58 85.7815 205.308L86.9515 203.688C87.9835 204.792 89.2495 205.344 90.7495 205.344C91.5535 205.344 92.1535 205.182 92.5495 204.858C92.9575 204.534 93.1615 204.15 93.1615 203.706C93.1615 203.25 92.9215 202.89 92.4415 202.626C91.9615 202.35 91.3795 202.134 90.6955 201.978C90.0115 201.822 89.3215 201.636 88.6255 201.42C87.9415 201.204 87.3595 200.838 86.8795 200.322C86.3995 199.806 86.1595 199.14 86.1595 198.324C86.1595 197.316 86.5615 196.482 87.3655 195.822C88.1815 195.15 89.2375 194.814 90.5335 194.814C92.3815 194.814 93.8815 195.372 95.0335 196.488L93.8275 198.054C92.9155 197.142 91.7575 196.686 90.3535 196.686C89.7295 196.686 89.2315 196.824 88.8595 197.1C88.4995 197.364 88.3195 197.724 88.3195 198.18C88.3195 198.48 88.4455 198.732 88.6975 198.936C88.9615 199.14 89.2975 199.308 89.7055 199.44C90.1135 199.56 90.5635 199.68 91.0555 199.8C91.5595 199.92 92.0575 200.07 92.5495 200.25C93.0535 200.418 93.5095 200.628 93.9175 200.88C94.3255 201.132 94.6555 201.48 94.9075 201.924C95.1715 202.368 95.3035 202.896 95.3035 203.508C95.3035 204.588 94.9135 205.476 94.1335 206.172C93.3535 206.868 92.1955 207.216 90.6595 207.216ZM104.605 207H102.715V201.528C102.715 200.892 102.559 200.442 102.247 200.178C101.947 199.902 101.515 199.764 100.951 199.764C100.507 199.764 100.087 199.878 99.691 200.106C99.295 200.334 98.971 200.61 98.719 200.934V207H96.829V194.994H98.719V199.494C99.043 199.11 99.475 198.78 100.015 198.504C100.567 198.228 101.161 198.09 101.797 198.09C103.669 198.09 104.605 199.008 104.605 200.844V207ZM110.623 207.216C109.279 207.216 108.199 206.778 107.383 205.902C106.567 205.014 106.159 203.928 106.159 202.644C106.159 201.36 106.567 200.28 107.383 199.404C108.199 198.528 109.279 198.09 110.623 198.09C111.979 198.09 113.065 198.528 113.881 199.404C114.697 200.28 115.105 201.36 115.105 202.644C115.105 203.94 114.697 205.026 113.881 205.902C113.065 206.778 111.979 207.216 110.623 207.216ZM110.623 205.542C111.403 205.542 112.015 205.266 112.459 204.714C112.915 204.15 113.143 203.46 113.143 202.644C113.143 201.84 112.915 201.162 112.459 200.61C112.015 200.046 111.403 199.764 110.623 199.764C109.855 199.764 109.243 200.046 108.787 200.61C108.343 201.162 108.121 201.84 108.121 202.644C108.121 203.46 108.343 204.15 108.787 204.714C109.243 205.266 109.855 205.542 110.623 205.542ZM121.338 207.216C120.186 207.216 119.256 206.742 118.548 205.794V210.312H116.658V198.306H118.548V199.494C119.244 198.558 120.174 198.09 121.338 198.09C122.478 198.09 123.402 198.498 124.11 199.314C124.83 200.13 125.19 201.24 125.19 202.644C125.19 204.048 124.83 205.164 124.11 205.992C123.402 206.808 122.478 207.216 121.338 207.216ZM120.78 205.542C121.524 205.542 122.118 205.272 122.562 204.732C123.006 204.192 123.228 203.496 123.228 202.644C123.228 201.792 123.006 201.102 122.562 200.574C122.118 200.034 121.524 199.764 120.78 199.764C120.348 199.764 119.922 199.878 119.502 200.106C119.082 200.334 118.764 200.61 118.548 200.934V204.372C118.764 204.696 119.082 204.972 119.502 205.2C119.922 205.428 120.348 205.542 120.78 205.542ZM127.64 197.244C127.328 197.244 127.052 197.13 126.812 196.902C126.584 196.674 126.47 196.398 126.47 196.074C126.47 195.75 126.584 195.474 126.812 195.246C127.052 195.018 127.328 194.904 127.64 194.904C127.964 194.904 128.24 195.018 128.468 195.246C128.696 195.474 128.81 195.75 128.81 196.074C128.81 196.398 128.696 196.674 128.468 196.902C128.24 197.13 127.964 197.244 127.64 197.244ZM128.594 207H126.704V198.306H128.594V207ZM133.026 207H131.136V199.962H129.696V198.306H131.136V197.82C131.136 196.884 131.382 196.152 131.874 195.624C132.378 195.084 133.05 194.814 133.89 194.814C134.79 194.814 135.486 195.066 135.978 195.57L135.24 196.74C134.964 196.488 134.628 196.362 134.232 196.362C133.86 196.362 133.566 196.488 133.35 196.74C133.134 196.98 133.026 197.34 133.026 197.82V198.306H134.79V199.962H133.026V207ZM135.485 210.402L135.773 208.71C135.989 208.806 136.229 208.854 136.493 208.854C137.105 208.854 137.519 208.602 137.735 208.098L138.167 207.108L134.603 198.306H136.619L139.157 204.822L141.695 198.306H143.729L139.535 208.566C139.019 209.85 138.023 210.504 136.547 210.528C136.151 210.528 135.797 210.486 135.485 210.402ZM153.499 207.216C152.347 207.216 151.417 206.742 150.709 205.794V210.312H148.819V198.306H150.709V199.494C151.405 198.558 152.335 198.09 153.499 198.09C154.639 198.09 155.563 198.498 156.271 199.314C156.991 200.13 157.351 201.24 157.351 202.644C157.351 204.048 156.991 205.164 156.271 205.992C155.563 206.808 154.639 207.216 153.499 207.216ZM152.941 205.542C153.685 205.542 154.279 205.272 154.723 204.732C155.167 204.192 155.389 203.496 155.389 202.644C155.389 201.792 155.167 201.102 154.723 200.574C154.279 200.034 153.685 199.764 152.941 199.764C152.509 199.764 152.083 199.878 151.663 200.106C151.243 200.334 150.925 200.61 150.709 200.934V204.372C150.925 204.696 151.243 204.972 151.663 205.2C152.083 205.428 152.509 205.542 152.941 205.542ZM166.065 207H164.175V206.064C163.503 206.832 162.567 207.216 161.367 207.216C160.575 207.216 159.873 206.964 159.261 206.46C158.649 205.944 158.343 205.236 158.343 204.336C158.343 203.412 158.643 202.71 159.243 202.23C159.855 201.75 160.563 201.51 161.367 201.51C162.603 201.51 163.539 201.882 164.175 202.626V201.33C164.175 200.826 163.989 200.43 163.617 200.142C163.245 199.854 162.753 199.71 162.141 199.71C161.169 199.71 160.311 200.076 159.567 200.808L158.793 199.494C159.777 198.558 160.995 198.09 162.447 198.09C163.515 198.09 164.385 198.342 165.057 198.846C165.729 199.35 166.065 200.148 166.065 201.24V207ZM162.105 205.92C163.053 205.92 163.743 205.62 164.175 205.02V203.706C163.743 203.106 163.053 202.806 162.105 202.806C161.565 202.806 161.121 202.95 160.773 203.238C160.425 203.526 160.251 203.904 160.251 204.372C160.251 204.84 160.425 205.218 160.773 205.506C161.121 205.782 161.565 205.92 162.105 205.92ZM170.045 207H168.155V198.306H170.045V199.584C170.381 199.152 170.801 198.798 171.305 198.522C171.809 198.246 172.331 198.108 172.871 198.108V199.98C172.703 199.944 172.505 199.926 172.277 199.926C171.881 199.926 171.455 200.046 170.999 200.286C170.555 200.514 170.237 200.778 170.045 201.078V207ZM176.646 207.216C175.914 207.216 175.356 207.024 174.972 206.64C174.6 206.256 174.414 205.704 174.414 204.984V199.962H172.974V198.306H174.414V195.93H176.304V198.306H178.068V199.962H176.304V204.516C176.304 204.828 176.376 205.08 176.52 205.272C176.664 205.452 176.868 205.542 177.132 205.542C177.516 205.542 177.798 205.44 177.978 205.236L178.428 206.658C178.032 207.03 177.438 207.216 176.646 207.216ZM187.182 207H185.292V201.564C185.292 200.364 184.71 199.764 183.546 199.764C183.09 199.764 182.664 199.878 182.268 200.106C181.872 200.334 181.554 200.61 181.314 200.934V207H179.424V198.306H181.314V199.494C181.638 199.11 182.07 198.78 182.61 198.504C183.15 198.228 183.738 198.09 184.374 198.09C185.298 198.09 185.994 198.33 186.462 198.81C186.942 199.29 187.182 199.98 187.182 200.88V207ZM193.291 207.216C191.971 207.216 190.879 206.796 190.015 205.956C189.163 205.104 188.737 204 188.737 202.644C188.737 201.372 189.151 200.298 189.979 199.422C190.819 198.534 191.875 198.09 193.147 198.09C194.431 198.09 195.463 198.534 196.243 199.422C197.035 200.31 197.431 201.444 197.431 202.824V203.274H190.717C190.789 203.958 191.071 204.528 191.563 204.984C192.055 205.44 192.697 205.668 193.489 205.668C193.933 205.668 194.377 205.584 194.821 205.416C195.277 205.248 195.655 205.014 195.955 204.714L196.819 205.956C195.943 206.796 194.767 207.216 193.291 207.216ZM195.595 201.942C195.571 201.342 195.349 200.808 194.929 200.34C194.521 199.872 193.927 199.638 193.147 199.638C192.403 199.638 191.821 199.872 191.401 200.34C190.981 200.796 190.747 201.33 190.699 201.942H195.595ZM200.826 207H198.936V198.306H200.826V199.584C201.162 199.152 201.582 198.798 202.086 198.522C202.59 198.246 203.112 198.108 203.652 198.108V199.98C203.484 199.944 203.286 199.926 203.058 199.926C202.662 199.926 202.236 200.046 201.78 200.286C201.336 200.514 201.018 200.778 200.826 201.078V207ZM207.786 207.216C206.226 207.216 204.984 206.766 204.06 205.866L204.924 204.498C205.248 204.834 205.686 205.122 206.238 205.362C206.79 205.602 207.336 205.722 207.876 205.722C208.428 205.722 208.848 205.614 209.136 205.398C209.436 205.182 209.586 204.9 209.586 204.552C209.586 204.24 209.406 204 209.046 203.832C208.686 203.652 208.248 203.514 207.732 203.418C207.216 203.31 206.7 203.184 206.184 203.04C205.668 202.884 205.23 202.614 204.87 202.23C204.51 201.846 204.33 201.348 204.33 200.736C204.33 199.992 204.636 199.368 205.248 198.864C205.86 198.348 206.694 198.09 207.75 198.09C209.082 198.09 210.21 198.498 211.134 199.314L210.342 200.646C210.066 200.334 209.7 200.082 209.244 199.89C208.788 199.698 208.296 199.602 207.768 199.602C207.276 199.602 206.88 199.704 206.58 199.908C206.292 200.1 206.148 200.352 206.148 200.664C206.148 200.904 206.274 201.102 206.526 201.258C206.79 201.402 207.114 201.51 207.498 201.582C207.894 201.654 208.32 201.756 208.776 201.888C209.232 202.008 209.652 202.152 210.036 202.32C210.432 202.488 210.756 202.764 211.008 203.148C211.272 203.52 211.404 203.976 211.404 204.516C211.404 205.308 211.086 205.956 210.45 206.46C209.814 206.964 208.926 207.216 207.786 207.216ZM131.085 232H128.691L127.809 229.696H122.301L121.419 232H119.025L123.741 219.994H126.369L131.085 232ZM127.215 227.842L125.055 222.118L122.895 227.842H127.215ZM135.511 235.528C134.035 235.528 132.823 235.096 131.875 234.232L132.757 232.864C133.405 233.608 134.323 233.98 135.511 233.98C136.231 233.98 136.837 233.788 137.329 233.404C137.833 233.032 138.085 232.438 138.085 231.622V230.578C137.341 231.538 136.411 232.018 135.295 232.018C134.155 232.018 133.225 231.622 132.505 230.83C131.797 230.038 131.443 228.946 131.443 227.554C131.443 226.174 131.797 225.088 132.505 224.296C133.225 223.492 134.155 223.09 135.295 223.09C136.435 223.09 137.365 223.564 138.085 224.512V223.306H139.975V231.55C139.975 232.294 139.843 232.936 139.579 233.476C139.327 234.028 138.979 234.442 138.535 234.718C138.091 235.006 137.617 235.21 137.113 235.33C136.621 235.462 136.087 235.528 135.511 235.528ZM135.853 230.344C136.285 230.344 136.711 230.23 137.131 230.002C137.551 229.774 137.869 229.498 138.085 229.174V225.934C137.869 225.61 137.551 225.334 137.131 225.106C136.711 224.878 136.285 224.764 135.853 224.764C135.109 224.764 134.515 225.022 134.071 225.538C133.627 226.042 133.405 226.714 133.405 227.554C133.405 228.394 133.627 229.072 134.071 229.588C134.515 230.092 135.109 230.344 135.853 230.344ZM146.078 232.216C144.758 232.216 143.666 231.796 142.802 230.956C141.95 230.104 141.524 229 141.524 227.644C141.524 226.372 141.938 225.298 142.766 224.422C143.606 223.534 144.662 223.09 145.934 223.09C147.218 223.09 148.25 223.534 149.03 224.422C149.822 225.31 150.218 226.444 150.218 227.824V228.274H143.504C143.576 228.958 143.858 229.528 144.35 229.984C144.842 230.44 145.484 230.668 146.276 230.668C146.72 230.668 147.164 230.584 147.608 230.416C148.064 230.248 148.442 230.014 148.742 229.714L149.606 230.956C148.73 231.796 147.554 232.216 146.078 232.216ZM148.382 226.942C148.358 226.342 148.136 225.808 147.716 225.34C147.308 224.872 146.714 224.638 145.934 224.638C145.19 224.638 144.608 224.872 144.188 225.34C143.768 225.796 143.534 226.33 143.486 226.942H148.382ZM159.482 232H157.592V226.564C157.592 225.364 157.01 224.764 155.846 224.764C155.39 224.764 154.964 224.878 154.568 225.106C154.172 225.334 153.854 225.61 153.614 225.934V232H151.724V223.306H153.614V224.494C153.938 224.11 154.37 223.78 154.91 223.504C155.45 223.228 156.038 223.09 156.674 223.09C157.598 223.09 158.294 223.33 158.762 223.81C159.242 224.29 159.482 224.98 159.482 225.88V232ZM165.537 232.216C164.217 232.216 163.137 231.79 162.297 230.938C161.457 230.074 161.037 228.976 161.037 227.644C161.037 226.324 161.457 225.238 162.297 224.386C163.137 223.522 164.217 223.09 165.537 223.09C166.989 223.09 168.099 223.606 168.867 224.638L167.625 225.79C167.145 225.106 166.479 224.764 165.627 224.764C164.835 224.764 164.199 225.034 163.719 225.574C163.239 226.102 162.999 226.792 162.999 227.644C162.999 228.496 163.239 229.192 163.719 229.732C164.199 230.272 164.835 230.542 165.627 230.542C166.455 230.542 167.121 230.2 167.625 229.516L168.867 230.668C168.099 231.7 166.989 232.216 165.537 232.216ZM169.786 235.402L170.074 233.71C170.29 233.806 170.53 233.854 170.794 233.854C171.406 233.854 171.82 233.602 172.036 233.098L172.468 232.108L168.904 223.306H170.92L173.458 229.822L175.996 223.306H178.03L173.836 233.566C173.32 234.85 172.324 235.504 170.848 235.528C170.452 235.528 170.098 235.486 169.786 235.402Z" fill="white"/>
<defs>
<radialGradient id="paint0_radial_2_3303" cx="0" cy="0" r="1" gradientUnits="userSpaceOnUse" gradientTransform="translate(361.752 701.481) rotate(-117.321) scale(874.695 425.086)">
<stop stop-color="white"/>
<stop offset="1" stop-color="white" stop-opacity="0"/>
</radialGradient>
<radialGradient id="paint1_radial_2_3303" cx="0" cy="0" r="1" gradientUnits="userSpaceOnUse" gradientTransform="translate(-56.7561 -227.353) rotate(54.1092) scale(652.043 336.094)">
<stop stop-color="white"/>
<stop offset="1" stop-color="white" stop-opacity="0"/>
</radialGradient>
<radialGradient id="paint2_radial_2_3303" cx="0" cy="0" r="1" gradientUnits="userSpaceOnUse" gradientTransform="translate(148.5 140.409) rotate(134.427) scale(230.943 172.559)">
<stop stop-color="white"/>
<stop offset="1" stop-color="#151515" stop-opacity="0"/>
</radialGradient>
<clipPath id="clip0_2_3303">
<rect width="120" height="120" fill="white" transform="translate(88.5 63)"/>
</clipPath>
</defs>
</svg>
