<svg width="10" height="11" viewBox="0 0 10 11" fill="none" xmlns="http://www.w3.org/2000/svg">
<path d="M4.99469 0.515625C3.89216 0.516838 2.83514 0.955323 2.05549 1.73489C1.27585 2.51445 0.837261 3.57143 0.835938 4.67396C0.835937 5.74479 1.6651 7.42063 3.30052 9.65479C3.49521 9.92151 3.75013 10.1385 4.04452 10.2881C4.33892 10.4377 4.66447 10.5156 4.99469 10.5156C5.32491 10.5156 5.65046 10.4377 5.94485 10.2881C6.23925 10.1385 6.49416 9.92151 6.68885 9.65479C8.32427 7.42063 9.15344 5.74479 9.15344 4.67396C9.15211 3.57143 8.71352 2.51445 7.93388 1.73489C7.15424 0.955323 6.09721 0.516838 4.99469 0.515625ZM4.99469 6.33146C4.66505 6.33146 4.34282 6.23371 4.06874 6.05057C3.79466 5.86744 3.58103 5.60714 3.45489 5.3026C3.32874 4.99805 3.29574 4.66294 3.36005 4.33964C3.42435 4.01634 3.58309 3.71937 3.81618 3.48628C4.04926 3.25319 4.34624 3.09446 4.66954 3.03015C4.99284 2.96584 5.32795 2.99885 5.63249 3.12499C5.93704 3.25114 6.19733 3.46476 6.38047 3.73884C6.56361 4.01292 6.66135 4.33516 6.66135 4.66479C6.66135 5.10682 6.48576 5.53074 6.1732 5.8433C5.86064 6.15586 5.43672 6.33146 4.99469 6.33146Z" fill="white"/>
</svg>
