<svg width="17" height="19" viewBox="0 0 17 19" fill="none" xmlns="http://www.w3.org/2000/svg">
<path fill-rule="evenodd" clip-rule="evenodd" d="M8.5 0.09375C5.24237 0.09375 2.59375 2.766 2.59375 6.06213C2.59375 7.17863 3.0855 8.56375 3.80125 9.94538C5.37713 12.9878 8.00212 16.052 8.00212 16.052C8.12637 16.1973 8.30837 16.2813 8.5 16.2813C8.69163 16.2813 8.87363 16.1973 8.99788 16.052C8.99788 16.052 11.6229 12.9878 13.1988 9.94538C13.9145 8.56375 14.4062 7.17863 14.4062 6.06213C14.4062 2.766 11.7576 0.09375 8.5 0.09375ZM8.5 3.59375C7.17175 3.59375 6.09375 4.67175 6.09375 6C6.09375 7.32825 7.17175 8.40625 8.5 8.40625C9.82825 8.40625 10.9062 7.32825 10.9062 6C10.9062 4.67175 9.82825 3.59375 8.5 3.59375Z" fill="#161616"/>
<path fill-rule="evenodd" clip-rule="evenodd" d="M12.686 14.2051C13.3974 14.4186 13.9836 14.6829 14.3888 14.9926C14.6512 15.1921 14.8438 15.3873 14.8438 15.6253C14.8438 15.7653 14.7641 15.8921 14.6521 16.019C14.4666 16.2281 14.191 16.4163 13.8498 16.5913C12.644 17.2081 10.6945 17.594 8.5 17.594C6.3055 17.594 4.356 17.2081 3.15025 16.5913C2.809 16.4163 2.53337 16.2281 2.34787 16.019C2.23587 15.8921 2.15625 15.7653 2.15625 15.6253C2.15625 15.3873 2.34875 15.1921 2.61125 14.9926C3.01638 14.6829 3.60263 14.4186 4.314 14.2051C4.6605 14.101 4.85738 13.7344 4.75325 13.3879C4.64912 13.0405 4.2825 12.8436 3.936 12.9478C2.85275 13.2741 2.011 13.7213 1.50525 14.2156C1.06075 14.6488 0.84375 15.1335 0.84375 15.6253C0.84375 16.2395 1.19113 16.852 1.89725 17.363C3.13625 18.259 5.62475 18.9065 8.5 18.9065C11.3752 18.9065 13.8637 18.259 15.1027 17.363C15.8089 16.852 16.1562 16.2395 16.1562 15.6253C16.1562 15.1335 15.9392 14.6488 15.4947 14.2156C14.989 13.7213 14.1472 13.2741 13.064 12.9478C12.7175 12.8436 12.3509 13.0405 12.2467 13.3879C12.1426 13.7344 12.3395 14.101 12.686 14.2051Z" fill="#161616"/>
</svg>
