<svg width="47" height="46" viewBox="0 0 47 46" fill="none" xmlns="http://www.w3.org/2000/svg">
<circle cx="23.5" cy="23" r="23" fill="#070707"/>
<path d="M29.7469 11.723C29.1863 11.7312 28.6497 11.9554 28.2537 12.3501L26.6002 14.0021L31.0953 18.4972L32.7488 16.8451C33.5852 16.0079 33.5852 14.6271 32.7488 13.7898C32.7488 13.7898 31.3053 12.3501 31.3034 12.3501C30.8895 11.9376 30.3312 11.7128 29.7469 11.723ZM25.5823 15.0201L15.2916 25.3108C14.8891 25.7149 14.6594 26.2658 14.6589 26.8363V29.7158C14.6574 30.1161 14.9827 30.4408 15.383 30.4385L18.2625 30.4329C18.8331 30.4324 19.3783 30.2084 19.7825 29.8058L30.0787 19.5151L25.5823 15.0201ZM15.3099 31.8783C15.3094 31.8787 15.309 31.8792 15.3085 31.8797C14.3708 31.9492 14.4432 33.3472 15.383 33.3195H32.6588C33.6404 33.3415 33.6404 31.8577 32.6588 31.8797H15.383C15.3587 31.878 15.3343 31.8776 15.3099 31.8783Z" fill="url(#paint0_linear_2_10723)"/>
<defs>
<linearGradient id="paint0_linear_2_10723" x1="13.3725" y1="29.7088" x2="35.5348" y2="15.8272" gradientUnits="userSpaceOnUse">
<stop stop-color="#5CD6B3"/>
<stop offset="0.0001" stop-color="#04B8C4"/>
<stop offset="1" stop-color="#4BFA8A"/>
</linearGradient>
</defs>
</svg>
