<svg width="32" height="32" viewBox="0 0 32 32" fill="none" xmlns="http://www.w3.org/2000/svg">
<circle cx="16" cy="16" r="16" fill="white"/>
<path d="M19.9931 8.50316C19.6031 8.50884 19.2298 8.66481 18.9544 8.93939L17.8041 10.0887L20.9311 13.2156L22.0813 12.0664C22.6632 11.4839 22.6632 10.5234 22.0813 9.94097C22.0813 9.94097 21.0772 8.93939 21.0759 8.93939C20.788 8.65247 20.3995 8.49606 19.9931 8.50316ZM17.096 10.7968L9.93725 17.9555C9.65723 18.2367 9.49744 18.6199 9.4971 19.0168V21.0199C9.49603 21.2984 9.72235 21.5243 10.0008 21.5227L12.004 21.5187C12.4008 21.5184 12.7802 21.3626 13.0613 21.0825L20.2239 13.9238L17.096 10.7968ZM9.94996 22.5242C9.94964 22.5246 9.94931 22.5249 9.94899 22.5252C9.29669 22.5735 9.34703 23.5461 10.0008 23.5268H22.0187C22.7016 23.5421 22.7016 22.5099 22.0187 22.5252H10.0008C9.9839 22.524 9.96692 22.5237 9.94996 22.5242Z" fill="#1D1D1B"/>
</svg>
