<svg width="73" height="32" viewBox="0 0 73 32" fill="none" xmlns="http://www.w3.org/2000/svg">
<path d="M14.7835 32C9.984 32 6.32037 30.9868 3.79262 28.9604C1.26368 26.9337 0 24.2085 0 20.7837C0 20.1871 0.0801705 19.4956 0.241702 18.7101L4.49312 0H12.9479L8.74493 18.5215C8.64849 18.7418 8.60007 19.1813 8.60007 19.841C8.63182 21.2549 9.18746 22.4566 10.267 23.4462C11.3457 24.4357 12.8519 24.9309 14.7843 24.9309C18.8424 24.9309 21.3547 22.7946 22.3211 18.5215L26.5233 0H34.9297L30.7267 18.6629C29.7603 22.8418 28.0287 26.109 25.5331 28.4657C23.0367 30.8219 19.4533 32.0004 14.7835 32.0004V32Z" fill="white"/>
<path d="M65.8978 31.4344H57.5882L62.2742 10.6507L49.4231 31.4344H45.7516L42.3213 10.6507L37.6349 31.4344H29.3253L36.4276 0H47.6844L50.4864 17.3903L61.1633 0H73L65.8982 31.4344H65.8978Z" fill="white"/>
</svg>
