<svg width="20" height="20" viewBox="0 0 20 20" fill="none" xmlns="http://www.w3.org/2000/svg">
<path d="M9.305 0.638999C9.52375 -0.0342667 10.4762 -0.0342669 10.695 0.638999L12.5301 6.28685C12.6279 6.58794 12.9085 6.7918 13.2251 6.7918H19.1636C19.8715 6.7918 20.1659 7.69767 19.5931 8.11377L14.7888 11.6043C14.5327 11.7904 14.4255 12.1203 14.5233 12.4214L16.3584 18.0692C16.5772 18.7425 15.8066 19.3023 15.2339 18.8862L10.4295 15.3957C10.1734 15.2096 9.82659 15.2096 9.57046 15.3957L4.76612 18.8862C4.19341 19.3023 3.42282 18.7425 3.64158 18.0692L5.47668 12.4214C5.57451 12.1203 5.46733 11.7904 5.21121 11.6043L0.406863 8.11377C-0.165851 7.69767 0.128485 6.7918 0.836398 6.7918H6.7749C7.09149 6.7918 7.37207 6.58794 7.4699 6.28685L9.305 0.638999Z" fill="white"/>
</svg>
